<?xml version="1.0" encoding="UTF-8"?>
<svg width="594px" height="414px" viewBox="0 0 594 414" version="1.1" xmlns="http://www.w3.org/2000/svg" xmlns:xlink="http://www.w3.org/1999/xlink">
    <title>1.通用/异常页/浏览器不兼容</title>
    <defs>
        <polygon id="path-1" points="0 0.116955664 27.2065782 0.116955664 27.2065782 16.4248047 0 16.4248047"></polygon>
        <polygon id="path-3" points="0.0288674805 0.0345143376 27.7053369 0.0345143376 27.7053369 13.7664903 0.0288674805 13.7664903"></polygon>
        <polygon id="path-5" points="0.0288674805 0.0526704343 26.2873682 0.0526704343 26.2873682 12.5848496 0.0288674805 12.5848496"></polygon>
        <polygon id="path-7" points="1.214774e-05 0 108.84375 0 108.84375 108.843738 1.214774e-05 108.843738"></polygon>
    </defs>
    <g id="1.通用/异常页/浏览器不兼容" stroke="none" stroke-width="1" fill="none" fill-rule="evenodd">
        <g id="编组" transform="translate(151.000000, 8.000000)">
            <g id="资源-29-copy" transform="translate(22.421875, 65.263672)">
                <rect id="矩形" fill="#E4EBF7" fill-rule="nonzero" x="0" y="12.3179103" width="365.15625" height="267.099978" rx="10.6624607"></rect>
                <g id="分组-2" transform="translate(105.393005, 62.120418)">
                    <path d="M0,187.080934 L0,3.648 C-6.90823058e-16,1.63326523 1.63326523,-4.51488054e-15 3.648,0 L225.853832,0 C227.868566,-1.69191855e-14 229.501832,1.63326523 229.501832,3.648 L229.501832,187.794643 L229.501832,187.794643 C229.501832,189.415105 228.154315,190.728934 226.492302,190.728934 L3.648,190.728934 C1.63326523,190.728934 -3.75006904e-15,189.095669 0,187.080934 Z" id="Fill-30" fill="#FFFFFF"></path>
                    <path d="M22.6379445,144.430696 C20.9755556,144.430696 19.6284149,143.116867 19.6284149,141.496404 L19.6284149,22.3164957 C19.6284149,20.6956665 20.9755556,19.3822044 22.6379445,19.3822044 L207.916244,19.3822044 C209.578257,19.3822044 210.925774,20.6956665 210.925774,22.3164957 L210.925774,141.496404 C210.925774,143.116867 209.578257,144.430696 207.916244,144.430696 L22.6379445,144.430696 Z" id="Fill-32" fill="#A3B5D6"></path>
                    <path d="M45.7926252,36.6222294 L32.6571573,36.6222294 C31.6406887,36.6222294 30.81683,35.8189672 30.81683,34.8279103 C30.81683,33.8372202 31.6406887,33.033958 32.6571573,33.033958 L45.7926252,33.033958 C46.8090938,33.033958 47.6329525,33.8372202 47.6329525,34.8279103 C47.6329525,35.8189672 46.8090938,36.6222294 45.7926252,36.6222294" id="Fill-34" fill="#FFFFFF"></path>
                    <path d="M46.0052484,45.2323937 L32.8694044,45.2323937 C31.853312,45.2323937 31.0294533,44.4291315 31.0294533,43.4380746 C31.0294533,42.4473845 31.853312,41.6441223 32.8694044,41.6441223 L46.0052484,41.6441223 C47.021717,41.6441223 47.8455758,42.4473845 47.8455758,43.4380746 C47.8455758,44.4291315 47.021717,45.2323937 46.0052484,45.2323937" id="Fill-36" fill="#FFFFFF"></path>
                    <path d="M19.6287911,111.407045 C39.5375814,111.407045 34.251278,86.8104239 64.4036977,86.8104239 C94.5561175,86.8104239 92.9858556,108.79879 116.502319,108.79879 C140.38524,108.79879 138.80532,45.6442827 161.686021,45.6442827 C185.837872,45.6442827 180.386197,102.87124 210.470206,102.87124 L210.470206,141.654086 C210.470206,143.275649 209.121185,144.589844 207.458044,144.588378 L22.6356873,144.433227 C20.9748032,144.431759 19.6287911,143.118664 19.6287911,141.498935 L19.6287911,111.407045 Z" id="Fill-38" fill="#253368"></path>
                    <path d="M64.1569625,52.5070092 C67.7137636,52.5070092 70.5834112,54.6195429 73.0563247,58.6295 C74.9541879,61.7069835 76.5800362,65.7176651 78.6298316,71.9850401 L78.9063962,72.8406704 C79.3874895,74.3658289 82.2621908,83.5151648 83.3361193,86.7107952 L83.4042738,86.9127244 C86.8625552,97.1103525 90.2463634,104.252928 94.6752461,109.679018 C100.083402,116.304875 106.760147,119.769175 115.324231,119.769175 C120.581839,119.769175 125.252095,118.360309 129.745245,115.649121 L130.140541,115.407331 C133.486129,113.332966 136.48335,110.756866 140.624567,106.63762 L142.408378,104.84649 L143.632614,103.612054 C144.668168,102.570544 145.461699,101.785095 146.227487,101.049283 L146.3708,100.91185 C152.493,95.0523235 157.160945,92.350676 162.849593,92.350676 C168.813285,92.350676 174.023852,95.3071615 181.161121,101.702065 L181.657432,102.149066 C182.048845,102.503361 182.4553,102.875316 182.894002,103.280297 L186.687726,106.819177 C191.395517,111.197341 194.27961,113.594653 197.572696,115.659346 C201.814302,118.31874 205.907628,119.712801 210.206665,119.7675 L210.470131,119.769175 L210.470131,122.051401 C205.607539,122.051401 201.028195,120.519574 196.360369,117.592949 L196.011365,117.372034 C192.651884,115.225061 189.67953,112.727365 184.894058,108.267472 L182.126163,105.680542 C181.241505,104.857344 180.502239,104.178474 179.799688,103.546796 L179.638163,103.401817 C172.887745,97.3535271 168.092863,94.6329026 162.849593,94.6329026 C157.957843,94.6329026 153.786861,97.0123987 148.157968,102.361149 L147.94882,102.56061 C147.294359,103.186991 146.626143,103.843889 145.802948,104.66746 L142.482024,108.008553 L141.981444,108.50645 C137.68845,112.759482 134.553666,115.413215 130.924329,117.603174 C126.088686,120.521022 121.015627,122.051401 115.324231,122.051401 C106.04284,122.051401 98.7315073,118.257838 92.9072014,111.122131 C88.3278705,105.511718 84.8735007,98.2735648 81.3826069,88.0559816 L81.0613737,87.1043832 C79.8117934,83.3464478 76.7536275,73.5960839 76.668527,73.333257 L76.4124982,72.548332 C72.2499105,59.8827672 69.0116699,54.7892358 64.1569625,54.7892358 C60.9837514,54.7892358 58.3277341,56.9068688 55.8665015,61.2497369 L55.7530433,61.4517574 C53.7346658,65.0780917 52.0435837,69.6697761 49.6913485,77.4356416 L46.9768384,86.5478742 C46.8493402,86.9729439 46.7396252,87.3369895 46.6560902,87.6114579 L46.3074516,88.7490684 C43.1489301,98.9820571 40.4652591,105.637756 36.9329516,111.026178 C32.2642612,118.148116 26.5017892,121.973672 19.1744853,122.050229 L18.9496908,122.051401 L18.9496908,119.769175 C25.5306347,119.769175 30.6970071,116.376082 35.0242764,109.774971 L35.2706344,109.394688 C38.5785211,104.227799 41.1694754,97.7044127 44.244094,87.6948127 L44.5845102,86.5780883 L47.2118845,77.7537447 C49.765554,69.2383307 51.5516951,64.3074174 53.7588938,60.3418359 C56.6129337,55.2141021 59.9468124,52.5070092 64.1569625,52.5070092 Z" id="Stroke-40" fill="#FFFFFF" fill-rule="nonzero"></path>
                    <path d="M207.213745,160.506394 C207.970008,160.506394 208.583081,161.119467 208.583081,161.87573 C208.583081,162.606785 208.010199,163.204035 207.288877,163.24304 L207.213745,163.245066 L21.6412635,163.245066 C20.8850002,163.245066 20.2719276,162.631993 20.2719276,161.87573 C20.2719276,161.144675 20.8448099,160.547425 21.5661319,160.50842 L21.6412635,160.506394 L207.213745,160.506394 Z" id="Stroke-42" fill="#E4E6EF" fill-rule="nonzero"></path>
                    <path d="M177.55596,172.899117 C178.312223,172.899117 178.925296,173.512189 178.925296,174.268453 C178.925296,174.999507 178.352414,175.596758 177.631092,175.635762 L177.55596,175.637788 L21.6412635,175.637788 C20.8850002,175.637788 20.2719276,175.024716 20.2719276,174.268453 C20.2719276,173.537398 20.8448099,172.940147 21.5661319,172.901143 L21.6412635,172.899117 L177.55596,172.899117 Z" id="Stroke-44" fill="#E4E6EF" fill-rule="nonzero"></path>
                </g>
                <path d="M9.78097098,0 L355.191886,0 C360.593767,0 364.972857,4.26961262 364.972857,9.53644671 L364.972857,37.9550579 L0,37.9550579 L0,9.53644671 C0,4.26961262 4.37908987,0 9.78097098,0 Z" id="路径" fill="#253368" fill-rule="nonzero"></path>
                <ellipse id="椭圆形" fill="#A3B5D6" fill-rule="nonzero" cx="20.9068255" cy="18.9775289" rx="6.98116804" ry="6.80663884"></ellipse>
                <ellipse id="椭圆形" fill="#E4EBF7" fill-rule="nonzero" cx="46.981264" cy="18.9775289" rx="6.98116804" ry="6.80663884"></ellipse>
                <ellipse id="椭圆形" fill="#E4EBF7" fill-rule="nonzero" cx="73.0597778" cy="18.9775289" rx="6.98116804" ry="6.80663884"></ellipse>
                <polygon id="路径" fill="#FFFFFF" fill-rule="nonzero" points="121.239211 153.377851 116.748115 150.083804 121.239211 146.797703 125.730307 150.083804"></polygon>
                <rect id="矩形" fill="#A3B5D6" fill-rule="nonzero" x="25.9835256" y="136.315559" width="52.2466867" height="12.8622825" rx="2.87799107"></rect>
                <rect id="矩形" fill="#A3B5D6" fill-rule="nonzero" x="25.9835256" y="161.078532" width="52.2466867" height="12.4728776" rx="2.834325"></rect>
                <rect id="矩形" fill="#4E5C93" fill-rule="nonzero" x="25.9835256" y="185.336868" width="52.2466867" height="12.4728776" rx="2.834325"></rect>
                <ellipse id="椭圆形" fill="#FFFFFF" fill-rule="nonzero" cx="52.1068689" cy="89.8810102" rx="26.0825893" ry="25.4305246"></ellipse>
                <path d="M52.1068689,115.311541 C59.6243886,115.315613 66.7588057,112.0776 71.5954536,106.46648 C67.7844754,99.4125422 60.2799574,94.9968115 52.1027935,94.9968115 C43.9256297,94.9968115 36.4211116,99.4125422 32.6101334,106.46648 C37.4493139,112.078839 44.5867477,115.316867 52.1068689,115.311541 L52.1068689,115.311541 Z" id="路径" fill="#253368" fill-rule="nonzero"></path>
                <ellipse id="椭圆形" fill="#253368" fill-rule="nonzero" cx="52.2454327" cy="86.4439159" rx="9.80949881" ry="9.56426134"></ellipse>
            </g>
        </g>
        <g id="编组" transform="translate(475.000000, 243.000000)">
            <g id="编组" transform="translate(31.431641, 10.871094)">
                <g transform="translate(0.000000, 45.145644)">
                    <mask id="mask-2" fill="white">
                        <use xlink:href="#path-1"></use>
                    </mask>
                    <g id="Clip-2"></g>
                    <path d="M0.0288438477,16.4248047 C0.0288438477,16.4248047 -1.15279678,6.97167969 11.608922,2.71777344 C24.3706407,-1.53613281 27.2065782,0.708984375 27.2065782,0.708984375 L26.0249376,4.49023438 C26.0249376,4.49023438 24.0161485,13.9433594 14.7993517,15.2431641 C5.58255479,16.5429688 2.03763291,14.6523438 0.0288438477,16.4248047" id="Fill-1" fill="#7CB305" mask="url(#mask-2)"></path>
                </g>
                <path d="M25.8382955,46.3004803 L26.2115797,46.5904162 L26.1806772,46.6291483 C26.1671926,46.6457592 26.1505201,46.6660281 26.130647,46.6898287 L26.0716228,46.7596415 C26.0301473,46.8081278 25.9844167,46.8604716 25.934412,46.9164842 L25.8961067,46.9591787 C25.6367804,47.2468151 25.3238368,47.5666627 24.9564633,47.9106267 C23.9093816,48.8909868 22.6349633,49.870456 21.1267691,50.7841023 C18.0980062,52.6188911 14.5217111,53.9525759 10.3786105,54.5736411 L10.2249031,54.5963173 C7.43620173,55.0011288 5.21395081,55.9275079 3.49255917,57.2165265 C2.66677543,57.8348928 2.01142228,58.4963775 1.50910435,59.1565125 C1.33425749,59.3862923 1.19120603,59.598993 1.07780797,59.7890062 L1.0407839,59.8521012 C1.02336292,59.8823273 1.00757109,59.9105518 0.99337493,59.9366868 L0.95377604,60.0124157 L0.951406892,60.0173202 L0.524249554,59.8149825 L0.537285722,59.7882856 C0.564331535,59.734279 0.608763348,59.6526374 0.671935013,59.5467851 C0.794240748,59.3418459 0.947170838,59.1144569 1.1329623,58.8702939 C1.66103956,58.1763066 2.34725671,57.4836691 3.20925037,56.838188 C4.96816212,55.5210735 7.22441013,54.5721809 10.034478,54.146731 L10.157004,54.1285635 C14.3010329,53.5270232 17.8685149,52.2052945 20.8818711,50.3798389 C22.3610718,49.4837566 23.6095409,48.5242309 24.6334186,47.5655962 C24.9670499,47.2532243 25.253785,46.9620713 25.4942413,46.6986932 L25.5450595,46.6426826 C25.6198085,46.5597734 25.6850214,46.4850387 25.7407582,46.4191136 L25.803152,46.3442106 L25.8382955,46.3004803 Z" id="Stroke-3" fill="#BAE637" fill-rule="nonzero"></path>
                <path d="M25.6704454,67.9513076 L27.2065782,67.9513076 L27.2065782,45.8546279 L25.6704454,45.8546279 L26.0843741,52.6440986 C26.2021837,54.5759629 26.2150636,56.5129082 26.1231319,58.4461904 L25.6704454,67.9513076 Z" id="Fill-5" fill="#7CB305"></path>
                <g id="编组-2" transform="translate(2.011495, 25.092267)">
                    <path d="M8.06021916e-14,4.12476613 C8.06021916e-14,4.12476613 4.70352051,-3.02758641 15.9092549,1.50435988 C27.1148711,6.03618801 27.6765049,9.65496242 27.6765049,9.65496242 L24.7324473,11.1210239 C24.7324473,11.1210239 17.8476182,16.413356 10.7879063,11.928439 C3.7283125,7.44352199 2.40688379,4.08399953 8.06021916e-14,4.12476613" id="Fill-7" fill="#7CB305"></path>
                    <path d="M26.1403957,49.0035716 L27.3220363,49.0035716 L27.7850031,9.99714191 C27.790675,9.51609601 27.473759,9.09058722 27.0111467,8.95836164 L26.1403957,8.70962629 C26.1403957,8.70962629 26.4371057,12.3339544 26.3767238,16.8628284 C26.3189416,21.1953138 25.9040676,26.3505755 25.9040676,30.1688109 C25.9040676,40.9684153 26.1403957,49.0035716 26.1403957,49.0035716" id="Fill-9" fill="#7CB305"></path>
                    <path d="M15.9782627,3.86492336 C21.0775146,7.82247414 26.2585361,10.3639468 26.2585361,10.3639468 L24.7324473,11.1210239 C24.7324473,11.1210239 17.8476182,16.413356 10.7879063,11.928439 C3.7283125,7.44352199 2.40688379,4.08399953 8.06021916e-14,4.12476613 C8.06021916e-14,4.12476613 8.06127051,-2.27960789 15.9782627,3.86492336 Z" id="Fill-11" fill="#389E0D"></path>
                </g>
                <g id="编组-2备份" transform="translate(47.915527, 59.909180) scale(-1, 1) translate(-47.915527, -59.909180) translate(38.521484, 43.366211)" fill="#7CB305">
                    <path d="M0,2.76851138 C0,2.76851138 3.17288476,-2.03209277 10.7320107,1.00971481 C18.2910569,4.05144308 18.6699219,6.4803367 18.6699219,6.4803367 L16.6839296,7.46434594 C16.6839296,7.46434594 12.0395851,11.0165186 7.27726885,8.00627672 C2.51503228,4.99603485 1.62362742,2.74114915 0,2.76851138" id="Fill-7"></path>
                    <path d="M17.6515873,33.0859375 L18.4681176,33.0859375 L18.7880342,6.77661542 C18.7919535,6.45215631 18.5729601,6.16515625 18.2532885,6.07597184 L17.6515873,5.90820312 C17.6515873,5.90820312 17.8566181,8.35276462 17.8148934,11.4074304 C17.774965,14.3296346 17.4882812,17.8067906 17.4882812,20.3821399 C17.4882812,27.6663306 17.6515873,33.0859375 17.6515873,33.0859375" id="Fill-9"></path>
                </g>
                <g transform="translate(30.486328, 15.959120)">
                    <mask id="mask-4" fill="white">
                        <use xlink:href="#path-3"></use>
                    </mask>
                    <g id="Clip-14"></g>
                    <path d="M27.7053724,4.15928047 C27.7053724,4.15928047 23.0018519,-2.99307207 11.7961175,1.53887422 C0.59050127,6.07070234 0.0288674805,9.68947676 0.0288674805,9.68947676 L2.9729251,11.1555383 C2.9729251,11.1555383 9.8577542,16.4478703 16.9174661,11.9629533 C23.9770599,7.47803633 25.2984886,4.11851387 27.7053724,4.15928047" id="Fill-13" fill="#7CB305" mask="url(#mask-4)"></path>
                </g>
                <path d="M32.0513048,66.5333389 L30.8696642,66.5333389 L30.4066974,25.9907764 C30.4010255,25.5097305 30.7179415,25.0842217 31.1805538,24.9519961 L32.0513048,24.7032607 C32.0513048,24.7032607 31.7545948,28.3275889 31.8149767,32.8564629 C31.8727589,37.1889482 32.2876329,42.34421 32.2876329,46.1624453 C32.2876329,56.9620498 32.0513048,66.5333389 32.0513048,66.5333389" id="Fill-15" fill="#7CB305"></path>
                <g transform="translate(31.904297, 17.140761)">
                    <mask id="mask-6" fill="white">
                        <use xlink:href="#path-5"></use>
                    </mask>
                    <g id="Clip-18"></g>
                    <path d="M26.2874036,2.97763984 C26.2874036,2.97763984 18.2261331,-3.42673418 10.3091409,2.71779707 C5.20988896,6.67534785 0.0288674805,9.21682051 0.0288674805,9.21682051 L1.55495635,9.97389766 C1.55495635,9.97389766 8.43978545,15.2662297 15.4994974,10.7813127 C22.5590911,6.2963957 23.8805198,2.93687324 26.2874036,2.97763984" id="Fill-17" fill="#389E0D" mask="url(#mask-6)"></path>
                </g>
                <path d="M34.1782579,66.1788467 L36.187047,66.1788467 L36.9815821,41.0666201 L35.4683731,17.3647998 C35.474045,16.8837539 35.157129,16.4582451 34.6945167,16.3260195 L33.8237657,16.0772842 C33.8237657,16.0772842 35.7143907,34.899874 35.7143907,38.7181094 C35.7143907,49.5177139 34.1782579,66.1788467 34.1782579,66.1788467" id="Fill-19" fill="#7CB305"></path>
                <path d="M11.5726929,2.81584961 C11.5726929,2.81584961 15.8628755,-3.5379502 26.0249849,2.84290918 C36.2616558,9.27056152 35.5508989,17.7026309 35.5508989,17.7026309 L32.279645,18.0430615 C32.279645,18.0430615 23.9759019,20.5840615 18.9379771,13.907792 C13.9000522,7.23152246 13.8408521,3.62196484 11.5726929,2.81584961" id="Fill-21" fill="#7CB305"></path>
                <path d="M11.5726929,2.81584961 C11.5726929,2.81584961 16.1910171,-0.588575195 20.1167817,4.26087793 C22.1255708,6.74232324 25.6794731,8.61321484 27.2066255,10.050917 C31.1737476,13.786083 33.974354,17.8692422 33.974354,17.8692422 L32.279645,18.0430615 C32.279645,18.0430615 23.9759019,20.5840615 18.9379771,13.907792 C13.9000522,7.23152246 13.8408521,3.62196484 11.5726929,2.81584961" id="Fill-23" fill="#389E0D"></path>
                <path d="M45.375,99.2647842 L17.9609375,99.2647842 C16.3946729,99.2647842 15.125,97.9951113 15.125,96.4288467 L15.125,69.0147842 C15.125,67.4485195 16.3946729,66.1788467 17.9609375,66.1788467 L45.375,66.1788467 C46.9412646,66.1788467 48.2109375,67.4485195 48.2109375,69.0147842 L48.2109375,96.4288467 C48.2109375,97.9951113 46.9412646,99.2647842 45.375,99.2647842" id="Fill-25" fill="#253369"></path>
            </g>
        </g>
        <rect id="矩形备份" fill="#E4EBF7" x="22" y="370" width="191" height="15" rx="7.5"></rect>
        <g id="2.人物组件/9.互联网人群/站立/摸头" transform="translate(126.315056, 264.337553) scale(-1, 1) translate(-126.315056, -264.337553) translate(87.757006, 152.307618)">
            <path d="M8.22898293,68.4049141 C8.22898293,68.4049141 8.65596437,58.2841856 10.2147573,49.0995318 C11.6364014,40.7241265 14.0247456,33.609666 18.886209,34.3711109 C24.9904458,35.3262095 22.4951343,46.945438 21.6460537,52.9160239 C21.0353194,57.2125044 19.0016094,66.0469229 17.6176924,70.5731538 C15.4108819,77.7934653 7.05544973,74.8759756 8.22898293,68.4049141" id="Fill-1" fill="#FFC999"></path>
            <path d="M21.3038472,55.3240627 C22.1524839,49.3534768 26.4649077,35.5547893 18.8990806,34.2801862 C13.5609248,33.3811838 11.2076445,40.9292922 9.77801125,52.1719445 L21.3038472,55.3240627 Z" id="Fill-3" fill="#E4EBF7"></path>
            <path d="M47.6924101,9.05207047 C47.6924101,9.05207047 68.7028266,20.6669089 74.7564648,27.4067443 C78.1416909,31.1759206 75.6672402,37.8991711 70.1164814,36.4279875 C65.5608291,35.2202121 44.1855698,14.67486 44.1855698,14.67486 C44.1855698,14.67486 41.8602519,13.0944108 43.5814931,10.0935085 C45.3679799,6.97943815 47.6924101,9.05207047 47.6924101,9.05207047" id="Fill-5" fill="#FFC999"></path>
            <path d="M42.8213596,4.60930089 C42.8213596,4.60930089 48.3601345,7.89165978 48.2070071,11.1359708 C48.0680828,14.0739479 44.6291511,14.3919889 44.6291511,14.3919889 C44.6291511,14.3919889 41.9150227,14.3046739 39.0175852,13.3383561 C37.1188049,12.7052008 33.3452122,12.092045 33.3802761,10.9379269 C33.4268801,9.43308556 37.1907083,10.7506144 37.8338435,9.91161046 C39.1356487,8.21116417 33.4131209,5.45318273 32.7042962,4.45857287 C31.3190476,2.51569347 36.2049226,0.61622765 42.8213596,4.60930089" id="Fill-7" fill="#FFC999"></path>
            <path d="M33.1378784,3.43896932 C33.1601456,3.34275873 33.2491643,3.28460302 33.3367073,3.30907491 C34.3848129,3.60206388 35.4280071,4.11524384 36.439824,4.78577613 C37.0136186,5.16603046 37.5417123,5.5732987 38.0123422,5.98072196 C38.1442775,6.09493797 38.2641422,6.20270676 38.3711761,6.30231103 L38.4490339,6.37545655 C38.5249432,6.44747401 38.5775091,6.49933444 38.6052409,6.52768372 C38.6713818,6.59529729 38.6751259,6.70903537 38.6136036,6.78172483 C38.5520813,6.85441428 38.4485899,6.8585291 38.3824491,6.79091553 L38.2697238,6.68041488 L38.2352781,6.64758787 C38.1131864,6.53175581 37.9708957,6.40248298 37.8099267,6.26313249 C37.349448,5.86449715 36.8323473,5.4657068 36.2709072,5.09363977 C35.2846689,4.44005852 34.2700404,3.94093092 33.2560706,3.6574843 C33.1685276,3.63301241 33.1156111,3.53517992 33.1378784,3.43896932 Z" id="Stroke-9" fill="#DD936F" fill-rule="nonzero"></path>
            <path d="M34.6404565,2.36902233 L34.7244379,2.39042539 L34.7557948,2.39900917 C34.8471939,2.42434598 34.9536794,2.456661 35.0743432,2.49661739 C35.4174874,2.61024554 35.8064191,2.76239307 36.2338634,2.95836953 C37.4525088,3.51709922 38.7376706,4.31482324 40.0309067,5.39397067 C40.1028495,5.45400363 40.1168886,5.56676544 40.062264,5.6458312 C40.0076394,5.72489697 39.9050363,5.7403261 39.8330936,5.68029313 C38.5627212,4.6202245 37.3017231,3.8374993 36.1079178,3.29015842 C35.6910044,3.09901019 35.3126032,2.95098212 34.979972,2.84083525 L34.7869182,2.77974024 L34.6225585,2.73319056 C34.6000527,2.7272751 34.5837555,2.72325791 34.5738631,2.72099733 C34.4854243,2.70078735 34.4286378,2.60561164 34.4470271,2.50841643 C34.4635774,2.42094074 34.5353795,2.36164199 34.6140464,2.36539007 L34.6404565,2.36902233 Z" id="Stroke-11" fill="#DD936F" fill-rule="nonzero"></path>
            <path d="M37.4653013,2.51895393 C37.5001137,2.42734832 37.5959056,2.38410248 37.6792584,2.42236165 C38.8714228,2.96956808 39.8639902,3.53721134 40.6669365,4.09277981 C40.9489636,4.28791785 41.1873449,4.46785014 41.383332,4.62851147 C41.452396,4.6851271 41.5113322,4.7354013 41.5602971,4.77882599 L41.6214536,4.83451342 C41.6896005,4.89967639 41.6967786,5.01321515 41.6374861,5.08810934 C41.5781937,5.16300353 41.4748837,5.17089225 41.4067367,5.10572928 L41.3520159,5.05580493 C41.3125439,5.02088195 41.257891,4.97417776 41.1877507,4.9166799 C40.9986306,4.76164773 40.7673517,4.58707647 40.4926551,4.3970105 C39.7049624,3.85199608 38.7285106,3.29356928 37.5531916,2.75409492 C37.4698387,2.71583575 37.4304889,2.61055955 37.4653013,2.51895393 Z" id="Stroke-13" fill="#DD936F" fill-rule="nonzero"></path>
            <path d="M69.1440112,25.9219025 C69.1440112,25.9219025 60.1782885,28.2803815 52.2897841,31.8349289 C45.0972329,35.0763131 39.2375561,39.2552355 40.9508081,44.9863151 C43.1008061,52.1827248 52.9688711,47.0545573 58.1312632,44.9424137 C61.846268,43.4224508 69.3197749,39.3581598 73.0765014,36.8635866 C79.0693325,32.8836838 74.6854492,23.3273317 69.1440112,25.9219025" id="Fill-15" fill="#FFC999"></path>
            <path d="M60.2133081,44.0902882 C55.050916,46.2024318 43.6182881,53.9212677 40.8722027,45.0185582 C38.9348076,38.7367604 45.1895088,34.5212535 54.9470557,30.7476871 L60.2133081,44.0902882 Z" id="Fill-17" fill="#E4EBF7"></path>
            <path d="M42.0619807,151.065091 C38.0061008,130.604127 38.5995251,113.048946 38.5995251,113.048946 C38.5995251,113.048946 42.795217,96.0625315 51.3632522,106.143261 C55.5132278,111.025581 56.2238279,124.958899 55.8456696,148.303207 C55.8456696,148.303207 56.5620398,159.146357 49.3131198,159.680003 C43.2452785,160.126821 42.0619807,151.065091 42.0619807,151.065091" id="Fill-19" fill="#FFC999"></path>
            <path d="M39.5679119,137.056262 C47.6432762,139.138163 56.1536112,135.075823 56.1536112,135.075823 C55.9374573,128.74427 55.9809544,120.975192 53.2419705,98.9303639 C42.62691,92.5178376 35.8546824,108.437937 35.8546824,108.437937 L39.5679119,137.056262 Z" id="Fill-21" fill="#597EF7"></path>
            <path d="M54.8649044,131.164238 C54.9504656,131.127307 55.0470686,131.173596 55.0806733,131.267629 C55.114278,131.361661 55.0721588,131.467829 54.9865976,131.504761 L54.7584846,131.597514 L54.5624801,131.673091 C54.4247366,131.725202 54.2729206,131.780666 54.1074833,131.838869 C53.3995306,132.087939 52.5872993,132.336866 51.6829623,132.569122 C47.8822863,133.545229 43.7330769,133.931092 39.4858255,133.385407 C39.3945235,133.373677 39.3291612,133.282824 39.3398348,133.182482 C39.3505085,133.082141 39.4331761,133.010307 39.5244782,133.022037 C43.7299664,133.562356 47.841535,133.179994 51.607212,132.212875 C52.4280021,132.002076 53.1717133,131.777544 53.8289096,131.551977 L54.0059929,131.490442 C54.2097605,131.418753 54.3922951,131.351381 54.552711,131.289518 L54.8469388,131.171905 C54.8536731,131.169058 54.8596631,131.166501 54.8649044,131.164238 Z" id="Stroke-23" fill="#1D39C4" fill-rule="nonzero"></path>
            <path d="M35.8586817,109.193992 C35.9405416,109.180829 36.0171906,109.235546 36.0414033,109.319493 L36.0474674,109.348505 L39.7162458,136.9069 L39.8662779,136.943712 L39.9985093,136.974195 C40.3190339,137.046366 40.6909803,137.118616 41.1099303,137.186099 C45.8052344,137.942395 51.0702667,137.483316 56.083309,134.910087 C56.1665962,134.867335 56.2656487,134.90688 56.3045491,134.998414 C56.3434495,135.089947 56.3074669,135.198807 56.2241797,135.241559 C51.1439013,137.849301 45.8159165,138.313869 41.061657,137.548076 L40.7516033,137.495847 C40.4505316,137.442843 40.1766115,137.387741 39.9316958,137.332595 L39.7707478,137.295314 L39.526803,137.23348 C39.4710495,137.217809 39.4273186,137.171898 39.4098409,137.113123 L39.4033557,137.082744 L35.7180886,109.401469 C35.7047806,109.301508 35.7677263,109.208617 35.8586817,109.193992 Z" id="Stroke-25" fill="#1D39C4" fill-rule="nonzero"></path>
            <path d="M32.3956889,152.22838 C35.8341767,131.630834 34.7130175,114.107359 34.7130175,114.107359 C34.7130175,114.107359 30.0086762,97.2824042 21.7482275,107.66898 C17.7478285,112.699101 17.4562206,126.650468 18.5365458,149.968923 C18.5365458,149.968923 18.1464037,160.832072 25.4081952,161.101822 C31.4858012,161.32767 32.3956889,152.22838 32.3956889,152.22838" id="Fill-27" fill="#FFC999"></path>
            <path d="M34.4671259,138.136675 C26.4587826,140.510763 17.830828,136.759635 17.830828,136.759635 C17.8561274,130.423693 17.5791664,122.660467 19.6537104,100.528325 C30.070371,93.7333689 37.3175155,109.39884 37.3175155,109.39884 L34.4671259,138.136675 Z" id="Fill-29" fill="#597EF7"></path>
            <path d="M18.788611,132.914579 C18.8193649,132.819375 18.9145207,132.769596 19.0011474,132.803395 L19.1214074,132.848166 L19.1971008,132.875304 C19.3331002,132.923597 19.4892191,132.976551 19.6646899,133.033198 L19.7722884,133.067622 C20.4013685,133.267101 21.1251488,133.466704 21.9330122,133.65307 C25.802861,134.545805 30.0541746,134.81995 34.3896641,134.102665 C34.4805637,134.087626 34.5653455,134.15642 34.5790295,134.256319 C34.5927135,134.356219 34.5301179,134.449395 34.4392183,134.464434 C30.0607235,135.188833 25.7706332,134.912188 21.8646274,134.011112 C21.1226973,133.839956 20.4505171,133.657624 19.8560173,133.474183 L19.6800056,133.419128 C19.456774,133.348342 19.2612498,133.282551 19.094753,133.223428 L18.9071246,133.15485 C18.9006716,133.152384 18.8948881,133.150152 18.8897779,133.148158 C18.8031511,133.114359 18.7578572,133.009782 18.788611,132.914579 Z" id="Stroke-31" fill="#1D39C4" fill-rule="nonzero"></path>
            <path d="M37.3090364,110.153565 L37.3361084,110.154509 C37.4183196,110.16469 37.4797627,110.239055 37.4837256,110.327011 L37.4828673,110.356763 L34.6324777,138.15706 C34.6249598,138.230383 34.5780931,138.291563 34.5136327,138.3122 L34.3895381,138.349481 L34.2607011,138.385902 C34.192078,138.404841 34.1171814,138.424836 34.0361608,138.445708 C33.6513293,138.544847 33.2067964,138.643889 32.7081058,138.736269 C28.0105376,139.60648 22.79014,139.287993 17.7653693,136.927741 C17.6808424,136.888037 17.6416067,136.780543 17.677734,136.687647 C17.7138613,136.594751 17.811671,136.551631 17.896198,136.591335 C22.8544311,138.920332 28.0128813,139.23504 32.6527757,138.375514 C33.1443843,138.284445 33.5820486,138.186933 33.9601893,138.089518 L34.1793255,138.031157 L34.3143239,137.992727 L37.152075,110.315798 C37.1603095,110.235486 37.2146889,110.173208 37.2828803,110.157301 L37.3090364,110.153565 Z" id="Stroke-33" fill="#1D39C4" fill-rule="nonzero"></path>
            <path d="M41.5500468,20.9153418 L41.5651376,15.2827964 C41.5651376,15.2827964 45.5011786,12.5257905 46.0049457,15.3847451 C46.5175898,18.2988203 44.783477,20.752419 43.0533588,21.0860693 C41.9171088,21.3055762 41.5500468,20.9153418 41.5500468,20.9153418" id="Fill-35" fill="#FFC999"></path>
            <path d="M29.098034,20.9153418 L29.0824993,15.2827964 C29.0824993,15.2827964 25.1464583,12.5257905 24.643135,15.3847451 C24.1300471,18.2988203 25.8712615,21.1182637 27.5947219,21.0860693 C28.748282,21.0646065 29.098034,20.9153418 29.098034,20.9153418" id="Fill-37" fill="#FFC999"></path>
            <path d="M43.2006275,17.4100615 C42.5375191,23.5874717 40.8260425,28.1688233 35.2024927,28.1688233 C29.3290567,28.1688233 27.9540166,22.0797036 27.329523,16.9066592 C26.1613159,7.23470021 31.3543335,4.91183009 35.7022652,4.91183009 C40.0506406,4.91183009 44.0754512,9.2609922 43.2006275,17.4100615" id="Fill-39" fill="#FFC999"></path>
            <path d="M27.0682299,32.3839399 C27.0682299,32.3839399 29.1481,38.4233046 35.7023983,38.4233046 C43.3112787,38.4233046 43.6814476,32.1585795 43.6814476,32.1585795 L41.9113832,31.5351801 C41.5012679,31.3907934 41.2114354,30.9903153 41.1794784,30.517644 C41.0707357,28.9245121 40.8275072,25.0055834 40.6770428,19.8579042 C34.1422738,17.4984496 30.5271346,19.6540068 30.5271346,19.6540068 C30.5271346,19.6540068 30.161848,25.9036103 29.8236361,30.421061 C29.7903475,30.8649526 29.5311405,31.2488456 29.1534261,31.4098173 C28.5058524,31.6868837 27.5187352,32.1210194 27.0682299,32.3839399" id="Fill-41" fill="#FFC999"></path>
            <path d="M41.8014421,13.0156322 C40.2231198,11.8327343 39.82632,9.71912736 39.82632,9.71912736 C39.9541482,9.78400382 35.8259211,12.0717528 33.7029978,12.6029594 C31.8916555,13.0561191 30.7105769,12.5161322 32.828174,9.9937548 C30.4899846,11.4264027 29.0181858,12.5380829 28.2574309,13.1566044 C27.8557487,13.4829379 27.616071,13.9936571 27.6071941,14.542912 L27.53751,18.7374438 L26.0377487,14.8004667 C26.0377487,14.8004667 24.9552043,15.2585043 24.454988,14.0682895 C23.8225051,12.561497 25.579698,9.51279093 25.579698,9.51279093 C25.579698,9.51279093 24.0737229,9.99912052 24.2885451,8.20843253 C24.5038112,6.41725675 28.6209421,4.08804533 28.6209421,4.08804533 C28.6209421,4.08804533 27.3670725,4.01487638 27.8402141,2.62954435 C28.3129118,1.2451879 33.2862248,1.61542277 33.2862248,1.61542277 C33.2862248,1.61542277 32.4531228,0.150580483 34.247155,0.00668155675 C36.2764265,-0.156241295 39.7015988,2.71442033 39.7015988,2.71442033 C39.7015988,2.71442033 42.200905,0.150580483 42.6864743,4.388038 C45.1999836,4.82022257 46.1999724,7.29284513 44.3668816,8.02502238 C46.1999724,9.7644921 46.3455544,10.9093422 44.5124636,11.0922646 C45.5124524,12.5575946 45.8249211,14.5946181 43.9505525,15.3502094 L42.9505637,18.8291488 L42.7659231,14.9029032 C42.7304153,14.1434096 42.3735617,13.4444023 41.8014421,13.0156322" id="Fill-43" fill="#253368"></path>
            <path d="M37.3360766,13.859055 C38.1840332,13.6325735 39.0590867,13.5526444 39.8871521,13.7084999 C40.2315455,13.7733203 40.5582745,13.878466 40.8639972,14.0276839 C41.0320202,14.1096929 41.1077376,14.32587 41.0331167,14.5105289 C40.9584959,14.6951878 40.7617942,14.7784019 40.5937713,14.6963929 C40.3404258,14.5727394 40.0665874,14.4846146 39.7747683,14.4296895 C39.0491698,14.29312 38.2603783,14.3651698 37.4933017,14.5700489 C37.3216636,14.6158919 37.1653852,14.6649138 37.0278944,14.7137182 L36.8806448,14.768955 C36.8746194,14.7714039 36.8693784,14.7735796 36.8649374,14.7754664 C36.693457,14.8483204 36.5007055,14.7546043 36.4344149,14.5661456 C36.3681243,14.377687 36.4533975,14.1658511 36.6248779,14.0929971 L36.7033704,14.0615744 C36.7255035,14.0530842 36.7507037,14.0436527 36.7788513,14.0334076 L36.8232683,14.0174455 C36.9758768,13.9632749 37.1478749,13.9093219 37.3360766,13.859055 Z" id="Stroke-45" fill="#253368" fill-rule="nonzero"></path>
            <path d="M33.2486711,14.2299117 C33.3195009,14.1870927 33.4064851,14.2075726 33.4557249,14.2741577 L33.4723152,14.3012547 L34.1598352,15.6748797 C34.1690351,15.6932605 34.1752217,15.7131871 34.1781897,15.7337516 L34.1802022,15.7649633 L34.1196228,19.9614627 L35.3161904,20.2080191 C35.3966378,20.2245946 35.4523726,20.3028508 35.4504985,20.3899504 L35.447695,20.4192387 C35.4326128,20.5076512 35.3614067,20.5689043 35.2821539,20.566895 L35.2555042,20.5637635 L33.9226297,20.2891361 C33.8525405,20.2746948 33.7999354,20.2127791 33.7900016,20.1372835 L33.7883259,20.1084023 L33.8500593,15.8067673 L33.1837553,14.4756988 C33.1447939,14.3978561 33.1634288,14.3022596 33.2240152,14.2481447 L33.2486711,14.2299117 Z" id="Stroke-47" fill="#DD936F" fill-rule="nonzero"></path>
            <path d="M36.0837078,23.2564554 C36.1746512,23.2564554 36.2483753,23.480313 36.2483753,23.7564554 C36.2483753,24.0049835 36.1886588,24.211161 36.1104178,24.2499112 L36.0837078,24.2564554 L34.66739,24.2564554 C34.5764466,24.2564554 34.5027225,24.0325978 34.5027225,23.7564554 C34.5027225,23.5079272 34.562439,23.3017498 34.64068,23.2629995 L34.66739,23.2564554 L36.0837078,23.2564554 Z" id="Stroke-53" fill="#DD936F" fill-rule="nonzero"></path>
            <path d="M29.7872045,13.9758648 C30.7394315,13.6607846 31.7441713,13.6752608 32.6915544,13.8866014 C32.9468046,13.9435422 33.1372974,14.0012627 33.246767,14.041672 C33.4210466,14.106005 33.5148743,14.313427 33.456337,14.504962 C33.3977998,14.696497 33.2090645,14.7996146 33.0347849,14.7352815 C33.0161564,14.7284051 32.9755321,14.7146918 32.9150582,14.6963678 C32.8113402,14.6649406 32.6919706,14.6333048 32.5591162,14.6036679 C31.7102442,14.414303 30.8106812,14.4013422 29.9791429,14.6764879 C29.8237207,14.7279152 29.6727925,14.7890875 29.5267078,14.8603889 C29.3586848,14.9423979 29.1619832,14.8591838 29.0873623,14.6745249 C29.0127415,14.489866 29.0884588,14.2736889 29.2564818,14.1916799 C29.4284217,14.107759 29.605492,14.0359912 29.7872045,13.9758648 Z" id="Stroke-55" fill="#253368" fill-rule="nonzero"></path>
            <path d="M37.2062577,21.416558 C37.3036057,21.3642598 37.4114683,21.4374471 37.4471756,21.5800264 C37.4828829,21.7226058 37.4329133,21.8805853 37.3355654,21.9328835 C37.0990208,22.0599623 36.8515217,22.1596793 36.5943257,22.2336904 C35.6911159,22.4935992 34.7310018,22.4302869 33.8102955,22.1684308 C33.6693996,22.1283589 33.5387948,22.0859542 33.4199391,22.0430173 L33.333023,22.0107428 C33.2474846,21.9780925 33.186655,21.9523583 33.1533968,21.9370439 C33.05448,21.891496 32.9995024,21.737126 33.0306008,21.592249 C33.0616993,21.4473719 33.1670974,21.3668497 33.2660142,21.4123976 L33.3274212,21.4388659 C33.3544938,21.4500375 33.3880482,21.4634126 33.4277191,21.4785552 C33.5614068,21.5295843 33.7137708,21.5807418 33.8818733,21.6285515 C34.7590191,21.8780187 35.6731285,21.9382973 36.521935,21.6940436 C36.7602732,21.6254591 36.9887756,21.5333959 37.2062577,21.416558 Z" id="Stroke-57" fill="#FF7A46" fill-rule="nonzero"></path>
            <path d="M30.5574029,25.9646608 C30.6202895,25.8924602 30.7245263,25.8899571 30.7902224,25.95907 C31.9411272,27.1698333 33.4267434,27.8063443 35.3132327,27.8063443 C37.3124809,27.8063443 38.8580231,27.2206766 40.0312173,26.0763953 C40.0992365,26.0100523 40.2033135,26.0168707 40.2636796,26.0916245 C40.3240457,26.1663784 40.3178416,26.2807599 40.2498223,26.3471029 C39.0134549,27.5530007 37.3897518,28.1682867 35.3132327,28.1682867 C33.3430439,28.1682867 31.7755701,27.4967038 30.5624901,26.2205317 C30.496794,26.1514187 30.4945164,26.0368615 30.5574029,25.9646608 Z" id="Stroke-59" fill="#DD936F" fill-rule="nonzero"></path>
            <path d="M23.1169205,73.3195258 C21.6171592,76.4326205 22.8674781,80.1866752 22.8674781,80.1866752 C30.1896329,80.7339789 49.6101871,80.1866752 49.6101871,80.1866752 C51.8414092,78.8228061 50.3602896,74.1434081 50.3602896,74.1434081 C50.3602896,74.1434081 56.0566304,34.8350995 53.5262549,32.8492943 C51.1933917,31.0181195 47.6945406,31.7502968 42.1850596,31.5810326 C42.032376,31.9551698 40.4979947,34.8770497 35.3742174,34.9458285 C29.7657584,35.0209486 28.5602681,32.2551625 28.3569859,31.7702963 C23.9815357,32.7483212 22.7005914,32.8492943 19.0348536,34.1312143 C18.0543941,34.4741327 17.9203521,51.812246 23.1169205,73.3195258" id="Fill-61" fill="#E4EBF7"></path>
            <path d="M43.1676861,34.1902266 C43.2436082,34.1332706 43.3471677,34.1547394 43.3989926,34.2381786 C43.4508175,34.3216178 43.4312828,34.4354307 43.3553606,34.4923868 C39.2161769,37.5975629 34.829089,37.8422496 30.7879924,36.3970961 C30.2845268,36.2170497 29.8332845,36.0240207 29.4405973,35.8307642 L29.2833766,35.7517133 C29.233729,35.7261877 29.1868576,35.7015207 29.1428131,35.6778143 L29.0132702,35.6063114 C28.9851814,35.5903571 28.9641994,35.578055 28.9504958,35.5697486 C28.870003,35.5209582 28.8407398,35.4096929 28.8851347,35.3212305 C28.9295296,35.2327681 29.030771,35.2006076 29.1112638,35.249398 L29.1953474,35.2977802 L29.2281547,35.3159924 C29.3268672,35.3704227 29.4432998,35.4312436 29.5766462,35.4968684 C29.958872,35.6849765 30.3991428,35.8733121 30.8909963,36.0492059 C34.8422339,37.4622245 39.124503,37.223384 43.1676861,34.1902266 Z" id="Stroke-63" fill="#96A7CA" fill-rule="nonzero"></path>
            <path d="M40.4833477,110.153114 C40.4833477,110.153114 35.9845079,110.702369 32.8185425,109.810196 C28.3228096,108.54291 22.9877608,104.109847 19.6549088,100.630908 C19.4884659,89.0941163 22.8772427,83.3015748 22.8772427,83.3015748 L50.0815533,83.5157159 C50.0815533,83.5157159 52.8134356,89.0941163 53.3136519,100.81383 C53.3136519,100.81383 43.3168712,109.711174 40.4833477,110.153114" id="Fill-65" fill="#597EF7"></path>
            <path d="M22.6219416,83.570056 L22.9446188,80.0062406 L49.9008185,80.1223353 L50.2479074,83.5193256 C50.2479074,83.5193256 25.3702463,83.6378592 22.6219416,83.570056" id="Fill-67" fill="#597EF7"></path>
            <path d="M41.151226,83.783446 C41.2339553,83.7841363 41.3021449,83.8510237 41.3144647,83.9380399 L41.3162159,84.0020006 L41.2665555,90.5730563 L41.2120557,96.4301985 C41.2010774,97.4576764 41.1902975,98.3650614 41.1797857,99.1360862 L41.1566842,100.628966 C41.1542725,100.762114 41.1518847,100.886274 41.1495214,101.001285 C41.1234896,102.279389 40.4055848,103.136938 39.2468104,103.644323 C38.8409586,103.822031 38.4079526,103.943998 37.9752254,104.020829 C37.8617295,104.04098 37.7542411,104.056896 37.6542215,104.069101 L37.5567457,104.080088 C37.4800893,104.087997 37.4246117,104.092071 37.3937936,104.093704 C37.3019551,104.097884 37.2242947,104.019591 37.2203343,103.91866 C37.2163739,103.817729 37.2876131,103.732379 37.3794516,103.728026 L37.4856463,103.719805 L37.5256311,103.715845 C37.6450272,103.703527 37.7783823,103.68519 37.9221345,103.659667 C38.3324934,103.586807 38.7425735,103.471298 39.123602,103.304459 C40.1705551,102.846037 40.7941509,102.101142 40.8167197,100.993062 L40.8490444,98.9745004 C40.8616945,98.0280082 40.8747258,96.8866451 40.8880168,95.57858 L40.9232678,91.7984626 L40.9835685,83.965048 C40.9842418,83.8640255 41.0593046,83.7827304 41.151226,83.783446 Z" id="Stroke-69" fill="#1D39C4" fill-rule="nonzero"></path>
            <path d="M22.622473,83.3871321 L37.945094,83.4890729 L47.9609914,83.5178364 C48.7228404,83.5175123 49.4250846,83.5162585 50.0639331,83.5140299 C50.1558569,83.5137092 50.2305973,83.7088994 50.2305973,83.9499993 C50.2305973,84.1910992 50.1562996,84.3868092 50.0643758,84.3871321 L41.7022737,84.3785966 L30.575433,84.3189494 L22.6214101,84.2602374 C22.5294867,84.2594676 22.455206,84.0633942 22.4554961,83.8222954 C22.4557931,83.5811965 22.5305496,83.3863713 22.622473,83.3871321 Z" id="Stroke-71" fill="#1D39C4" fill-rule="nonzero"></path>
            <path d="M47.7905987,83.8863175 C47.8817254,83.8730418 47.9653907,83.9434667 47.9774704,84.0436158 L48.0009907,84.213592 C48.0078195,84.2593225 48.0159595,84.3118702 48.0254763,84.3708319 C48.0679669,84.6340835 48.1227329,84.9277225 48.1910023,85.2440888 C48.3860005,86.1477261 48.649738,87.0511441 48.9915557,87.8927622 C49.7517078,89.7643968 50.7813066,91.052172 52.1129345,91.5059213 C52.200735,91.5358391 52.2498432,91.6383159 52.2226207,91.7348095 C52.1953981,91.8313031 52.1021535,91.8852735 52.014353,91.8553557 C50.5736496,91.3644391 49.4829565,90.00025 48.6875768,88.0418788 C48.3364714,87.1773927 48.0665646,86.2528418 47.8671008,85.3285102 C47.8089406,85.0589912 47.760333,84.805425 47.7205351,84.5721939 L47.6867336,84.3656708 L47.6596067,84.1829936 C47.6534483,84.1388955 47.649456,84.1081452 47.6474714,84.0916914 C47.6353917,83.9915423 47.699472,83.8995933 47.7905987,83.8863175 Z" id="Stroke-73" fill="#1D39C4" fill-rule="nonzero"></path>
            <path d="M24.4116969,83.5229019 L24.438678,83.5255229 C24.5293015,83.5424556 24.5902763,83.6369208 24.5748691,83.7365169 L24.541026,83.9368719 L24.5177031,84.065853 C24.4697662,84.3257003 24.4110873,84.6150299 24.3412531,84.9265213 C24.1416568,85.8168085 23.8925099,86.7072867 23.5901695,87.5397548 C22.859153,89.5525459 21.9392565,90.9106559 20.7880416,91.3061221 C20.7003039,91.3362618 20.6069466,91.2825273 20.5795222,91.1861027 C20.5520978,91.0896781 20.6009913,90.9870775 20.688729,90.9569378 C21.7165477,90.6038609 22.5840709,89.3230733 23.2810018,87.4041341 C23.5770687,86.5889392 23.8218501,85.7140642 24.0180339,84.8389982 L24.0830674,84.5402137 C24.1239957,84.3462717 24.1600876,84.16319 24.1914552,83.9931583 L24.2263182,83.7983605 C24.2355083,83.7450598 24.2422836,83.7036983 24.2466925,83.6751983 C24.260559,83.5855618 24.331569,83.5223185 24.4116969,83.5229019 Z" id="Stroke-75" fill="#1D39C4" fill-rule="nonzero"></path>
            <path d="M36.4098471,81.7124916 C36.4023017,82.0666293 36.0614267,82.3451591 35.646873,82.3349154 C35.233207,82.3246718 34.9029843,82.0290693 34.9105297,81.6754193 C34.9180751,81.3217694 35.259394,81.0427519 35.6735038,81.0529955 C36.0871698,81.0632392 36.4173925,81.3583539 36.4098471,81.7124916" id="Fill-77" fill="#1D39C4"></path>
            <path d="M37.6510283,80.1212134 C37.8995564,80.1212134 38.1057339,80.1875501 38.1444841,80.2744648 L38.1510283,80.3041358 L38.1510283,110.336085 C38.1510283,110.437111 37.9271707,110.519008 37.6510283,110.519008 C37.4025002,110.519008 37.1963227,110.452671 37.1575724,110.365756 L37.1510283,110.336085 L37.1510283,80.3041358 C37.1510283,80.2031105 37.3748859,80.1212134 37.6510283,80.1212134 Z" id="Stroke-79" fill="#1D39C4" fill-rule="nonzero"></path>
            <path d="M49.6476478,79.8235133 C49.7395717,79.8235133 49.8140907,80.047371 49.8140907,80.3235133 C49.8140907,80.5720415 49.7537303,80.778219 49.6746457,80.8169692 L49.6476478,80.8235133 L22.9444413,80.8235133 C22.8525174,80.8235133 22.7779984,80.5996557 22.7779984,80.3235133 C22.7779984,80.0749852 22.8383588,79.8688077 22.9174434,79.8300575 L22.9444413,79.8235133 L49.6476478,79.8235133 Z" id="Stroke-81" fill="#1D39C4" fill-rule="nonzero"></path>
            <path d="M31.1490984,170.521787 C29.0834314,186.477007 26.2654426,197.252841 26.1979778,213.32123 C26.1895446,215.27045 23.6329821,215.430934 21.2286594,215.267036 C15.860322,220.122039 5.80761642,221.648343 4.43302023,219.496201 C3.60701974,218.204525 7.17511105,213.324644 10.5470217,212.389057 C18.0835549,210.297401 17.8789411,200.71422 17.8789411,200.71422 C17.8789411,200.71422 17.5194245,176.290914 17.5464992,157.566981 C17.5464992,157.566981 18.1887468,143.860974 24.6715857,144.354621 C35.8947175,145.209234 31.8539284,165.076066 31.1490984,170.521787" id="Fill-83" fill="#FFC999"></path>
            <path d="M0.178607294,219.329912 C0.178607294,219.329912 1.17060681,221.89424 6.94284557,221.933263 C12.7150843,221.972287 15.53041,219.369423 18.5734296,219.070894 C24.2613373,218.513347 26.7686327,217.094845 26.7686327,217.094845 C26.7686327,217.094845 27.0091981,218.050919 26.4628216,219.286986 C25.6190673,221.193281 20.3652425,220.206476 17.1548924,221.603027 C14.8326815,222.612759 13.03066,223.153234 9.20913171,223.874192 C5.38715954,224.594662 0.699240594,223.083967 0.223879755,221.651319 C-0.251924933,220.219159 0.178607294,219.329912 0.178607294,219.329912" id="Fill-85" fill="#96A7CA"></path>
            <path d="M26.5844803,217.309913 C26.5844803,217.309913 25.2773489,218.032334 20.9684759,218.871338 C19.9378616,219.071821 18.9241136,219.309376 17.1212044,219.863021 C14.3498196,220.71422 5.56030451,224.400959 0.677980292,220.231305 C-0.0463790833,219.229866 0.229694159,218.135258 0.671322577,217.305523 C1.09164631,216.515298 1.78271711,215.945068 2.58519367,215.701172 C5.01703498,214.962165 10.8278885,213.210501 14.0182654,208.628661 C14.3915413,208.092577 15.0213612,207.865265 15.610347,208.058919 C16.3231663,208.292572 17.2383802,208.745244 17.8628738,209.608637 C18.3826195,210.327156 16.6715867,212.804657 17.2792142,212.966604 C18.9498568,213.412447 21.818888,213.083674 23.7141175,211.888094 C25.3013167,210.886655 26.3181717,209.893508 26.3181717,209.893508 C26.3181717,209.893508 27.4828279,214.677782 26.5844803,217.309913" id="Fill-87" fill="#4E5C93"></path>
            <path d="M2.21126732,217.29041 C2.26761834,217.201894 2.37859154,217.180342 2.4591329,217.242273 L2.51433347,217.281202 C2.55444164,217.307903 2.61030154,217.342686 2.68199519,217.383678 C2.87715093,217.495262 3.11353637,217.607415 3.3915248,217.712481 C4.82816509,218.255462 6.70704229,218.39563 9.04279209,217.880022 C9.13916451,217.858748 9.23298198,217.927363 9.25233928,218.033277 C9.27169657,218.139191 9.20926348,218.242297 9.11289106,218.263571 C6.71503279,218.79289 4.7720119,218.647937 3.27576165,218.082426 C2.9808662,217.97097 2.72828724,217.851134 2.51770507,217.730729 L2.42889472,217.678466 C2.34781811,217.629266 2.28992601,217.58962 2.25506782,217.562817 C2.17452645,217.500886 2.1549163,217.378926 2.21126732,217.29041 Z" id="Stroke-89" fill="#96A7CA" fill-rule="nonzero"></path>
            <path d="M12.3078077,210.782922 C12.3387574,210.680387 12.4394799,210.624839 12.5327776,210.658853 L12.6233202,210.695086 L12.6559336,210.709041 C12.7503081,210.749922 12.8550859,210.799734 12.9677036,210.858821 C13.2890168,211.027403 13.610277,211.237102 13.910929,211.491107 C14.2938981,211.814658 14.6153818,212.187226 14.8544756,212.612353 C14.9061568,212.704247 14.8802697,212.824785 14.7966551,212.881583 C14.7130405,212.938381 14.6033616,212.909931 14.5516804,212.818038 C14.3369461,212.436224 14.0447938,212.097648 13.6939806,211.801264 C13.4146315,211.565257 13.1144621,211.369324 12.8143456,211.211863 C12.7356836,211.170592 12.6613505,211.134285 12.5924495,211.102834 L12.4504392,211.041637 C12.4377444,211.036564 12.4277752,211.032746 12.4206987,211.030166 C12.327401,210.996152 12.276858,210.885457 12.3078077,210.782922 Z" id="Stroke-91" fill="#96A7CA" fill-rule="nonzero"></path>
            <path d="M44.4121096,170.532274 C46.9797683,186.399204 50.135969,197.061383 50.7107517,213.117576 C50.7804358,215.065333 53.3401052,215.128259 55.7382141,214.872655 C61.256572,219.520347 71.3509993,220.66227 72.6576868,218.459397 C73.4419656,217.136502 69.7220784,212.395642 66.3226492,211.588833 C58.7244212,209.78595 58.6267747,200.201306 58.6267747,200.201306 C58.6267747,200.201306 58.2153279,175.778 57.597492,157.066749 C57.597492,157.066749 56.5229368,143.393913 50.0596272,144.133894 C38.8702278,145.415814 43.5350667,165.116797 44.4121096,170.532274" id="Fill-93" fill="#FFC999"></path>
            <path d="M76.9039773,218.130673 C76.9039773,218.130673 75.9932019,220.731585 70.2258455,220.990116 C64.458489,221.249621 61.5628269,218.755048 58.5118181,218.573101 C52.8101511,218.232134 50.2593587,216.910703 50.2593587,216.910703 C50.2593587,216.910703 50.0489749,217.87507 50.6339661,219.089186 C51.5376399,220.962799 56.7568445,219.775999 60.009804,221.049139 C62.3626404,221.970092 64.1801966,222.4413 68.0221419,223.016408 C71.864531,223.591028 76.5022952,221.901801 76.9319397,220.452568 C77.3620281,219.002847 76.9039773,218.130673 76.9039773,218.130673" id="Fill-95" fill="#96A7CA"></path>
            <path d="M50.4499912,217.118405 C50.4499912,217.118405 51.7797588,217.790584 56.1121558,218.464714 C57.1485401,218.625686 58.1693897,218.824217 59.9887212,219.309083 C62.7849614,220.054431 71.6858823,223.403618 76.4332769,219.050553 C77.1256792,218.022286 76.8149859,216.93841 76.3476143,216.125747 C75.9024351,215.352595 75.1940542,214.809193 74.3844761,214.596028 C71.9304424,213.95019 66.0676587,212.420959 62.7352505,207.963019 C62.3451084,207.441568 61.708187,207.238646 61.1258589,207.454251 C60.4210288,207.71522 59.5204619,208.202525 58.9234868,209.089333 C58.4268213,209.827364 60.2146397,212.238037 59.6127822,212.42291 C57.9572305,212.932166 55.0797661,212.713147 53.1476973,211.590248 C51.5298726,210.649783 50.4819483,209.696635 50.4819483,209.696635 C50.4819483,209.696635 49.4690879,214.521883 50.4499912,217.118405" id="Fill-97" fill="#4E5C93"></path>
            <path d="M74.5590603,216.131121 C74.6375955,216.066153 74.749183,216.083455 74.8082979,216.169766 C74.8674129,216.256077 74.8516697,216.378713 74.7731345,216.443681 L74.7274445,216.4794 C74.6733939,216.519807 74.594229,216.573855 74.4896558,216.637729 C74.2613753,216.777166 73.9865578,216.915974 73.6645524,217.045094 C72.1934071,217.635005 70.290599,217.831617 67.9416523,217.405247 C67.844669,217.387643 67.7790336,217.286967 67.7950516,217.180382 C67.8110696,217.073796 67.9026754,217.001662 67.9996587,217.019266 C70.2880735,217.434648 72.12888,217.244443 73.5425415,216.677582 C73.8467338,216.555605 74.1045579,216.42538 74.3167294,216.295783 L74.4020664,216.242182 C74.4791205,216.192309 74.5313577,216.154038 74.5590603,216.131121 Z" id="Stroke-99" fill="#96A7CA" fill-rule="nonzero"></path>
            <path d="M64.2834817,209.935609 C64.3756487,209.898056 64.4780651,209.949726 64.5122353,210.051019 C64.5464055,210.152311 64.4993898,210.264868 64.4072228,210.302421 L64.3346487,210.334722 L64.3070095,210.347756 C64.223795,210.387423 64.1306959,210.435768 64.0302167,210.49294 C63.7426381,210.65657 63.4549813,210.857419 63.1872299,211.096273 C62.833448,211.411874 62.5421462,211.769864 62.3339354,212.170596 C62.2851927,212.264409 62.1764802,212.297033 62.0911192,212.243464 C62.0057582,212.189896 61.9760733,212.070419 62.024816,211.976607 C62.256594,211.530516 62.5769437,211.136828 62.9628922,210.792532 C63.2508932,210.535614 63.5586854,210.320705 63.8665558,210.14553 C63.9744837,210.08412 64.0749056,210.031972 64.1653637,209.988852 L64.2677413,209.942188 C64.2736713,209.939658 64.2789247,209.937466 64.2834817,209.935609 Z" id="Stroke-101" fill="#96A7CA" fill-rule="nonzero"></path>
            <path d="M18.8356011,49.5170916 C18.9167621,49.4994597 18.995798,49.5499097 19.0237888,49.6324254 L19.0311614,49.6610688 L23.280115,73.2839067 C23.2880871,73.3282291 23.2808522,73.3742258 23.2598041,73.413035 L23.2174931,73.4943369 C23.1889817,73.5507668 23.1525075,73.6256132 23.1099657,73.7171073 C22.9959262,73.9623702 22.8817719,74.2359027 22.7752472,74.5303779 C22.4732887,75.365107 22.2920164,76.1979779 22.2907756,76.9688827 C22.288794,78.2001022 22.7451147,79.152609 23.7780081,79.7500281 C23.8593542,79.7970782 23.8905928,79.907693 23.8477815,79.9970931 C23.8049702,80.0864933 23.7043207,80.1208248 23.6229746,80.0737747 C22.4733874,79.4088606 21.9557015,78.3282624 21.9578904,76.9682356 C21.9592159,76.1446582 22.1497616,75.2691799 22.465911,74.3952218 C22.5764968,74.0895202 22.6949609,73.8056608 22.8135399,73.5506348 L22.8736753,73.4238943 L22.9411716,73.2873152 L18.7045948,49.7320143 C18.6885513,49.6428176 18.7344563,49.5559564 18.8095381,49.5251942 L18.8356011,49.5170916 Z" id="Stroke-103" fill="#96A7CA" fill-rule="nonzero"></path>
            <path d="M53.5416342,45.1195425 C53.6331603,45.1289311 53.7004315,45.2180848 53.6918887,45.3186728 L53.5122835,47.3934352 C53.4456065,48.1550746 53.3733515,48.972347 53.2962952,49.8343988 L53.1001807,52.0093296 C52.8807794,54.420988 52.6569788,56.807984 52.4346622,59.0880767 L52.2439348,61.0208128 C52.1619036,61.8415719 52.0812844,62.6340948 52.002259,63.3958357 L51.8176838,65.1465343 C51.2684435,70.2679268 50.8443601,73.3864713 50.550946,74.1344968 L50.5431696,74.1536355 L50.5644386,74.2115967 C51.3975797,76.533994 51.2507918,78.2377427 50.4782598,79.3961811 L50.4320977,79.4636961 C50.1714585,79.8355811 49.9082228,80.0622841 49.7253444,80.1680638 C49.643999,80.2151153 49.543349,80.1807854 49.5005364,80.091386 C49.4577239,80.0019866 49.4889609,79.8913713 49.5703063,79.8443198 L49.6052433,79.8220481 C49.6402274,79.7982109 49.689393,79.7610599 49.7490407,79.7096903 C49.8914096,79.5870798 50.0344724,79.431505 50.1683746,79.2404508 C50.9213283,78.1661221 51.0687736,76.5349044 50.2061043,74.2125452 C50.1887084,74.1657144 50.1898715,74.1135222 50.2084742,74.0681998 L50.2390766,74.0094023 C50.5070493,73.4489987 50.9893049,69.8428542 51.5922386,64.1132486 L51.7111374,62.9711941 C51.8038873,62.0711919 51.8987692,61.1298457 51.9954929,60.1512069 L52.1703821,58.3621793 C52.3706025,56.2924051 52.5715574,54.1426331 52.7689535,51.9728555 L53.103627,48.2378787 L53.3604436,45.2846737 C53.3681321,45.1941445 53.4346096,45.1252068 53.5145507,45.1191689 L53.5416342,45.1195425 Z" id="Stroke-105" fill="#96A7CA" fill-rule="nonzero"></path>
            <path d="M36.5927567,115.538397 L5.58911022,114.620859 C4.76754821,114.596469 4.11908679,113.84478 4.14127917,112.941876 L4.72715807,89.0278252 C4.74935046,88.1249204 5.43376354,87.4122549 6.25488171,87.4371323 L37.258972,88.3541831 C38.0809779,88.3785728 38.7285516,89.1307495 38.7068031,90.0336543 L38.1204803,113.947217 C38.0987318,114.850609 37.4147626,115.562787 36.5927567,115.538397" id="Fill-107" fill="#253368"></path>
            <path d="M16.0678208,102.357939 C16.0678208,102.357939 8.23701657,77.8068309 8.14070163,68.2704783 C8.08699606,62.9374378 14.1575005,59.956535 17.2426855,65.283722 C18.5089829,67.4695223 18.9448413,76.0688245 19.7016015,84.4900823 C20.4574741,92.9113402 21.5338047,101.154554 21.5338047,101.154554 C21.5338047,101.154554 22.8653476,103.899852 19.7087031,104.756905 C16.4331074,105.646151 16.0678208,102.357939 16.0678208,102.357939" id="Fill-109" fill="#FFC999"></path>
            <path d="M17.2138354,109.849658 C17.2138354,109.849658 14.989271,103.326891 17.0584887,100.972314 C18.9324135,98.840171 21.7322046,101.099628 21.7322046,101.099628 C21.7322046,101.099628 23.7370644,103.139578 25.3526699,105.98146 C26.4116904,107.843366 28.9043388,111.053531 28.1826425,111.905218 C27.2416855,113.015435 25.1800132,109.276014 24.1880136,109.446741 C22.1769399,109.792099 24.8564482,116.049995 24.7947534,117.321183 C24.6758022,119.805513 19.8276543,117.696296 17.2138354,109.849658" id="Fill-111" fill="#FFC999"></path>
            <path d="M21.712396,111.258603 C21.8028475,111.248223 21.8838295,111.320394 21.8932742,111.419801 L21.9042614,111.519855 L21.9211116,111.655174 C21.9274514,111.703585 21.9345255,111.755254 21.942368,111.810038 C21.9873061,112.123956 22.0478047,112.474108 22.1260257,112.851364 C22.3494741,113.929045 22.6697014,115.006499 23.1034363,116.010502 C23.3386815,116.555044 23.6018315,117.063525 23.8942993,117.529318 C23.9459514,117.611581 23.9271444,117.724286 23.8522929,117.781052 C23.7774413,117.837818 23.6748899,117.817149 23.6232378,117.734887 C23.3203037,117.252424 23.0484675,116.727159 22.8059299,116.165737 C22.3608935,115.135573 22.0333679,114.033563 21.804922,112.931779 C21.7364002,112.601302 21.6811451,112.290942 21.6377502,112.006389 L21.6170346,111.866289 C21.6049112,111.7816 21.5945454,111.703949 21.5858201,111.633813 L21.56572,111.457389 C21.5562753,111.357982 21.6219444,111.268982 21.712396,111.258603 Z" id="Stroke-113" fill="#DD936F" fill-rule="nonzero"></path>
            <path d="M19.9298956,111.068199 C20.0189589,111.047981 20.1060722,111.11094 20.1244686,111.208821 C20.3503727,112.410782 20.6568045,113.518633 21.0236297,114.529433 C21.311274,115.322047 21.6191897,116.009888 21.9266934,116.589864 C22.0339417,116.792143 22.1333299,116.966302 22.2222684,117.111953 L22.3061534,117.245553 C22.3164059,117.261275 22.3247303,117.273715 22.3310305,117.282859 C22.3859315,117.362539 22.371663,117.476046 22.2991608,117.536383 C22.2266587,117.59672 22.1233779,117.581038 22.0684769,117.501358 L21.9998151,117.395974 C21.9846006,117.371814 21.9675648,117.344365 21.9488041,117.313641 C21.8560332,117.161714 21.7529451,116.981071 21.6421419,116.772087 C21.3266417,116.177029 21.0115534,115.473166 20.7177273,114.663518 C20.3438849,113.633382 20.0318342,112.505216 19.8019421,111.282037 C19.7835456,111.184155 19.8408324,111.088417 19.9298956,111.068199 Z" id="Stroke-115" fill="#DD936F" fill-rule="nonzero"></path>
            <path d="M18.3998028,110.346611 C18.4898934,110.332957 18.5729984,110.402151 18.5854229,110.501162 L18.5920355,110.548151 C18.6006362,110.60482 18.61536,110.690432 18.6376378,110.804075 C18.687694,111.05942 18.7579624,111.360283 18.8518361,111.70451 C19.1210182,112.691579 19.5253432,113.826216 20.0919886,115.091208 C20.132156,115.180878 20.0985746,115.289357 20.0169825,115.333501 C19.9353904,115.377645 19.8366848,115.340739 19.7965175,115.251069 C19.2217532,113.967952 18.8107577,112.814596 18.5363652,111.808421 C18.4399877,111.455013 18.3675625,111.144915 18.3156898,110.880303 L18.2911145,110.749607 L18.2638144,110.58415 C18.2616924,110.569674 18.2601639,110.558483 18.2591759,110.55061 C18.2467514,110.451599 18.3097122,110.360266 18.3998028,110.346611 Z" id="Stroke-117" fill="#DD936F" fill-rule="nonzero"></path>
        </g>
        <ellipse id="椭圆形" fill="#253368" cx="134" cy="169.5" rx="1" ry="1.5"></ellipse>
        <ellipse id="椭圆形备份-3" fill="#253368" cx="126" cy="169.5" rx="1" ry="1.5"></ellipse>
        <g id="编组" transform="translate(448.000000, 33.000000)">
            <g id="分组" transform="translate(10.078125, 10.078125)">
                <g>
                    <mask id="mask-8" fill="white">
                        <use xlink:href="#path-7"></use>
                    </mask>
                    <g id="Clip-2"></g>
                    <path d="M54.4218871,-1.214774e-05 C24.365463,-1.214774e-05 1.214774e-05,24.3654387 1.214774e-05,54.4218629 C1.214774e-05,84.4781655 24.365463,108.843738 54.4218871,108.843738 C84.4783113,108.843738 108.843762,84.4781655 108.843762,54.4218629 C108.843762,24.3654387 84.4783113,-1.214774e-05 54.4218871,-1.214774e-05" id="Fill-1" fill="#FAAD14" mask="url(#mask-8)"></path>
                </g>
                <path d="M56.644304,69.97097 L54.7006656,69.97097 C53.0904827,69.97097 51.785208,68.6656953 51.785208,67.0555124 L51.785208,30.1263829 C51.785208,28.5162 53.0904827,27.2109254 54.7006656,27.2109254 L56.644304,27.2109254 C58.254487,27.2109254 59.5597616,28.5162 59.5597616,30.1263829 L59.5597616,67.0555124 C59.5597616,68.6656953 58.254487,69.97097 56.644304,69.97097" id="Fill-3" fill="#FFFFFF"></path>
                <path d="M56.644304,81.9222567 L54.7006656,81.9222567 C53.0904827,81.9222567 51.785208,80.616982 51.785208,79.0067991 L51.785208,77.0631607 C51.785208,75.4529778 53.0904827,74.1477031 54.7006656,74.1477031 L56.644304,74.1477031 C58.254487,74.1477031 59.5597616,75.4529778 59.5597616,77.0631607 L59.5597616,79.0067991 C59.5597616,80.616982 58.254487,81.9222567 56.644304,81.9222567" id="Fill-5" fill="#FFFFFF"></path>
            </g>
        </g>
        <g id="2.通用组件/灰色版/对话弹窗" transform="translate(97.853862, 135.410105) scale(-1, 1) rotate(-360.000000) translate(-97.853862, -135.410105) translate(72.000000, 118.000000)">
            <g id="编组-4" transform="translate(-0.000000, 0.000000)">
                <g id="编组" transform="translate(-0.292277, 0.000000)" fill="#597EF7">
                    <rect id="矩形" x="0" y="-1.0125234e-13" width="52" height="30" rx="15"></rect>
                    <path d="M7.18487222,26 L7.18487222,30.4182115 C7.18487222,31.5379799 8.09262385,32.4457315 9.21239222,32.4457315 C9.71659809,32.4457315 10.2027145,32.2578644 10.5758802,31.9187907 L14.1848722,28.6395121 L14.1848722,28.6395121 L7.18487222,26 Z" id="路径-2"></path>
                </g>
                <g id="编组-3" transform="translate(13.838158, 12.000000)" fill="#FFFFFF">
                    <circle id="椭圆形" cx="2.51063105" cy="2.5" r="2.5"></circle>
                    <circle id="椭圆形备份" cx="12.510631" cy="2.5" r="2.5"></circle>
                    <circle id="椭圆形备份-2" cx="22.510631" cy="2.5" r="2.5"></circle>
                </g>
            </g>
        </g>
        <g id="2.通用组件/彩色版/点线三角体备份-2" opacity="0.1039109" transform="translate(10.000000, 234.000000)">
            <g id="编组" transform="translate(44.092767, 43.905352) rotate(28.000000) translate(-44.092767, -43.905352) translate(11.332537, 11.598389)">
                <polygon id="路径-2" opacity="0.682407924" points="4.08715632 54.5066587 36.4960759 3.48967069 60.0871563 59.4896707"></polygon>
                <polygon id="路径-3" stroke="#597EF7" stroke-width="2.1384" stroke-linejoin="round" points="36.3212339 4.47162842 44.9334765 41.5761422 60.3212339 60.4716284"></polygon>
                <polygon id="路径-4" stroke="#597EF7" stroke-width="2.9403" stroke-linejoin="round" points="3.80084198 54.6419067 44.800842 40.7340652 36.3093295 3.64190672"></polygon>
                <polygon id="路径-5" stroke="#597EF7" stroke-width="2.1384" stroke-linejoin="round" points="4.17185911 54.8088713 60.1718591 59.8194451 45.0462831 40.8194451"></polygon>
                <circle id="椭圆形备份-12" fill="#597EF7" cx="36.1431291" cy="3.89774584" r="4"></circle>
                <circle id="椭圆形备份-13" fill="#597EF7" cx="4.31400117" cy="54.7986949" r="4"></circle>
                <circle id="椭圆形备份-14" fill="#597EF7" cx="61.7185756" cy="60.5183829" r="4"></circle>
                <circle id="椭圆形备份-15" fill="#597EF7" cx="44.684101" cy="41.2615224" r="4"></circle>
            </g>
        </g>
    </g>
</svg>