<?xml version="1.0" encoding="UTF-8"?>
<svg width="594px" height="414px" viewBox="0 0 594 414" version="1.1" xmlns="http://www.w3.org/2000/svg" xmlns:xlink="http://www.w3.org/1999/xlink">
    <title>1.通用/异常页/500</title>
    <defs>
        <polygon id="path-1" points="0 7.49633789e-06 59.9707031 7.49633789e-06 59.9707031 59.9707031 0 59.9707031"></polygon>
        <polygon id="path-3" points="1.214774e-05 0 108.84375 0 108.84375 108.843738 1.214774e-05 108.843738"></polygon>
        <polygon id="path-5" points="0.0845145195 0.00384521484 19.5287902 0.00384521484 19.5287902 18.3375549 0.0845145195 18.3375549"></polygon>
        <polygon id="path-7" points="0 0 170 0 170 6 0 6"></polygon>
        <polygon id="path-9" points="0 0 65.6026312 0 65.6026312 5.8864 0 5.8864"></polygon>
        <polygon id="path-11" points="0 0 65.6026312 0 65.6026312 6.18618 0 6.18618"></polygon>
        <polygon id="path-13" points="0 0 108 0 108 6 0 6"></polygon>
        <polygon id="path-15" points="0 0 108 0 108 6 0 6"></polygon>
        <polygon id="path-17" points="0 0 19.77612 0 19.77612 5.8812 0 5.8812"></polygon>
        <polygon id="path-19" points="0 0 97.3102732 0 97.3102732 6.18072 0 6.18072"></polygon>
        <polygon id="path-21" points="0 33.49164 6.3828 33.5244 17.1072 0.03276 10.719 0"></polygon>
        <path d="M0.12012,0.597726316 L0.09828,4.81916842 L0.02184,20.5094842 L0,24.7309263 C0,25.0564737 0.273,25.3339895 0.60606,25.3339895 L0.60606,25.3339895 L4.92492,25.35 L11.78268,25.3873579 C12.11574,25.3873579 12.38874,25.1151789 12.3942,24.7896316 L12.3942,24.7896316 L12.41058,21.1605789 C12.41604,20.8296947 12.13758,20.5681895 11.79906,20.5628526 L11.79906,20.5628526 L4.95222,20.5308316 L5.02866,4.83517895 L11.88096,4.87787368 C12.21948,4.87787368 12.48702,4.60569474 12.49248,4.28014737 L12.49248,4.28014737 L12.51432,0.651094737 C12.51432,0.325547368 12.23586,0.0533684211 11.9028,0.0533684211 L11.9028,0.0533684211 L5.05596,0.0266842105 L0.73164,0 C0.39312,0 0.12012,0.266842105 0.12012,0.597726316 L0.12012,0.597726316 Z" id="path-23"></path>
        <path d="M0.120198955,0.597726316 L0.0983589551,4.22677895 C0.0983589551,4.55232632 0.371358955,4.82450526 0.709878955,4.82450526 L0.709878955,4.82450526 L7.55671896,4.85118947 L7.48027896,20.5468421 L0.633438955,20.5148211 C0.294918955,20.5148211 0.0219189551,20.7816632 0.0164589551,21.1125474 L0.0164589551,21.1125474 L0,24.7362632 C-0.00538104494,25.0671474 0.273078955,25.3339895 0.606138955,25.3393263 L0.606138955,25.3393263 L7.45843896,25.3660105 L11.782759,25.3873579 C12.115819,25.3873579 12.388819,25.1205158 12.394279,24.7949684 L12.394279,24.7949684 L12.410659,21.1712526 L12.492559,4.28014737 L12.5090195,0.656431579 C12.514399,0.325547368 12.241399,0.0587052632 11.902879,0.0533684211 L11.902879,0.0533684211 L7.58401896,0.0426947368 L0.731718955,0 C0.393198955,0 0.120198955,0.266842105 0.120198955,0.597726316 L0.120198955,0.597726316 Z" id="path-25"></path>
    </defs>
    <g id="1.通用/异常页/500" stroke="none" stroke-width="1" fill="none" fill-rule="evenodd">
        <path d="M543.522977,307 C535.791026,307 529.522977,300.731951 529.522977,293 C529.522977,285.268049 535.791026,279 543.522977,279 C551.254928,279 557.522977,285.268049 557.522977,293 C557.522977,300.731951 551.254928,307 543.522977,307 L543.522977,307 Z M585.522977,299.330426 L585.522977,286.669413 L575.54428,284.133961 C574.812534,281.484621 573.761002,278.968311 572.433437,276.628945 L577.697693,267.777866 L568.745112,258.825124 L559.894032,264.089541 C557.554506,262.761814 555.038196,261.710443 552.389017,260.978537 L549.853404,251 L537.19239,251 L534.656938,260.978537 C532.007598,261.710443 529.491288,262.761814 527.151923,264.089541 L518.300843,258.825124 L509.348101,267.777866 L514.612357,276.628945 C513.284953,278.968311 512.233421,281.484782 511.501514,284.133961 L501.522977,286.669413 L501.522977,299.330426 L511.501514,301.866039 C512.233421,304.515218 513.284953,307.031528 514.612357,309.371055 L509.348101,318.222134 L518.300843,327.174876 L527.151923,321.910459 C529.491288,323.238025 532.007598,324.289557 534.656938,325.021463 L537.19239,335 L549.853404,335 L552.389017,325.021463 C555.038196,324.289557 557.554506,323.238025 559.894032,321.910459 L568.745112,327.174876 L577.697693,318.222134 L572.433437,309.371055 C573.761002,307.031528 574.812534,304.515218 575.54428,301.866039 L585.522977,299.330426 Z" id="Fill-1备份" fill="#597EF7" opacity="0.100000001"></path>
        <g id="编组" transform="translate(0.000000, 165.439832)" fill="#597EF7" opacity="0.100000001">
            <g id="编组" transform="translate(26.875000, 26.958984)">
                <rect id="矩形备份-5" opacity="0.559454055" x="59.2929688" y="39.5566406" width="19.6523437" height="19.6523438"></rect>
                <rect id="矩形备份" x="39.640625" y="19.7363281" width="19.6523438" height="19.6523438"></rect>
                <rect id="矩形备份-7" x="98.765625" y="19.7363281" width="19.6523438" height="19.6523438"></rect>
                <rect id="矩形备份-2" x="0" y="59.2089844" width="19.6523438" height="19.6523438"></rect>
                <rect id="矩形备份-9" opacity="0.783365885" x="59.2929688" y="59.2089844" width="19.6523437" height="19.6523438"></rect>
                <rect id="矩形备份-6" opacity="0.461286272" x="39.640625" y="59.2089844" width="19.6523438" height="19.6523438"></rect>
                <rect id="矩形备份-10" x="98.765625" y="59.2089844" width="19.6523438" height="19.6523438"></rect>
                <rect id="矩形备份-3" opacity="0.414969308" x="19.8203125" y="98.5136719" width="19.6523438" height="19.6523438"></rect>
                <rect id="矩形备份-11" opacity="0.414969308" x="59.2929688" y="78.8613281" width="19.6523437" height="19.6523438"></rect>
                <rect id="矩形备份-12" opacity="0.340680804" x="78.9453125" y="39.5566406" width="19.6523438" height="19.6523438"></rect>
                <rect id="矩形备份-8" x="19.8203125" y="0.083984375" width="19.6523438" height="19.6523438"></rect>
                <rect id="矩形备份-13" x="78.9453125" y="0.083984375" width="19.6523438" height="19.6523438"></rect>
            </g>
        </g>
        <g id="编组-5" transform="translate(179.522977, 53.000000)">
            <path d="M58.412661,64 L16.586822,64 C11.3139407,64 7,59.510414 7,54.0240389 L7,9.97649907 C7,4.48958596 11.3139407,0 16.586822,0 L58.412661,0 C63.6855424,0 68,4.48958596 68,9.97649907 L68,54.0240389 C68,59.510414 63.6855424,64 58.412661,64" id="Fill-3" fill="#597EF7" opacity="0.200427827" transform="translate(37.500000, 32.000000) rotate(-360.000000) translate(-37.500000, -32.000000) "></path>
            <g id="编组" transform="translate(31.000000, 25.000000)">
                <polygon id="Fill-1" fill="#253369" points="147.334397 250.886658 193.25474 250.886658 193.25474 214.788682 147.334397 214.788682"></polygon>
                <path d="M221.079894,263.248378 L121.038154,263.248378 C116.962043,263.248378 113.657964,259.942317 113.657964,255.864701 C113.657964,251.786664 116.962043,248.481025 121.038154,248.481025 L221.079894,248.481025 C225.156005,248.481025 228.459663,251.786664 228.459663,255.864701 C228.459663,259.942317 225.156005,263.248378 221.079894,263.248378" id="Fill-3" fill="#BDCAE2"></path>
                <path d="M324.579361,217.132827 L13.8132312,217.132827 C6.18425609,217.132827 0,210.945649 0,203.31307 L0,13.8197565 C0,6.18717751 6.18425609,0 13.8132312,0 L324.579361,0 C332.207915,0 338.392171,6.18717751 338.392171,13.8197565 L338.392171,203.31307 C338.392171,210.945649 332.207915,217.132827 324.579361,217.132827" id="Fill-7" fill="#BDCAE2"></path>
                <path d="M319.107027,204.059786 L19.5050561,204.059786 C16.200977,204.059786 13.5224377,201.327228 13.5224377,197.956514 L13.5224377,19.2558676 C13.5224377,15.8855833 16.200977,13.1530249 19.5050561,13.1530249 L319.107027,13.1530249 C322.411107,13.1530249 325.089646,15.8855833 325.089646,19.2558676 L325.089646,197.956514 C325.089646,201.327228 322.411107,204.059786 319.107027,204.059786" id="Fill-11" fill="#253369"></path>
            </g>
            <g id="编组-2" transform="translate(0.000000, 201.000000)">
                <polygon id="Fill-11" fill="#253369" points="4 97 86 97 86 2 4 2"></polygon>
                <path d="M3.72358066,98 C1.67544639,98 0,96.3503723 0,94.3346117 L0,72.6653883 C0,70.6496277 1.67544639,69 3.72358066,69 L86.2764193,69 C88.3237291,69 90,70.6496277 90,72.6653883 L90,94.3346117 C90,96.3503723 88.3237291,98 86.2764193,98 L3.72358066,98 Z" id="Fill-13" fill="#CCD7EE"></path>
                <path d="M3.72358066,29 C1.67544639,29 0,27.3504185 0,25.3339025 L0,3.66609747 C0,1.6503933 1.67544639,0 3.72358066,0 L86.2764193,0 C88.3237291,0 90,1.6503933 90,3.66609747 L90,25.3339025 C90,27.3504185 88.3237291,29 86.2764193,29 L3.72358066,29 Z" id="Fill-14" fill="#CCD7EE"></path>
                <path d="M9.99955706,18 L9.99955706,18 C8.34297948,18 7,16.6561347 7,14.9995571 C7,13.3429795 8.34297948,12 9.99955706,12 C11.6570205,12 13,13.3429795 13,14.9995571 C13,16.6561347 11.6570205,18 9.99955706,18" id="Fill-15" fill="#FFFFFF"></path>
                <path d="M15,14.9995571 C15,13.3429795 16.3427812,12 18,12 C19.656333,12 21,13.3429795 21,14.9995571 C21,16.6561347 19.656333,18 18,18 C16.3427812,18 15,16.6561347 15,14.9995571 Z" id="Fill-16" fill="#FFFFFF"></path>
                <path d="M27.0004429,18 L27.0004429,18 C25.3429795,18 24,16.6561347 24,14.9995571 C24,13.3429795 25.3429795,12 27.0004429,12 C28.6570205,12 30,13.3429795 30,14.9995571 C30,16.6561347 28.6570205,18 27.0004429,18" id="Fill-17" fill="#FFFFFF"></path>
                <path d="M56.7722199,18 C56.3455974,18 56,17.6297062 56,17.1725971 L56,12.8274029 C56,12.3702938 56.3455974,12 56.7722199,12 L83.2277801,12 C83.6544026,12 84,12.3702938 84,12.8274029 L84,17.1725971 C84,17.6297062 83.6544026,18 83.2277801,18 L56.7722199,18 Z" id="Fill-18" fill="#597EF7"></path>
                <path d="M3.72358066,64 C1.67544639,64 0,62.3504185 0,60.3339025 L0,38.6660975 C0,36.6503933 1.67544639,35 3.72358066,35 L86.2764193,35 C88.3237291,35 90,36.6503933 90,38.6660975 L90,60.3339025 C90,62.3504185 88.3237291,64 86.2764193,64 L3.72358066,64 Z" id="Fill-19" fill="#CCD7EE"></path>
                <path d="M9.99955706,53 L9.99955706,53 C8.34297948,53 7,51.6570205 7,49.9995571 C7,48.3429795 8.34297948,47 9.99955706,47 C11.6570205,47 13,48.3429795 13,49.9995571 C13,51.6570205 11.6570205,53 9.99955706,53" id="Fill-20" fill="#FF7946"></path>
                <path d="M18,53 L18,53 C16.3427812,53 15,51.6570205 15,49.9995571 C15,48.3429795 16.3427812,47 18,47 C19.656333,47 21,48.3429795 21,49.9995571 C21,51.6570205 19.656333,53 18,53" id="Fill-21" fill="#253369"></path>
                <path d="M27.0004429,53 L27.0004429,53 C25.3429795,53 24,51.6570205 24,49.9995571 C24,48.3429795 25.3429795,47 27.0004429,47 C28.6570205,47 30,48.3429795 30,49.9995571 C30,51.6570205 28.6570205,53 27.0004429,53" id="Fill-22" fill="#253369"></path>
                <path d="M83.0665564,53 L56.9334436,53 C56.4175279,53 56,52.5526355 56,51.9998524 L56,47.9992618 C56,47.4473645 56.4175279,47 56.9334436,47 L83.0665564,47 C83.5824721,47 84,47.4473645 84,47.9992618 L84,51.9998524 C84,52.5526355 83.5824721,53 83.0665564,53" id="Fill-23" fill="#FF7946"></path>
                <path d="M7,83.9995571 C7,82.3429795 8.34297948,81 9.99955706,81 C11.6570205,81 13,82.3429795 13,83.9995571 C13,85.6561347 11.6570205,87 9.99955706,87 C8.34297948,87 7,85.6561347 7,83.9995571 Z" id="Fill-24" fill="#FFFFFF"></path>
                <path d="M18,87 L18,87 C16.3427812,87 15,85.6561347 15,83.9995571 C15,82.3429795 16.3427812,81 18,81 C19.656333,81 21,82.3429795 21,83.9995571 C21,85.6561347 19.656333,87 18,87" id="Fill-25" fill="#FFFFFF"></path>
                <path d="M27.0004429,87 L27.0004429,87 C25.3429795,87 24,85.6561347 24,83.9995571 C24,82.3429795 25.3429795,81 27.0004429,81 C28.6570205,81 30,82.3429795 30,83.9995571 C30,85.6561347 28.6570205,87 27.0004429,87" id="Fill-26" fill="#FFFFFF"></path>
                <path d="M83.0665564,87 L56.9334436,87 C56.4175279,87 56,86.5517496 56,85.9998524 L56,81.9992618 C56,81.4473645 56.4175279,81 56.9334436,81 L83.0665564,81 C83.5824721,81 84,81.4473645 84,81.9992618 L84,85.9998524 C84,86.5517496 83.5824721,87 83.0665564,87" id="Fill-27" fill="#597EF7"></path>
            </g>
            <g id="编组" transform="translate(219.000000, 129.000000)">
                <g id="3.通用组件/彩色版/扩大镜" transform="translate(34.500000, 34.500000) scale(-1, 1) translate(-34.500000, -34.500000) ">
                    <g id="分组" transform="translate(4.514648, 4.514648)">
                        <g>
                            <mask id="mask-2" fill="white">
                                <use xlink:href="#path-1"></use>
                            </mask>
                            <g id="Clip-2"></g>
                            <path d="M59.9707031,29.9853591 C59.9707031,46.5458189 46.5458115,59.9707106 29.9853516,59.9707106 C13.4248917,59.9707106 0,46.5458189 0,29.9853591 C0,13.4248992 13.4248917,7.49633789e-06 29.9853516,7.49633789e-06 C46.5458115,7.49633789e-06 59.9707031,13.4248992 59.9707031,29.9853591" id="Fill-1" fill="#CCD7EE" mask="url(#mask-2)"></path>
                        </g>
                        <path d="M50.8622853,29.9482447 C50.8622853,41.5405816 41.4648761,50.9379908 29.8725392,50.9379908 C18.2802023,50.9379908 8.88279308,41.5405816 8.88279308,29.9482447 C8.88279308,18.3559078 18.2802023,8.9584986 29.8725392,8.9584986 C41.4648761,8.9584986 50.8622853,18.3559078 50.8622853,29.9482447" id="Fill-3" fill="#597EF7"></path>
                        <path d="M41.2298584,29.9853591 C41.2298584,36.1955503 36.1955428,41.2298659 29.9853516,41.2298659 C23.7751604,41.2298659 18.7408447,36.1955503 18.7408447,29.9853591 C18.7408447,23.7751679 23.7751604,18.7408522 29.9853516,18.7408522 C36.1955428,18.7408522 41.2298584,23.7751679 41.2298584,29.9853591" id="Fill-5" fill="#253369"></path>
                        <path d="M52.038408,10.5150698 C52.2078081,10.3696027 52.4630584,10.3890042 52.6085256,10.5584043 C52.750356,10.7235694 52.7354582,10.9703459 52.5776146,11.117409 L52.5651911,11.1285219 L30.2487431,30.2920851 C30.079343,30.4375522 29.8240927,30.4181507 29.6786255,30.2487506 C29.5367951,30.0835855 29.5516929,29.836809 29.7095365,29.6897458 L29.72196,29.678633 L52.038408,10.5150698 Z" id="Stroke-7" fill="#FFFFFF" fill-rule="nonzero"></path>
                        <path d="M32.9838867,29.9853591 C32.9838867,31.6413501 31.6413426,32.9838942 29.9853516,32.9838942 C28.3293605,32.9838942 26.9868164,31.6413501 26.9868164,29.9853591 C26.9868164,28.3292681 28.3293605,26.9868239 29.9853516,26.9868239 C31.6413426,26.9868239 32.9838867,28.3292681 32.9838867,29.9853591" id="Fill-9" fill="#FFFFFF"></path>
                        <path d="M48.134248,16.340135 C48.134248,17.5822032 47.1273399,18.5890364 45.8853466,18.5890364 C44.6433533,18.5890364 43.6364452,17.5822032 43.6364452,16.340135 C43.6364452,15.0980668 44.6433533,14.0912337 45.8853466,14.0912337 C47.1273399,14.0912337 48.134248,15.0980668 48.134248,16.340135" id="Fill-11" fill="#FFFFFF"></path>
                        <path d="M41.154895,23.0137573 C41.154895,24.4628369 39.9801689,25.6374756 38.5311768,25.6374756 C37.0821846,25.6374756 35.9074585,24.4628369 35.9074585,23.0137573 C35.9074585,21.5647652 37.0821846,20.3900391 38.5311768,20.3900391 C39.9801689,20.3900391 41.154895,21.5647652 41.154895,23.0137573" id="Fill-13" fill="#FFFFFF"></path>
                    </g>
                </g>
            </g>
        </g>
        <rect id="矩形备份" fill="#E4EBF7" x="38.5229774" y="352" width="241" height="15" rx="7.5"></rect>
        <g id="编组" transform="translate(462.522977, 24.000000)">
            <g id="分组" transform="translate(10.078125, 10.078125)">
                <g>
                    <mask id="mask-4" fill="white">
                        <use xlink:href="#path-3"></use>
                    </mask>
                    <g id="Clip-2"></g>
                    <path d="M54.4218871,-1.214774e-05 C24.365463,-1.214774e-05 1.214774e-05,24.3654387 1.214774e-05,54.4218629 C1.214774e-05,84.4781655 24.365463,108.843738 54.4218871,108.843738 C84.4783113,108.843738 108.843762,84.4781655 108.843762,54.4218629 C108.843762,24.3654387 84.4783113,-1.214774e-05 54.4218871,-1.214774e-05" id="Fill-1" fill="#FAAD14" mask="url(#mask-4)"></path>
                </g>
                <path d="M56.644304,69.97097 L54.7006656,69.97097 C53.0904827,69.97097 51.785208,68.6656953 51.785208,67.0555124 L51.785208,30.1263829 C51.785208,28.5162 53.0904827,27.2109254 54.7006656,27.2109254 L56.644304,27.2109254 C58.254487,27.2109254 59.5597616,28.5162 59.5597616,30.1263829 L59.5597616,67.0555124 C59.5597616,68.6656953 58.254487,69.97097 56.644304,69.97097" id="Fill-3" fill="#FFFFFF"></path>
                <path d="M56.644304,81.9222567 L54.7006656,81.9222567 C53.0904827,81.9222567 51.785208,80.616982 51.785208,79.0067991 L51.785208,77.0631607 C51.785208,75.4529778 53.0904827,74.1477031 54.7006656,74.1477031 L56.644304,74.1477031 C58.254487,74.1477031 59.5597616,75.4529778 59.5597616,77.0631607 L59.5597616,79.0067991 C59.5597616,80.616982 58.254487,81.9222567 56.644304,81.9222567" id="Fill-5" fill="#FFFFFF"></path>
            </g>
        </g>
        <g id="2.人物组件/6.产品经理/站立/摸头" transform="translate(52.158113, 45.000000)">
            <path d="M55.0853262,288.824854 C55.0853262,288.824854 54.3380826,294.626184 61.8230136,300.240747 C64.6300501,302.345728 66.1445303,306.708398 63.5224303,307.538965 C61.7160503,308.111353 58.1162858,306.365625 54.40406,304.385889 C49.2163406,301.618982 50.8827686,298.86416 47.8812988,297.882532 C46.141396,297.31344 41.7264114,295.081567 41.8213788,293.768152 C41.9878217,291.473108 42.4926484,291.179224 44.2500452,288.160181 C55.272262,269.225793 58.5306436,277.419946 55.0853262,288.824854" id="Fill-1" fill="#253368"></path>
            <path d="M46.1199034,284.137646 L65.5837227,234.127332 C67.1596818,230.077222 72.0679971,228.64021 76.2915475,230.991284 C80.3696477,233.26106 82.2005193,238.17854 80.3606508,241.921033 L56.7922403,289.859875 C56.7922403,289.859875 51.4945586,289.836804 46.1199034,284.137646" id="Fill-3" fill="#4E5C93"></path>
            <path d="M74.3682576,241.64209 L74.3682576,241.64209 C78.6797777,241.88269 82.379008,238.641174 82.743383,234.303223 L86.8009903,185.942505 C87.2718286,180.328491 83.0247864,175.402771 77.4447017,175.091309 C71.8646169,174.779297 67.1847232,179.206787 67.13574,184.844971 L66.713385,233.408386 C66.675398,237.764465 70.0567375,241.401489 74.3682576,241.64209" id="Fill-5" fill="#4E5C93"></path>
            <path d="M80.4755614,107.786975 L80.8339384,93.5091431 L69.1469497,93.0477173 L67.3910524,106.566394 C66.8607344,110.649463 69.5418142,114.391406 73.2780318,114.78252 C77.0672312,115.179126 80.3705974,111.968372 80.4755614,107.786975" id="Fill-7" fill="#FFC999"></path>
            <path d="M83.97556,92.3200378 C83.97556,92.3200378 85.9338879,90.4913635 86.5596731,91.9327698 C87.1854583,93.374176 85.4390577,98.0955505 83.5017227,98.0126038 C80.9146107,97.9021912 83.97556,92.3200378 83.97556,92.3200378" id="Fill-9" fill="#BDC9E0"></path>
            <path d="M71.65169,103.562787 C71.65169,103.562787 75.1249979,107.372845 80.4321762,104.543317 C84.252365,102.507001 85.4834425,93.7712219 85.365483,87.2491882 C85.2990058,83.5588806 83.9444707,81.4308289 80.8045484,80.0015076 C77.6646262,78.5727356 68.8921372,77.5894592 67.8769856,88.3187073 C66.7463737,100.269086 71.65169,103.562787 71.65169,103.562787" id="Fill-11" fill="#FFC999"></path>
            <path d="M79.3695429,88.4577519 C79.4030488,88.355575 79.5055791,88.3025954 79.5985509,88.3394186 C79.6811925,88.3721504 79.7284641,88.4648199 79.7144164,88.5567711 L79.7062235,88.5911007 L78.9938866,90.7624512 L79.5500151,96.9574594 C79.5600255,97.0690275 79.4838295,97.164668 79.3859245,97.172864 L79.3559662,97.1726279 L77.0137701,96.941915 C76.9153396,96.9322193 76.8426977,96.8366654 76.8515199,96.7284893 C76.8594599,96.6311309 76.9306797,96.5567294 77.0166001,96.5498908 L77.0457181,96.5501748 L79.1724919,96.7595215 L78.6340574,90.7569204 C78.6323169,90.7375227 78.6332148,90.7180034 78.6366793,90.6989959 L78.643792,90.6709477 L79.3695429,88.4577519 Z" id="Stroke-13" fill="#DD936F" fill-rule="nonzero"></path>
            <path d="M74.9472176,98.2358682 C74.9945486,98.0933763 75.1380239,98.0200322 75.2676786,98.0720494 L75.3445827,98.100684 C75.3781697,98.1125825 75.4196475,98.126713 75.4688312,98.1427102 L75.5205767,98.1593161 C75.7348526,98.2271936 75.9860896,98.2953123 76.2719417,98.3590424 C77.1474677,98.5542391 78.1450926,98.6658047 79.2428777,98.6503278 C79.3808901,98.648382 79.4942066,98.7697632 79.495998,98.9214403 C79.4977475,99.0731173 79.3873015,99.1976532 79.249289,99.199599 C78.114604,99.2155962 77.0817306,99.1000887 76.1725693,98.897393 C75.9231965,98.8417959 75.6981306,98.7827757 75.4987085,98.7230455 L75.3821433,98.6871438 C75.2441188,98.643421 75.1480609,98.6088332 75.096278,98.588058 C74.9666232,98.5360408 74.8998866,98.37836 74.9472176,98.2358682 Z" id="Stroke-15" fill="#FF7A46" fill-rule="nonzero"></path>
            <g id="分组" transform="translate(66.810402, 74.703186)">
                <mask id="mask-6" fill="white">
                    <use xlink:href="#path-5"></use>
                </mask>
                <g id="Clip-18"></g>
                <path d="M1.76444438,18.3375549 L0.233969694,13.9946594 C0.233969694,13.9946594 -0.433801105,7.90109253 1.05368834,5.47366333 C3.36189608,1.70645142 7.81286836,2.30026245 10.5564267,1.52737427 C13.299985,0.754486084 13.3634632,-0.227142334 14.4225997,0.0524597168 C15.4817361,0.332611084 19.3524076,3.97402954 19.5178508,7.35726929 C19.6633009,10.3323669 18.3102653,17.7228699 18.3102653,17.7228699 C18.3102653,17.7228699 18.1578176,11.0305481 17.7359624,9.22164917 C15.7251526,8.02963257 8.10526799,7.14962769 4.82589359,7.88076782 C4.82589359,7.88076782 4.34655811,10.1005554 4.0441619,11.6683044 C2.21928826,12.8224182 1.76444438,18.3375549 1.76444438,18.3375549" id="Fill-17" fill="#253368" mask="url(#mask-6)"></path>
            </g>
            <path d="M72.4690322,104.135668 C72.513421,104.038631 72.6209825,103.999514 72.7092776,104.048298 C75.5704025,105.629091 77.8992735,105.65096 79.680787,104.749078 C79.9320987,104.621853 80.1482342,104.485925 80.3286803,104.350582 L80.4108081,104.287151 C80.4717407,104.23857 80.5138786,104.20114 80.537024,104.178274 C80.610519,104.105665 80.7236565,104.112283 80.7897237,104.193055 C80.8557909,104.273826 80.8497694,104.398166 80.7762744,104.470774 C80.7323612,104.514158 80.6502817,104.585544 80.5304183,104.675447 C80.3339067,104.82284 80.1004688,104.969649 79.8305168,105.10631 C77.9510975,106.057756 75.5079738,106.034815 72.5485316,104.3997 C72.4602365,104.350917 72.4246434,104.232705 72.4690322,104.135668 Z" id="Stroke-19" fill="#DD936F" fill-rule="nonzero"></path>
            <path d="M77.5160542,90.2955496 L79.2439611,90.4182315 C79.4412813,90.4322412 79.5919866,90.6399072 79.5805709,90.8820663 C79.5699163,91.1080815 79.4218019,91.2842626 79.2416721,91.2953584 L79.2026213,91.2951673 L77.4747143,91.1724854 C77.2773942,91.1584756 77.1266888,90.9508097 77.1381045,90.7086505 C77.1487592,90.4826353 77.2968735,90.3064543 77.4770033,90.2953584 L77.5160542,90.2955496 Z" id="Stroke-21" fill="#393C68" fill-rule="nonzero"></path>
            <path d="M77.5268509,91.5299469 C77.8529055,91.4058999 78.1862102,91.3429447 78.5108674,91.3774999 C78.8980962,91.418715 79.2374514,91.5988198 79.4923246,91.9376602 C79.6182568,92.1050804 79.5968512,92.3529972 79.4445139,92.4913979 C79.3030578,92.6199129 79.0984469,92.6088082 78.9691101,92.4725202 L78.9406624,92.4388535 C78.8132696,92.2694914 78.6494584,92.1825525 78.4418715,92.1604578 C78.2347065,92.138408 77.9980109,92.1831155 77.7609937,92.2732883 L77.6669269,92.311342 C77.5951677,92.3421941 77.5407216,92.3700528 77.5091304,92.388581 C77.3347569,92.4908506 77.1179623,92.4184031 77.0249062,92.2267648 C76.9318501,92.0351266 76.9977709,91.7968673 77.1721444,91.6945977 L77.2477882,91.6531632 C77.3199818,91.6159095 77.4144779,91.572699 77.5268509,91.5299469 Z" id="Stroke-23" fill="#393C68" fill-rule="nonzero"></path>
            <path d="M76.6609063,100.376202 L78.0679233,100.594973 C78.1664999,100.6103 78.2407344,100.79761 78.2337308,101.01334 C78.2274275,101.207498 78.1574695,101.358505 78.0716786,101.375592 L78.0425608,101.376202 L76.6355438,101.157432 C76.5369672,101.142105 76.4627327,100.954795 76.4697364,100.739065 C76.4760397,100.544907 76.5459976,100.3939 76.6317885,100.376813 L76.6609063,100.376202 Z" id="Stroke-25" fill="#DD936F" fill-rule="nonzero"></path>
            <path d="M68.2964526,89.5439543 L71.1264812,89.7823576 C71.3235532,89.7989591 71.4710659,89.9879933 71.4559601,90.2045774 C71.4418613,90.4067226 71.2910867,90.5614217 71.1108192,90.5676522 L71.0717781,90.566678 L68.2417495,90.3282747 C68.0446775,90.3116732 67.8971648,90.122639 67.9122706,89.9060549 C67.9263694,89.7039097 68.077144,89.5492107 68.2574115,89.5429801 L68.2964526,89.5439543 Z" id="Stroke-27" fill="#393C68" fill-rule="nonzero"></path>
            <path d="M71.3507433,89.5763672 L76.7558881,89.9976929 C77.1337584,90.027356 77.4176609,90.3860596 77.3886709,90.8007935 C77.3336898,91.574231 77.2137309,92.8118408 76.9623172,93.8593872 C76.6654191,95.0953491 75.590788,95.7825439 74.4276872,95.7512329 C72.9751857,95.7116821 71.6756318,95.6122559 71.0723389,94.7355469 C70.1526545,93.3990601 70.5315245,91.346814 70.6234929,90.2514771 C70.6574813,89.8499268 70.9843691,89.5478027 71.3507433,89.5763672" id="Fill-29" fill="#FFFFFF"></path>
            <path d="M71.3591772,89.4456835 C70.9278449,89.4120546 70.5447605,89.7671912 70.5047963,90.2393423 L70.4819585,90.4811778 L70.4363342,90.9153595 C70.3565356,91.6845219 70.3286493,92.2133746 70.3618582,92.7663417 C70.4110043,93.5846833 70.6017186,94.2688375 70.9772584,94.8145726 C71.524623,95.6100062 72.4346816,95.8280167 74.4247345,95.8822047 C75.6944647,95.9163862 76.7773652,95.1425868 77.0775774,93.8928286 C77.2913984,93.0019169 77.4283095,91.9252476 77.5075178,90.8109977 C77.5415582,90.3240154 77.2084823,89.9018761 76.7643814,89.8670138 L71.3591772,89.4456835 Z M71.3423077,89.7070507 L76.7474542,90.1283765 C77.0599711,90.1529094 77.2936922,90.4491267 77.269812,90.7907585 C77.1916353,91.8904947 77.0564792,92.9533624 76.8470504,93.8259736 C76.5768743,94.9506942 75.5959415,95.6516314 74.4306064,95.6202602 L74.1704248,95.6119502 C72.4380414,95.5478078 71.6295101,95.3280344 71.1674194,94.6565213 C70.8234253,94.1566284 70.6460834,93.5204452 70.5997587,92.7490852 C70.5724859,92.294961 70.5881326,91.8536831 70.641683,91.2669519 L70.7319715,90.3777078 C70.7358011,90.3371829 70.739162,90.2996698 70.7421977,90.2635153 C70.7701179,89.9336561 71.039982,89.6834798 71.3423077,89.7070507 Z" id="Stroke-31" fill="#253368" fill-rule="nonzero"></path>
            <path d="M79.7858481,90.1678162 L85.9057475,90.6451721 C86.0686916,91.6454773 85.6053506,95.4291687 84.5022293,96.1619568 C83.04323,96.8617859 80.2236978,96.2899475 79.8358309,95.4302673 C79.2460334,94.1261902 79.1520656,91.7190857 79.2300389,90.691864 C79.2540306,90.3787537 79.5009459,90.1452942 79.7858481,90.1678162" id="Fill-33" fill="#FFFFFF"></path>
            <path d="M79.7942876,90.0371329 C79.4445116,90.0094825 79.1407288,90.2961533 79.1112502,90.6808703 C79.0006735,92.1376114 79.218217,94.3590293 79.7290815,95.4885808 C80.1703038,96.4665198 83.1012742,96.9768908 84.5499143,96.2820306 C85.5489856,95.6196962 86.2600943,92.0770354 86.0230911,90.6220851 C86.0134752,90.563054 85.968617,90.5187345 85.914187,90.5144889 L79.7942876,90.0371329 Z M85.8022164,90.7683105 L85.8093066,90.8276793 C85.9585894,92.2790614 85.2874306,95.4872735 84.4405639,96.0498352 C83.1088826,96.6873482 80.3166904,96.2011427 79.9426316,95.3720673 C79.4547883,94.2934169 79.2415574,92.1160372 79.3488353,90.7027555 C79.3673699,90.4608658 79.557823,90.2811409 79.7772955,90.2984905 L85.8022164,90.7683105 Z" id="Stroke-35" fill="#253368" fill-rule="nonzero"></path>
            <path d="M70.7962566,89.1800717 L77.4839612,89.8952816 C77.6806821,89.9163198 77.8246376,90.1086378 77.8054948,90.3248361 C77.7876282,90.5266211 77.6339995,90.6778906 77.4536537,90.6800583 L77.414639,90.6782047 L70.7269344,89.9629947 C70.5302135,89.9419566 70.386258,89.7496385 70.4054008,89.5334403 C70.4232674,89.3316553 70.5768961,89.1803858 70.7572419,89.1782181 L70.7962566,89.1800717 Z" id="Stroke-37" fill="#393C68" fill-rule="nonzero"></path>
            <path d="M79.3936865,89.9939863 L85.9664305,90.4043257 C86.1637625,90.4166452 86.3146445,90.6024399 86.3034348,90.8193096 C86.2929725,91.0217214 86.1450081,91.1796639 85.9648878,91.189807 L85.9258368,91.1896807 L79.3530928,90.7793413 C79.1557608,90.7670218 79.0048789,90.5812271 79.0160885,90.3643573 C79.0265509,90.1619455 79.1745153,90.0040031 79.3546355,89.99386 L79.3936865,89.9939863 Z" id="Stroke-39" fill="#393C68" fill-rule="nonzero"></path>
            <path d="M68.0208362,89.6058655 C67.4110455,88.7428894 66.3649046,88.3968201 65.5186951,89.2037659 C64.1551631,90.5034485 64.7399624,96.0257263 67.9998435,96.651947 C69.2659089,96.6145935 68.9730094,90.9527893 68.0208362,89.6058655" id="Fill-41" fill="#FFC999"></path>
            <path d="M66.3479603,90.0161538 C66.3927608,89.9193455 66.5004874,89.8807806 66.5885743,89.9300169 L66.6445826,89.9637086 C66.6778213,89.9848066 66.7185364,90.012273 66.7650389,90.0460639 C66.8928717,90.1389531 67.0205672,90.2488738 67.14026,90.3759922 C67.6202572,90.8857674 67.8367895,91.5148141 67.6222237,92.2378445 C67.5438382,92.5015425 67.4184609,92.6374991 67.2004022,92.7545216 L67.1012847,92.8041252 C66.9087275,92.8971677 66.8592617,92.9466005 66.8289727,93.1151002 C66.7696873,93.445983 66.8932787,93.7074389 67.150191,93.9208546 C67.2288236,93.9861743 67.3139865,94.0412961 67.3991208,94.0859879 L67.453201,94.1130235 C67.476848,94.1242022 67.4950911,94.1318861 67.5065154,94.1361369 C67.6001211,94.1709664 67.6503123,94.2825968 67.6186206,94.3854704 C67.5869288,94.488344 67.4853552,94.5435046 67.3917495,94.5086751 C67.2734309,94.4646502 67.1046492,94.3760471 66.934396,94.2346187 C66.578056,93.938609 66.3885155,93.5376387 66.4778598,93.0389923 C66.5320274,92.7376532 66.6511784,92.6021015 66.9015602,92.4719442 L66.9981452,92.4242481 C67.1679602,92.3410029 67.2341339,92.2768672 67.2820119,92.1157998 C67.4481564,91.5559366 67.282129,91.0736116 66.8915684,90.6588214 C66.7888106,90.5496887 66.6781662,90.4544456 66.5676591,90.374146 L66.497113,90.3248429 C66.4661251,90.3041189 66.4419521,90.289319 66.4263371,90.280591 C66.3382502,90.2313548 66.3031597,90.1129622 66.3479603,90.0161538 Z" id="Stroke-43" fill="#DD936F" fill-rule="nonzero"></path>
            <path d="M71.770607,87.1936432 C71.8503341,86.9031928 72.12921,86.738767 72.3934937,86.826388 C73.5398694,87.2064587 75.1753181,87.5217267 76.4041409,87.5066869 C76.6801714,87.5033085 76.9064303,87.7464918 76.909536,88.0498521 C76.9125784,88.3532124 76.6913034,88.6018732 76.4152729,88.6052516 C75.0719502,88.6216928 73.340667,88.2879506 72.1047762,87.8782019 C71.8404925,87.790581 71.6908798,87.4840936 71.770607,87.1936432 Z" id="Stroke-45" fill="#253368" fill-rule="nonzero"></path>
            <path d="M80.2905112,87.5333016 C81.1722173,87.3414648 82.1137187,87.3434652 83.0128005,87.6749292 C83.4727593,87.8445019 83.8989138,88.0959707 84.2818217,88.4369348 C84.4963033,88.6279221 84.5292975,88.9738347 84.3555163,89.2095521 C84.181735,89.4452696 83.8669858,89.4815305 83.6525042,89.2905432 C83.364987,89.0345207 83.0445495,88.8454342 82.6948713,88.7165186 C81.9849072,88.4547766 81.2103167,88.4531308 80.4846486,88.6110177 C80.3071865,88.6496289 80.1811204,88.6870529 80.1202992,88.709131 C79.8581797,88.8042803 79.575505,88.6478856 79.4889277,88.3598136 C79.4023503,88.0717417 79.5446554,87.7610794 79.806775,87.6659301 L79.8927711,87.6369233 C79.9909992,87.6058448 80.1253369,87.5692393 80.2905112,87.5333016 Z" id="Stroke-47" fill="#253368" fill-rule="nonzero"></path>
            <path d="M72.9884079,91.1629821 C73.1260882,91.1736773 73.2298111,91.30501 73.2200795,91.4563221 C73.1853328,91.996581 73.4950873,92.4470991 73.8926521,92.4780498 C74.2898936,92.5090039 74.654593,92.1107966 74.6893196,91.5708508 C74.6990512,91.4195388 74.8185522,91.3055463 74.9562325,91.3162414 C75.0939128,91.3269366 75.1976357,91.4582693 75.1879041,91.6095813 C75.1346916,92.4369553 74.5460676,93.079661 73.8573179,93.0259919 C73.168256,92.972348 72.6682706,92.2451511 72.721495,91.4175915 C72.7312266,91.2662795 72.8507276,91.152287 72.9884079,91.1629821 Z" id="Stroke-49" fill="#755654" fill-rule="nonzero"></path>
            <path d="M80.627186,91.7586608 C80.7648663,91.769356 80.8685892,91.9006887 80.8588576,92.0520008 C80.8241003,92.5924243 81.133513,93.0427893 81.5309142,93.0737273 C81.9284837,93.1046784 82.292857,92.7066981 82.3275979,92.1665295 C82.3373295,92.0152175 82.4568305,91.901225 82.5945108,91.9119201 C82.7321911,91.9226153 82.835914,92.053948 82.8261824,92.2052601 C82.7729581,93.0328166 82.1847114,93.6753188 81.4955962,93.6216707 C80.8065882,93.5680309 80.3070429,92.840919 80.3602731,92.0132702 C80.3691938,91.8745675 80.4703512,91.7672236 80.5931977,91.7585341 L80.627186,91.7586608 Z" id="Stroke-51" fill="#755654" fill-rule="nonzero"></path>
            <path d="M86.1681575,162.423303 L86.1681575,162.423303 C82.5483999,162.16842 79.7643555,158.804407 79.8758172,154.819666 L80.8149949,121.262476 C80.9494487,116.45376 84.6811678,112.723901 89.0496684,113.031519 C93.418169,113.339685 96.6855475,117.56283 96.2606934,122.350671 L93.2922122,155.765039 C92.9398332,159.732751 89.7884149,162.678186 86.1681575,162.423303" id="Fill-53" fill="#597EF7"></path>
            <path d="M85.8528657,186.471222 L78.5348775,194.565399 L67.8390486,189.616058 C67.8390486,189.616058 59.6758505,199.154938 56.720365,190.803131 C53.7648794,182.451324 57.5645752,167.397308 57.5645752,167.397308 L85.4210139,167.603302 C85.4210139,167.603302 88.6673996,180.697357 85.8528657,186.471222" id="Fill-55" fill="#ADC6FF"></path>
            <path d="M121.621339,149.54068 L121.684817,160.544037 L86.1115269,162.628693 C82.3018345,162.851715 79.0954351,159.531647 79.0713022,155.339813 C79.0469517,151.14743 82.2148644,147.782867 86.0265561,147.953156 L121.621339,149.54068 Z" id="Fill-57" fill="#FFC999"></path>
            <path d="M87.8722447,147.720651 L121.444222,149.267526 C121.566342,149.273153 121.665061,149.374455 121.681318,149.504171 L121.683662,149.540202 L121.747161,160.54301 C121.747981,160.688655 121.645226,160.809697 121.512962,160.818865 L116.930473,161.129131 C113.939179,161.328581 110.869861,161.528031 107.846709,161.717715 L105.673815,161.852826 L101.520255,162.103316 C91.8675259,162.672058 85.7937752,162.927601 84.7371643,162.748132 C84.6007599,162.724964 84.5072722,162.584656 84.5283536,162.434746 C84.549435,162.284836 84.6771024,162.182093 84.8135068,162.205261 L84.8836829,162.215457 C86.1406669,162.372711 92.8129221,162.076295 103.046662,161.462429 L106.311419,161.263252 L109.332774,161.073699 C110.850005,160.977386 112.373616,160.879036 113.888079,160.779873 L121.245718,160.286499 L121.185405,149.805176 L87.8513076,148.269485 C87.7248968,148.263661 87.6243644,148.15561 87.6129402,148.020905 L87.6120813,147.983563 C87.6173811,147.844637 87.7156976,147.734151 87.838267,147.721595 L87.8722447,147.720651 Z" id="Stroke-59" fill="#597EF7" fill-rule="nonzero"></path>
            <path d="M116.382874,150.303516 C116.610709,150.302637 116.800078,150.405232 116.831274,150.539175 L116.835771,150.576427 L116.93569,160.165844 C116.937261,160.31753 116.737055,160.441278 116.488507,160.442249 C116.260671,160.443127 116.071302,160.340532 116.040106,160.20659 L116.035609,160.169337 L115.93569,150.57992 C115.934119,150.428234 116.134326,150.304486 116.382874,150.303516 Z" id="Stroke-61" fill="#597EF7" fill-rule="nonzero"></path>
            <path d="M119.036776,156.890683 C119.466628,156.887952 119.817508,157.268079 119.82002,157.740491 C119.822506,158.212903 119.476125,158.597974 119.046772,158.60127 C118.61692,158.604565 118.26604,158.223889 118.263541,157.751477 C118.260542,157.279065 118.606923,156.893445 119.036776,156.890683" id="Fill-63" fill="#FFFFFF"></path>
            <path d="M85.8335723,158.989032 C85.8335723,158.989032 93.2685204,129.627521 91.3221884,113.981342 C87.6974326,112.132892 86.0045136,111.196307 79.8836145,109.443439 C78.574064,109.068805 75.6710604,111.621478 74.0721092,111.537433 C71.7079207,111.413837 68.0786664,108.111346 65.850931,108.52608 C57.3183597,110.114703 52.6224715,113.166156 52.6224715,113.166156 L54.6447774,137.645343 C54.8971907,139.403705 55.0281458,151.012408 55.6294394,158.679767 C56.0333008,163.827411 55.4714936,166.258136 59.7105386,166.258136 C67.5918335,166.258136 80.2589857,167.494098 85.4187147,165.844501 C87.6489492,165.131488 86.8157352,161.852069 85.8335723,158.989032" id="Fill-65" fill="#597EF7"></path>
            <polygon id="Fill-67" fill="#597EF7" points="80.2907748 107.719135 82.5599959 110.893085 79.2191426 116.456012 74.7626722 110.939777"></polygon>
            <polygon id="Fill-69" fill="#597EF7" points="74.3616599 111.093091 67.4390359 105.687268 64.7064739 109.291333 69.1879357 116.042432"></polygon>
            <path d="M65.3624746,109.273582 C65.4619306,109.200124 65.5935267,109.219862 65.6718716,109.314391 L65.6936921,109.344975 L69.4271702,115.450562 L74.4235528,110.943088 C74.505938,110.868762 74.6215583,110.864409 74.7076205,110.927726 L74.7383857,110.954638 L79.6446632,116.018921 L82.107526,110.361369 C82.1592371,110.242568 82.2817114,110.186099 82.3928892,110.223781 L82.4258216,110.237942 C82.5339194,110.294773 82.5853015,110.429374 82.5510139,110.551559 L82.5381286,110.587752 L79.9345222,116.569259 C79.8698005,116.71795 79.7002542,116.762538 79.5821039,116.670847 L79.5558219,116.647254 L74.5640737,111.494751 L69.527205,116.039176 C69.4274342,116.129186 69.2828815,116.114693 69.198981,116.012716 L69.1776821,115.982747 L65.2975139,109.637594 C65.2239891,109.51736 65.253073,109.354387 65.3624746,109.273582 Z" id="Stroke-71" fill="#1D39C4" fill-rule="nonzero"></path>
            <path d="M74.5582429,110.884228 C74.6897309,110.874065 74.8038194,110.982972 74.8130667,111.127479 L74.8757464,112.175183 L74.9379104,113.288833 C75.0314829,115.014037 75.1250501,116.949497 75.2123774,119.050371 C75.5015722,126.007667 75.6546938,133.042402 75.6015064,139.650202 L75.5929682,140.548572 C75.5083593,148.257303 75.1376686,154.775892 74.4278485,159.733595 L74.3708067,160.119507 L74.4424881,160.189077 C75.1028585,160.849235 75.4520048,161.674118 75.5286069,162.618608 L75.537056,162.742477 C75.5902484,163.701189 75.3715339,164.715885 74.9759151,165.720997 C74.8523433,166.034945 74.7199778,166.325091 74.5874192,166.584855 C74.5524746,166.653333 74.5193311,166.716099 74.4884406,166.772803 L74.4069504,166.917202 C74.3344621,167.038193 74.1864523,167.071695 74.0763612,166.992029 C73.9662701,166.912364 73.9357869,166.7497 74.0082751,166.628709 L74.0621032,166.534364 C74.0843339,166.494065 74.110627,166.445099 74.1403057,166.388015 L74.171088,166.328246 C74.2959907,166.083485 74.4210865,165.809273 74.5378119,165.51272 C74.9062317,164.57671 75.1085296,163.638176 75.0606048,162.774406 C75.008615,161.837371 74.6630711,161.046729 73.9641577,160.429579 C73.8968956,160.370185 73.8640394,160.275518 73.8782242,160.181982 C74.6347027,155.193718 75.0282499,148.506804 75.1156667,140.542244 C75.1876354,133.985161 75.0504002,126.976621 74.7740748,120.022251 L74.7355385,119.074311 C74.6541307,117.115844 74.5672977,115.301381 74.4801073,113.667409 L74.3803082,111.880664 L74.3369066,111.164282 C74.3276593,111.019775 74.4267549,110.894391 74.5582429,110.884228 Z" id="Stroke-73" fill="#1D39C4" fill-rule="nonzero"></path>
            <path d="M90.9785885,121.76184 C91.0987929,121.775318 91.1890213,121.884625 91.1929198,122.013755 L91.1891283,122.078076 L91.0293893,123.741146 C90.9180529,124.879377 90.7926622,126.127642 90.6545648,127.462675 L90.5779869,128.19934 C90.1263265,132.52309 89.6369489,136.846904 89.1244903,140.917765 L89.0216952,141.728489 C88.1504813,148.549876 87.2997906,153.941916 86.4991232,157.374102 C86.369364,157.930335 86.2413058,158.432973 86.11496,158.880581 L86.0887847,158.970703 L86.116794,159.037179 C87.3227926,161.943799 87.2700742,163.993553 86.4139537,165.31003 L86.3664622,165.381111 C86.1116444,165.752421 85.8522841,165.97514 85.6679983,166.07825 C85.5505324,166.143974 85.4068278,166.0926 85.3470253,165.963504 C85.2872228,165.834407 85.3339683,165.676475 85.4514343,165.610751 C85.4768116,165.596552 85.531283,165.55909 85.6053302,165.495504 C85.7338706,165.385122 85.8635695,165.2427 85.9853657,165.065224 C86.7874902,163.896403 86.8447183,161.98017 85.6174834,159.100279 C85.5919479,159.040356 85.5879632,158.97204 85.606328,158.909025 C85.7470863,158.426036 85.8906443,157.870087 86.0367415,157.243819 L86.1151139,156.902265 C86.8874424,153.481585 87.7085929,148.235692 88.5489929,141.65557 C89.0982081,137.355352 89.6224168,132.747465 90.1037655,128.139507 L90.3257074,125.983754 C90.3958367,125.292232 90.4620416,124.629032 90.5241031,123.997932 L90.7169291,121.996162 C90.7291927,121.864056 90.8286522,121.764894 90.9461488,121.76061 L90.9785885,121.76184 Z" id="Stroke-75" fill="#1D39C4" fill-rule="nonzero"></path>
            <path d="M90.5841045,124.647703 L82.1405026,124.441094 C82.0156595,124.438106 81.909779,124.541331 81.8976518,124.67792 L81.1469095,133.133548 C81.1403443,133.207492 81.16262,133.281027 81.2082044,133.33589 L85.1488519,138.078688 C85.2326149,138.179502 85.3727365,138.192847 85.4710305,138.109371 L89.5991136,134.603634 C89.6490588,134.561218 89.681682,134.498786 89.6898441,134.43 L90.8154578,124.943855 C90.8338124,124.789171 90.7260094,124.651174 90.5841045,124.647703 Z M82.3510676,124.970947 L90.30767,125.165405 L89.2290402,134.254761 L85.3533705,137.546265 L81.6323143,133.067871 L82.3510676,124.970947 Z" id="Stroke-77" fill="#1D39C4" fill-rule="nonzero"></path>
            <path d="M76.2130744,116.737482 C76.2590586,117.224176 76.5954431,117.584528 76.9643165,117.54223 C77.3336898,117.499933 77.5955999,117.071466 77.5491158,116.584772 C77.5031316,116.098077 77.1667471,115.737726 76.7978737,115.780023 C76.4290003,115.821771 76.1670902,116.250787 76.2130744,116.737482" id="Fill-79" fill="#FFFFFF"></path>
            <path d="M76.5884456,125.604877 C76.6344298,126.091571 76.9708143,126.451923 77.3396877,126.409625 C77.7090609,126.367328 77.970971,125.938861 77.924487,125.452167 C77.8785028,124.965472 77.5421182,124.605121 77.1732448,124.647418 C76.8043714,124.689716 76.5424613,125.118182 76.5884456,125.604877" id="Fill-81" fill="#FFFFFF"></path>
            <path d="M76.9635668,135.503558 C77.009551,135.990253 77.3464354,136.350604 77.7153088,136.308307 C78.0841822,136.26601 78.3460923,135.837543 78.300108,135.350848 C78.2541238,134.864154 77.9172395,134.503802 77.5483661,134.5461 C77.1794927,134.587848 76.9175826,135.016864 76.9635668,135.503558" id="Fill-83" fill="#FFFFFF"></path>
            <path d="M76.7883269,145.371973 C76.6918601,145.849878 76.9072861,146.308557 77.2696617,146.396997 C77.6315375,146.484888 78.0034099,146.16958 78.0998768,145.692224 C78.1963437,145.214319 77.9809176,144.75509 77.6190418,144.6672 C77.2566662,144.57876 76.8847938,144.894067 76.7883269,145.371973" id="Fill-85" fill="#FFFFFF"></path>
            <path d="M75.4967703,159.825861 C75.3493209,160.287286 75.5132646,160.771234 75.8636443,160.906366 C76.2135242,161.041498 76.6168858,160.776727 76.7643352,160.315302 C76.9117846,159.853326 76.7478408,159.369928 76.3979609,159.234796 C76.048081,159.099664 75.6442196,159.364435 75.4967703,159.825861" id="Fill-87" fill="#FFFFFF"></path>
            <path d="M47.1744914,160.411102 L47.1744914,160.411102 C43.6452028,159.4888 41.4174674,155.657318 42.1387199,151.750031 L48.2111356,118.847076 C49.0813369,114.132294 53.331878,111.147308 57.5904163,112.260223 C61.8489546,113.373138 64.4225713,118.140656 63.2689673,122.78183 L55.2182305,155.167877 C54.2620587,159.013641 50.7037801,161.332855 47.1744914,160.411102" id="Fill-89" fill="#FFC999"></path>
            <path d="M57.92935,146.150629 L63.6498865,122.441034 C64.8034906,117.800958 62.2303737,113.032343 57.9718354,111.919977 C53.7127973,110.807062 48.8544648,114.008478 47.9842635,118.72326 L43.4808092,142.850885 C43.4808092,142.850885 57.7829003,145.989679 57.92935,146.150629" id="Fill-91" fill="#597EF7"></path>
            <path d="M101.198399,300.933929 C101.198399,300.933929 104.816657,306.32547 112.908379,303.445404 C116.191752,302.277008 120.279849,304.675873 118.256044,307.776215 C117.01447,309.678497 113.766085,311.456085 110.234797,312.725006 C104.941614,314.627289 104.847146,311.801056 102.192557,313.423737 C100.653586,314.364716 96.2301039,316.087372 95.4293787,314.901398 C94.0308587,312.829926 93.8479215,312.232819 93.3645874,308.187103 C91.5936952,293.377533 95.9991831,288.499603 101.198399,300.933929" id="Fill-93" fill="#253368"></path>
            <path d="M90.7459362,303.004578 L76.7617361,243.023621 C75.5891385,238.166016 78.3921764,233.229309 82.8776369,232.253174 C87.2086503,231.309998 91.4047101,234.44165 92.2049354,239.213562 L102.453418,300.338196 C102.453418,300.338196 98.0174404,304.230652 90.7459362,303.004578" id="Fill-95" fill="#ADC6FF"></path>
            <path d="M60.6993967,132.067434 C60.729589,131.926422 60.8580791,131.839008 60.9863874,131.87219 C61.1040034,131.902606 61.1806394,132.023798 61.1693395,132.152401 L61.1640422,132.187595 L58.1615728,146.210544 C58.1342511,146.33815 58.0262883,146.42215 57.9105196,146.411983 L57.8788075,146.406837 L43.9935734,143.107094 C43.8647383,143.076477 43.7828806,142.936874 43.8107392,142.795283 C43.8362763,142.665492 43.945141,142.579082 44.0623437,142.589165 L44.0944584,142.594347 L57.7505114,145.839478 L60.6993967,132.067434 Z" id="Stroke-97" fill="#1D39C4" fill-rule="nonzero"></path>
            <path d="M118.619419,164.500159 L85.3233474,164.843578 C84.057282,164.856665 83.1420961,163.51908 83.5049716,162.185889 L90.5245622,136.395483 C90.760981,135.528113 91.483733,134.930457 92.3079501,134.922217 L125.604022,134.578248 C126.870087,134.565161 127.785273,135.903296 127.422398,137.236487 L120.402807,163.026343 C120.166388,163.893713 119.443636,164.49137 118.619419,164.500159" id="Fill-99" fill="#ADC6FF"></path>
            <path d="M119.557597,164.500159 L86.2615254,164.843578 C84.9959598,164.856665 84.0802741,163.51908 84.4431495,162.185889 L91.4627402,136.395483 C91.699159,135.528113 92.421911,134.930457 93.2461281,134.922217 L126.5422,134.578248 C127.808265,134.565161 128.723451,135.903296 128.360576,137.236487 L121.340985,163.026343 C121.104566,163.893713 120.381814,164.49137 119.557597,164.500159" id="Fill-101" fill="#12183F"></path>
            <path d="M84.2101295,163.858832 C84.2101295,163.858832 76.7761811,162.459174 75.8155108,158.70954 C74.9453095,155.314215 77.2565162,153.57453 77.2565162,153.57453 C77.2565162,153.57453 81.8474405,152.46601 85.4741957,152.345709 C87.8503801,152.266058 92.3473366,151.376166 92.7112117,152.701666 C93.185049,154.430914 88.4521735,154.516608 88.0163231,155.739935 C87.1331263,158.218451 94.5925659,158.945197 95.7446705,159.776862 C97.9958978,161.40174 93.1155729,165.612799 84.2101295,163.858832" id="Fill-103" fill="#FFC999"></path>
            <path d="M88.2411578,159.63012 C88.2818293,159.531134 88.3878146,159.487126 88.4778824,159.531825 L88.6057971,159.592253 L88.7420419,159.653703 C88.7902407,159.675039 88.8411957,159.697197 88.8948241,159.720086 L88.9772613,159.754957 C89.3801051,159.923863 89.8332877,160.092895 90.326414,160.250692 C92.0323382,160.796577 93.7687163,161.073622 95.4003081,160.93769 C95.4988504,160.929481 95.5847905,161.010619 95.5922607,161.118918 C95.5997308,161.227217 95.5259023,161.321666 95.42736,161.329876 C93.7471848,161.469855 91.9701654,161.186326 90.2263671,160.628321 C89.7953737,160.490406 89.39416,160.344021 89.0291527,160.196345 L88.8496961,160.122433 C88.7342269,160.074019 88.6293468,160.028325 88.5357108,159.986081 L88.3305975,159.890282 C88.2405297,159.845584 88.2004862,159.729105 88.2411578,159.63012 Z" id="Stroke-105" fill="#DD936F" fill-rule="nonzero"></path>
            <path d="M86.9946143,161.527679 C87.0261208,161.424737 87.1275949,161.369355 87.2212631,161.403981 C89.8844204,162.388459 92.1744899,162.679139 93.8726899,162.584112 L94.0090804,162.575568 C94.1207309,162.567818 94.1959645,162.560172 94.2328914,162.555286 C94.3310078,162.542303 94.4201237,162.619192 94.4319375,162.727022 C94.4437512,162.834853 94.3737891,162.932793 94.2756727,162.945776 L94.181758,162.956013 C94.1410075,162.959845 94.0908897,162.963984 94.0316399,162.968097 C92.2766641,163.089921 89.8891327,162.805165 87.1071681,161.776768 C87.0134999,161.742142 86.9631078,161.630621 86.9946143,161.527679 Z" id="Stroke-107" fill="#DD936F" fill-rule="nonzero"></path>
            <path d="M85.4018962,162.824404 C85.4395815,162.724002 85.5441914,162.676184 85.635549,162.7176 L85.747774,162.764162 C85.8449542,162.802704 85.9620698,162.84583 86.0991256,162.892412 C86.4928204,163.02622 86.9663316,163.160307 87.5197046,163.285645 C88.4878305,163.504922 89.593608,163.673179 90.837155,163.770005 C90.935733,163.77768 91.0099845,163.871728 91.0030004,163.980066 C90.9960164,164.088404 90.9104414,164.170007 90.8118635,164.162332 C89.5524711,164.064272 88.431013,163.89363 87.4474671,163.670859 C86.9454748,163.55716 86.5067355,163.43608 86.1312375,163.313985 L85.9933902,163.268164 C85.9079716,163.239133 85.829753,163.211299 85.7587338,163.184907 L85.6262946,163.13412 C85.5638996,163.109374 85.5214952,163.091354 85.4990784,163.081191 C85.4077208,163.039775 85.3642108,162.924807 85.4018962,162.824404 Z" id="Stroke-109" fill="#DD936F" fill-rule="nonzero"></path>
            <path d="M80.6378557,157.521313 L80.6378557,157.521313 C80.5298927,159.718579 78.9049504,161.456616 76.9036374,161.515942 L48.8302731,162.348706 C44.9086192,162.42616 41.7162149,158.985791 41.8216787,154.795056 C41.9266427,150.604321 45.2869893,147.362805 49.1991465,147.678662 L77.4644449,153.132825 C79.3802873,153.502515 80.7428196,155.38667 80.6378557,157.521313" id="Fill-111" fill="#FFC999"></path>
            <path d="M86.7099715,247.160468 L86.7099715,247.160468 C90.7400882,245.458136 92.823873,240.559332 91.4288518,236.06922 L75.8721914,186.012213 C74.0663112,180.200995 68.2293147,177.201727 63.0141047,179.404486 C57.7988948,181.607794 55.2922551,188.131476 57.4924999,193.775702 L76.4464943,242.397894 C78.1469106,246.758917 82.6798548,248.862799 86.7099715,247.160468" id="Fill-113" fill="#ADC6FF"></path>
            <polygon id="Fill-115" fill="#ADC6FF" points="86.1874508 170.286218 57.4798043 170.286218 58.107089 165.958704 85.6876224 165.818628"></polygon>
            <path d="M55.8205456,114.032778 L55.9192938,114.058873 C55.960941,114.070823 56.0111033,114.086121 56.0691319,114.105058 C56.2595227,114.167189 56.4708783,114.248522 56.6980015,114.351418 C57.3452582,114.644653 57.9921139,115.052451 58.5963367,115.594145 C60.3222057,117.141412 61.3582231,119.448554 61.3582231,122.641809 C61.3582231,122.786673 61.2513677,122.904108 61.119555,122.904108 C60.9877423,122.904108 60.8808869,122.786673 60.8808869,122.641809 C60.8808869,119.609181 59.9113427,117.450071 58.294609,116.000645 C57.7289208,115.493498 57.1223005,115.111065 56.5160812,114.836423 C56.3468065,114.759734 56.1874961,114.696119 56.0408373,114.644467 L55.9332573,114.607953 C55.8299562,114.574242 55.7578636,114.554369 55.7222358,114.546128 C55.5932489,114.516293 55.5106918,114.377189 55.5378393,114.235431 C55.5627245,114.105487 55.6711539,114.018419 55.7884053,114.027791 L55.8205456,114.032778 Z" id="Stroke-117" fill="#1D39C4" fill-rule="nonzero"></path>
            <path d="M122.052091,149.967389 C122.052091,149.967389 126.342118,147.962384 127.347273,148.52818 C128.904739,149.404889 126.583036,152.394818 126.583036,152.394818 C126.583036,152.394818 127.615181,153.990033 126.080208,155.35838 C126.060215,157.312848 124.913109,157.765485 124.913109,157.765485 C124.913109,157.765485 125.359955,159.446942 123.702524,159.950665 C122.044593,160.454388 119.22956,158.90257 120.45264,156.858014 C119.717892,155.119977 121.118911,154.303143 121.118911,154.303143 C121.118911,154.303143 120.68456,152.762311 122.064087,152.003156 C121.398315,151.10722 121.606244,150.181622 122.052091,149.967389" id="Fill-119" fill="#FFC999"></path>
            <path d="M125.843406,151.150317 C125.941029,151.133428 126.032625,151.206712 126.047992,151.314001 C126.061822,151.410561 126.009193,151.501756 125.927362,151.531341 L125.899054,151.538843 L122.091861,152.197474 C121.994238,152.214362 121.902642,152.141078 121.887275,152.03379 C121.873444,151.93723 121.926074,151.846035 122.007905,151.81645 L122.036212,151.808947 L125.843406,151.150317 Z" id="Stroke-121" fill="#DD936F" fill-rule="nonzero"></path>
            <path d="M121.136379,154.107449 L124.459738,154.579559 C124.55811,154.593533 124.630192,154.722739 124.620738,154.868149 C124.61223,154.999017 124.540577,155.098408 124.454618,155.106791 L124.425502,155.106132 L121.102143,154.634022 C121.003771,154.620048 120.931689,154.490842 120.941143,154.345433 C120.949652,154.214564 121.021305,154.115173 121.107263,154.106791 L121.136379,154.107449 Z" id="Stroke-123" fill="#DD936F" fill-rule="nonzero"></path>
            <path d="M120.486567,156.665046 L123.577506,157.322029 C123.674534,157.342652 123.737977,157.445814 123.719212,157.552448 C123.702323,157.648418 123.624601,157.714493 123.538493,157.711714 L123.509551,157.708184 L120.418612,157.051201 C120.321585,157.030578 120.258142,156.927416 120.276907,156.820782 C120.293796,156.724812 120.371518,156.658737 120.457626,156.661516 L120.486567,156.665046 Z" id="Stroke-125" fill="#DD936F" fill-rule="nonzero"></path>
            <path d="M78.3720334,168.350427 C78.4180176,168.837122 78.7544021,169.197473 79.1232755,169.155176 C79.4926487,169.112878 79.754059,168.684412 79.7080748,168.197717 C79.6620906,167.711023 79.325706,167.350671 78.9563328,167.392969 C78.5879592,167.434717 78.3260491,167.863733 78.3720334,168.350427" id="Fill-127" fill="#FFFFFF"></path>
            <path d="M86.1098275,165.511835 C86.2086525,165.511835 86.2887661,165.735692 86.2887661,166.011835 C86.2887661,166.260363 86.2238741,166.46654 86.1388523,166.505291 L86.1098275,166.511835 L57.9020094,166.511835 C57.8031843,166.511835 57.7230708,166.287977 57.7230708,166.011835 C57.7230708,165.763307 57.7879628,165.557129 57.8729846,165.518379 L57.9020094,165.511835 L86.1098275,165.511835 Z" id="Stroke-129" fill="#597EF7" fill-rule="nonzero"></path>
            <path d="M85.187794,169.687738 C85.286619,169.687738 85.3667325,169.911596 85.3667325,170.187738 C85.3667325,170.436266 85.3018406,170.642444 85.2168187,170.681194 L85.187794,170.687738 L57.9796327,170.687738 C57.8808077,170.687738 57.8006942,170.46388 57.8006942,170.187738 C57.8006942,169.93921 57.8655861,169.733032 57.950608,169.694282 L57.9796327,169.687738 L85.187794,169.687738 Z" id="Stroke-131" fill="#597EF7" fill-rule="nonzero"></path>
            <path d="M76.8724187,165.821095 C76.9612506,165.816469 77.038182,165.883651 77.0562738,165.976215 L77.0600608,166.007945 L77.2458199,170.098755 L77.2768715,170.185335 L77.3260342,170.330438 L77.3895894,170.527283 C77.4441128,170.700377 77.5024393,170.896138 77.5638303,171.114745 C77.8086545,171.986538 78.0531898,173.043315 78.2812255,174.288984 C79.2701023,179.690825 79.639702,186.705204 79.0295801,195.419074 C79.0219979,195.527363 78.935974,195.608394 78.8374402,195.600061 C78.7389065,195.591728 78.6651756,195.497187 78.6727578,195.388898 L78.7276896,194.567539 C79.2564183,186.269254 78.8815087,179.562206 77.9303784,174.366559 C77.7047173,173.133861 77.4631488,172.089905 77.2218694,171.230735 L77.1512599,170.984715 C77.1167549,170.867169 77.0834851,170.75781 77.0516096,170.656601 L76.9727221,170.413978 L76.9038656,170.218339 L76.8900649,170.151833 L76.7026292,166.027565 C76.6976994,165.919091 76.7737167,165.826763 76.8724187,165.821095 Z" id="Stroke-133" fill="#597EF7" fill-rule="nonzero"></path>
            <path d="M80.3546709,169.487709 C80.4503604,169.460568 80.5479524,169.523817 80.5726487,169.628981 L80.6446833,169.947187 L80.7669652,170.512565 C80.788628,170.615075 80.8108918,170.721627 80.8336966,170.832068 C81.0290867,171.778321 81.2244493,172.81581 81.4067931,173.912083 C81.7499014,175.974892 82.0061431,177.999745 82.1397376,179.897908 C82.3756345,183.249625 82.2129197,185.948881 81.550525,187.773158 L81.50236,187.901972 L81.4807278,187.943318 C80.7280975,189.046427 80.0241478,189.760625 79.3859171,190.161424 C78.9894982,190.41037 78.6949971,190.496667 78.5230315,190.496667 C78.4242065,190.496667 78.344093,190.408622 78.344093,190.300012 C78.344093,190.191402 78.4242065,190.103357 78.5230315,190.103357 C78.5427761,190.103357 78.5954579,190.095888 78.6792683,190.071329 C78.8291436,190.027411 79.0061435,189.946924 79.2083646,189.819932 C79.7757939,189.463595 80.4117132,188.827955 81.100195,187.843743 L81.1804694,187.726685 L81.2190318,187.624915 C81.8401656,185.912246 82.0069836,183.349056 81.7988253,180.162511 L81.7829262,179.92824 C81.6503825,178.045007 81.3957897,176.033183 81.0547495,173.982808 C80.893517,173.013459 80.7220429,172.090263 80.5494501,171.236128 L80.4846932,170.91911 C80.4280395,170.644742 80.3747705,170.39465 80.3258261,170.17119 L80.2261263,169.727269 C80.20143,169.622105 80.2589813,169.514851 80.3546709,169.487709 Z" id="Stroke-135" fill="#597EF7" fill-rule="nonzero"></path>
        </g>
        <g id="2.通用组件/灰色版/对话弹窗" transform="translate(100.376839, 108.410105) scale(-1, 1) rotate(-360.000000) translate(-100.376839, -108.410105) translate(74.522977, 91.000000)">
            <g id="编组-4" transform="translate(-0.000000, 0.000000)">
                <g id="编组" transform="translate(-0.292277, 0.000000)" fill="#597EF7">
                    <rect id="矩形" x="0" y="-1.0125234e-13" width="52" height="30" rx="15"></rect>
                    <path d="M7.18487222,26 L7.18487222,30.4182115 C7.18487222,31.5379799 8.09262385,32.4457315 9.21239222,32.4457315 C9.71659809,32.4457315 10.2027145,32.2578644 10.5758802,31.9187907 L14.1848722,28.6395121 L14.1848722,28.6395121 L7.18487222,26 Z" id="路径-2"></path>
                </g>
                <g id="编组-3" transform="translate(13.838158, 12.000000)" fill="#FFFFFF">
                    <circle id="椭圆形" cx="2.51063105" cy="2.5" r="2.5"></circle>
                    <circle id="椭圆形备份" cx="12.510631" cy="2.5" r="2.5"></circle>
                    <circle id="椭圆形备份-2" cx="22.510631" cy="2.5" r="2.5"></circle>
                </g>
            </g>
        </g>
        <g id="编组-7备份" transform="translate(292.522977, 129.229320)">
            <g id="编组备份-6" transform="translate(0.000000, 43.770680)">
                <mask id="mask-8" fill="white">
                    <use xlink:href="#path-7"></use>
                </mask>
                <g id="Clip-61"></g>
                <polygon id="Fill-60" fill="#FFFFFF" mask="url(#mask-8)" points="-5 10 176 10 176 -4 -5 -4"></polygon>
            </g>
            <g id="编组备份-7" transform="translate(0.007258, 65.795080)">
                <mask id="mask-10" fill="white">
                    <use xlink:href="#path-9"></use>
                </mask>
                <g id="Clip-63"></g>
                <polygon id="Fill-62" fill="#FFC53D" mask="url(#mask-10)" points="-4.05559375 9.7552 69.6527813 9.7552 69.6527813 -3.874 -4.05559375 -3.874"></polygon>
            </g>
            <g id="编组备份-8" transform="translate(0.007258, 108.163800)">
                <mask id="mask-12" fill="white">
                    <use xlink:href="#path-11"></use>
                </mask>
                <g id="Clip-65"></g>
                <polygon id="Fill-64" fill="#E4EBF7" mask="url(#mask-12)" points="-4.05559375 10.24842 69.6527813 10.24842 69.6527813 -4.06224 -4.05559375 -4.06224"></polygon>
            </g>
            <g id="编组备份-9" transform="translate(62.000000, 4.770680)">
                <mask id="mask-14" fill="white">
                    <use xlink:href="#path-13"></use>
                </mask>
                <g id="Clip-67"></g>
                <polygon id="Fill-66" fill="#E4EBF7" mask="url(#mask-14)" points="-6 10 115 10 115 -4 -6 -4"></polygon>
            </g>
            <polygon id="Fill-68备份" fill="#FFC53D" points="63 29.77068 128 29.77068 128 23.77068 63 23.77068"></polygon>
            <g id="编组备份-10" transform="translate(62.000000, 23.770680)">
                <mask id="mask-16" fill="white">
                    <use xlink:href="#path-15"></use>
                </mask>
                <g id="Clip-71"></g>
                <polygon id="Fill-70" fill="#FFC53D" mask="url(#mask-16)" points="-1302 223 620 223 620 -362 -1302 -362"></polygon>
                <polygon id="Fill-72" fill="#FFC53D" mask="url(#mask-16)" points="-6 10 115 10 115 -4 -6 -4"></polygon>
            </g>
            <g id="编组备份-11" transform="translate(77.829920, 65.717080)">
                <mask id="mask-18" fill="white">
                    <use xlink:href="#path-17"></use>
                </mask>
                <g id="Clip-74"></g>
                <polygon id="Fill-73" fill="#E4EBF7" mask="url(#mask-18)" points="-4.0677 9.7552 23.8329 9.7552 23.8329 -3.874 -4.0677 -3.874"></polygon>
            </g>
            <g id="编组备份-12" transform="translate(0.007177, 86.502320)">
                <mask id="mask-20" fill="white">
                    <use xlink:href="#path-19"></use>
                </mask>
                <g id="Clip-76"></g>
                <polygon id="Fill-75" fill="#FFFFFF" mask="url(#mask-20)" points="-4.00502535 10.24842 101.315299 10.24842 101.315299 -4.06224 -4.00502535 -4.06224"></polygon>
            </g>
            <g id="编组备份-14" transform="translate(18.037385, 0.000000)">
                <mask id="mask-22" fill="white">
                    <use xlink:href="#path-21"></use>
                </mask>
                <g id="Clip-83"></g>
                <polygon id="Fill-82" fill="#597EF7" mask="url(#mask-22)" points="-0.15336 -0.365274 17.41824 -0.277914 17.25624 33.890766 -0.31536 33.814326"></polygon>
            </g>
            <g id="编组备份-15" transform="translate(1.108780, 4.044638)">
                <mask id="mask-24" fill="white">
                    <use xlink:href="#path-23"></use>
                </mask>
                <g id="Clip-85"></g>
                <polygon id="Fill-84" fill="#CCD7EE" mask="url(#mask-24)" points="-0.19383 -0.311671579 12.83373 -0.252966316 12.70815 25.69476 -0.31941 25.6360547"></polygon>
            </g>
            <g id="编组备份-16" transform="translate(38.689701, 4.215417)">
                <mask id="mask-26" fill="white">
                    <use xlink:href="#path-25"></use>
                </mask>
                <g id="Clip-87"></g>
                <polygon id="Fill-86" fill="#CCD7EE" mask="url(#mask-26)" points="-0.195935045 -0.310070526 12.831625 -0.246028421 12.706045 25.7016979 -0.321515045 25.6376558"></polygon>
            </g>
        </g>
    </g>
</svg>