<?xml version="1.0" encoding="UTF-8"?>
<svg width="180px" height="180px" viewBox="0 0 180 180" version="1.1" xmlns="http://www.w3.org/2000/svg" xmlns:xlink="http://www.w3.org/1999/xlink">
    <title>1.通用/空状态/审核通过</title>
    <defs>
        <polygon id="path-1" points="0 0 105 0 105 104.707283 0 104.707283"></polygon>
        <path d="M52.4682563,0 C23.4899583,0 0,23.4245111 0,52.3203855 L0,52.3203855 C0,81.2179448 23.4899583,104.642456 52.4682563,104.642456 L52.4682563,104.642456 C81.4448647,104.642456 104.935668,81.2179448 104.935668,52.3203855 L104.935668,52.3203855 C104.935668,23.4245111 81.4448647,0 52.4682563,0 Z" id="path-3"></path>
        <path d="M52.4682563,0 C23.4899583,0 0,23.4245111 0,52.3203855 L0,52.3203855 C0,81.2179448 23.4899583,104.642456 52.4682563,104.642456 L52.4682563,104.642456 C81.4448647,104.642456 104.935668,81.2179448 104.935668,52.3203855 L104.935668,52.3203855 C104.935668,23.4245111 81.4448647,0 52.4682563,0 Z" id="path-5"></path>
        <path d="M52.4682563,0 C23.4899583,0 0,23.4245111 0,52.3203855 L0,52.3203855 C0,81.2179448 23.4899583,104.642456 52.4682563,104.642456 L52.4682563,104.642456 C81.4448647,104.642456 104.935668,81.2179448 104.935668,52.3203855 L104.935668,52.3203855" id="path-7"></path>
        <path d="M52.4682563,0 C23.4899583,0 0,23.4245111 0,52.3203855 C0,81.2179448 23.4899583,104.642456 52.4682563,104.642456 C81.4448647,104.642456 104.935668,81.2179448 104.935668,52.3203855" id="path-9"></path>
        <polygon id="path-11" points="0 0 8 0 8 8 0 8"></polygon>
        <polygon id="path-13" points="0 4.35267832e-06 39 4.35267832e-06 39 39 0 39"></polygon>
    </defs>
    <g id="1.通用/空状态/审核通过" stroke="none" stroke-width="1" fill="none" fill-rule="evenodd">
        <g id="编组-2" transform="translate(18.000000, 32.000000)">
            <g id="编组-8">
                <g id="分组" transform="translate(15.000000, 11.000000)">
                    <g transform="translate(0.000000, 0.292717)">
                        <mask id="mask-2" fill="white">
                            <use xlink:href="#path-1"></use>
                        </mask>
                        <g id="Clip-2"></g>
                        <path d="M105.000676,52.353557 C105.000676,81.2682221 81.4944373,104.707283 52.5006762,104.707283 C23.5052246,104.707283 -0.000169054902,81.2682221 -0.000169054902,52.353557 C-0.000169054902,23.4388919 23.5052246,-0.000168583885 52.5006762,-0.000168583885 C81.4944373,-0.000168583885 105.000676,23.4388919 105.000676,52.353557" id="Fill-1" fill="#ADC6FF" mask="url(#mask-2)"></path>
                    </g>
                    <g id="文件">
                        <mask id="mask-4" fill="white">
                            <use xlink:href="#path-3"></use>
                        </mask>
                        <g id="Clip-4"></g>
                        <path d="M80.2982858,48.4686132 L80.2982858,111.426778 C80.2982858,112.350044 79.0962068,112.817574 78.4347677,112.171456 L74.5827085,107.713495 L70.5253751,111.758682 C69.7169495,112.564855 68.408432,112.573279 67.5898695,111.777215 L63.4032893,107.713495 L59.4295862,111.728356 C58.6186263,112.547165 57.2949034,112.555589 56.4738065,111.746046 L52.3801489,107.713495 L48.2493223,111.771318 C47.4349834,112.56991 46.1281554,112.56991 45.3155061,111.769633 L41.1914375,107.713495 L37.0791953,111.758682 C36.2614775,112.56317 34.946202,112.558116 34.1343974,111.748573 L30.0863563,107.713495 L26.3322881,112.223685 C25.6733832,112.877384 24.6368752,112.412381 24.6368752,111.484903 L24.6368752,48.4686132 L80.2982858,48.4686132 Z" id="Fill-3" fill="#F1F2F6" mask="url(#mask-4)"></path>
                        <mask id="mask-6" fill="white">
                            <use xlink:href="#path-5"></use>
                        </mask>
                        <g id="Clip-6"></g>
                        <path d="M24.5497815,48.2719979 L80.3852106,48.2719979 L80.3852106,45.0009734 C80.3852106,43.8502602 79.4492278,42.9177276 78.2952995,42.9177276 L26.6396925,42.9177276 C25.4849195,42.9177276 24.5497815,43.8502602 24.5497815,45.0009734 L24.5497815,48.2719979 Z" id="Fill-5" fill="#597EF7" mask="url(#mask-6)"></path>
                        <g id="分组" mask="url(#mask-6)">
                            <mask id="mask-8" fill="white">
                                <use xlink:href="#path-7"></use>
                            </mask>
                            <g id="Clip-8"></g>
                            <path d="M64.8651289,65.2219361 L73.2247732,65.2219361 C73.9943403,65.2219361 74.6177656,64.6002477 74.6177656,63.8328247 L74.6177656,55.4964719 C74.6177656,54.7298914 73.9943403,54.108203 73.2247732,54.108203 L64.8651289,54.108203 C64.0955618,54.108203 63.4721364,54.7298914 63.4721364,55.4964719 L63.4721364,63.8328247 C63.4721364,64.6002477 64.0955618,65.2219361 64.8651289,65.2219361" id="Fill-7" fill="#597EF7" mask="url(#mask-8)"></path>
                        </g>
                        <mask id="mask-10" fill="white">
                            <use xlink:href="#path-9"></use>
                        </mask>
                        <g id="Clip-10"></g>
                        <path d="M68.3478635,65.2219361 C68.7322246,65.2219361 69.0439373,64.9110919 69.0439373,64.5278016 L69.0439373,60.3596252 C69.0439373,59.9754925 68.7322246,59.6646483 68.3478635,59.6646483 L64.1688861,59.6646483 C63.7836802,59.6646483 63.4719675,59.9754925 63.4719675,60.3596252 L63.4719675,64.5278016 C63.4719675,64.9110919 63.7836802,65.2219361 64.1688861,65.2219361 L68.3478635,65.2219361 Z" id="Fill-9" fill="#ADC6FF" mask="url(#mask-10)"></path>
                        <path d="M30.541423,73.4887069 L74.0249202,73.4887069 C74.3045324,73.4887069 74.5300806,73.2629447 74.5300806,72.9841116 L74.5300806,71.2150796 C74.5300806,70.9362464 74.3045324,70.7104843 74.0249202,70.7104843 L30.541423,70.7104843 C30.2626556,70.7104843 30.0354179,70.9362464 30.0354179,71.2150796 L30.0354179,72.9841116 C30.0354179,73.2629447 30.2626556,73.4887069 30.541423,73.4887069" id="Fill-11" fill="#ADC6FF"></path>
                        <path d="M30.541423,81.755562 L74.0249202,81.755562 C74.3045324,81.755562 74.5300806,81.5297998 74.5300806,81.2509667 L74.5300806,79.4819347 C74.5300806,79.2031015 74.3045324,78.9773394 74.0249202,78.9773394 L30.541423,78.9773394 C30.2626556,78.9773394 30.0354179,79.2031015 30.0354179,79.4819347 L30.0354179,81.2509667 C30.0354179,81.5297998 30.2626556,81.755562 30.541423,81.755562" id="Fill-13" fill="#FF7A46"></path>
                        <path d="M30.541423,90.0224171 L74.0249202,90.0224171 C74.3045324,90.0224171 74.5300806,89.7966549 74.5300806,89.5178218 L74.5300806,87.7487898 C74.5300806,87.4699566 74.3045324,87.2441945 74.0249202,87.2441945 L30.541423,87.2441945 C30.2626556,87.2441945 30.0354179,87.4699566 30.0354179,87.7487898 L30.0354179,89.5178218 C30.0354179,89.7966549 30.2626556,90.0224171 30.541423,90.0224171" id="Fill-15" fill="#FFC53D"></path>
                    </g>
                </g>
                <path d="M137.182609,62 L124.817391,62 C123.267826,62 122,60.7321739 122,59.1826087 L122,46.8173913 C122,45.2678261 123.267826,44 124.817391,44 L137.182609,44 C138.732174,44 140,45.2678261 140,46.8173913 L140,59.1826087 C140,60.7321739 138.732174,62 137.182609,62" id="Fill-1备份" fill="#597EF7" opacity="0.163388207"></path>
                <g id="分组备份" transform="translate(12.000000, 43.000000)">
                    <mask id="mask-12" fill="white">
                        <use xlink:href="#path-11"></use>
                    </mask>
                    <g id="Clip-4"></g>
                    <path d="M6.74264407,8 L1.25728814,8 C0.565762712,8 0,7.43879798 0,6.75299647 L0,1.24701698 C0,0.561148225 0.565762712,-5.3793628e-05 1.25728814,-5.3793628e-05 L6.74264407,-5.3793628e-05 C7.43416949,-5.3793628e-05 8,0.561148225 8,1.24701698 L8,6.75299647 C8,7.43879798 7.43416949,8 6.74264407,8" id="Fill-3" fill="#FFC540" mask="url(#mask-12)"></path>
                </g>
                <path d="M137.257288,84 C136.565763,84 136,83.4388018 136,82.7530049 L136,77.2470624 C136,76.5611982 136.565763,76 137.257288,76 L142.742644,76 C143.434169,76 144,76.5611982 144,77.2470624 L144,82.7530049 C144,83.4388018 143.434169,84 142.742644,84 L137.257288,84 Z" id="Fill-5备份" fill="#FF7A46"></path>
                <path d="M4.85217391,31 C2.18347826,31 0,28.8165217 0,26.1478261 L0,4.85217391 C0,2.18347826 2.18347826,0 4.85217391,0 L26.1478261,0 C28.8165217,0 31,2.18347826 31,4.85217391 L31,26.1478261 C31,28.8165217 28.8165217,31 26.1478261,31 L4.85217391,31 Z" id="Fill-7备份" fill="#ADC6FF" opacity="0.497070312"></path>
                <g id="分组备份-2" transform="translate(92.000000, 11.000000)">
                    <mask id="mask-14" fill="white">
                        <use xlink:href="#path-13"></use>
                    </mask>
                    <g id="Clip-2"></g>
                    <path d="M19.5,0 C8.73042857,0 0,8.73042857 0,19.5 C0,30.2695279 8.73042857,39 19.5,39 C30.2695714,39 39,30.2695279 39,19.5 C39,8.73042857 30.2695714,0 19.5,0" id="Fill-1" fill="#8BBC06"></path>
                    <path d="M16.3579276,26.1240194 L15.126816,24.8929078 L27.0566809,12.9195161 C27.464614,12.5115395 28.126047,12.5115395 28.5340235,12.9195161 L29.0264856,13.4119346 C29.4344186,13.8199112 29.4344186,14.4813442 29.0264856,14.8893208 L17.8352702,26.1240194 C17.4273372,26.531996 16.7659041,26.531996 16.3579276,26.1240194" id="Fill-3" fill="#FFFFFF"></path>
                    <path d="M19.0641576,24.8928991 L17.833046,26.1240107 C17.4250694,26.5319873 16.7636364,26.5319873 16.3557033,26.1240107 L11.4534556,21.2217629 C11.045479,20.8138299 11.045479,20.1523969 11.4534556,19.7444203 L11.9458741,19.2520018 C12.3538507,18.8440252 13.0152837,18.8440252 13.4232603,19.2520018 L19.0641576,24.8928991 Z" id="Fill-5" fill="#FFFFFF"></path>
                </g>
            </g>
            <g id="编组" transform="translate(32.000000, 35.000000)" fill="#393D65" fill-rule="nonzero">
                <path d="M-1.59872116e-13,33 L36,33 L36,37 L-1.59872116e-13,37 L-1.59872116e-13,33 Z M33,24 L25,24 C23.81754,22.6952345 23.2580152,21.7150762 23,21 C22.7913107,16.1219437 27.9996626,13.9697485 28,8 C27.9996626,3.77568629 24.1662671,9.59232693e-14 18,9.59232693e-14 C11.8328655,9.59232693e-14 7.99946987,3.77568629 8,8 C7.99946987,13.9701639 13.2078218,16.122359 13,21 C12.7411174,21.7154915 12.1815925,22.6952345 11,24 L3,24 C1.19105049,23.5599335 -1.70530257e-13,24.6675956 -1.70530257e-13,26 L-1.70530257e-13,31 L36,31 L36,26 C36,24.6675956 34.8089495,23.5599335 33,24 Z" id="形状"></path>
            </g>
        </g>
    </g>
</svg>