<?xml version="1.0" encoding="UTF-8"?>
<svg width="180px" height="180px" viewBox="0 0 180 180" version="1.1" xmlns="http://www.w3.org/2000/svg" xmlns:xlink="http://www.w3.org/1999/xlink">
    <title>1.通用/空状态/好像断开连接了 刷新一下吧</title>
    <defs>
        <polygon id="path-1" points="0 0 101 0 101 12.7272727 0 12.7272727"></polygon>
        <polygon id="path-3" points="0 0 101 0 101 88.1818182 0 88.1818182"></polygon>
        <polygon id="path-5" points="0 0 42 0 42 42 0 42"></polygon>
    </defs>
    <g id="1.通用/空状态/好像断开连接了-刷新一下吧" stroke="none" stroke-width="1" fill="none" fill-rule="evenodd">
        <g id="4.背景组件/灰色版/马赛克" opacity="0.100000001" transform="translate(44.037109, 127.962891) scale(1, -1) translate(-44.037109, -127.962891) translate(17.875000, 101.875000)" fill="#4E5C93">
            <g id="编组">
                <rect id="矩形备份-5" opacity="0.559454055" x="26.1992188" y="17.4414063" width="8.68359375" height="8.68359375"></rect>
                <rect id="矩形备份" x="17.515625" y="8.68359375" width="8.68359375" height="8.68359375"></rect>
                <rect id="矩形备份-7" x="43.640625" y="8.68359375" width="8.68359375" height="8.68359375"></rect>
                <rect id="矩形备份-2" x="0" y="26.125" width="8.68359375" height="8.68359375"></rect>
                <rect id="矩形备份-9" opacity="0.783365885" x="26.1992188" y="26.125" width="8.68359375" height="8.68359375"></rect>
                <rect id="矩形备份-6" opacity="0.461286272" x="17.515625" y="26.125" width="8.68359375" height="8.68359375"></rect>
                <rect id="矩形备份-10" x="43.640625" y="26.125" width="8.68359375" height="8.68359375"></rect>
                <rect id="矩形备份-3" opacity="0.414969308" x="8.7578125" y="43.4921875" width="8.68359375" height="8.68359375"></rect>
                <rect id="矩形备份-11" opacity="0.414969308" x="26.1992188" y="34.8085937" width="8.68359375" height="8.68359375"></rect>
                <rect id="矩形备份-12" opacity="0.340680804" x="34.8828125" y="17.4414063" width="8.68359375" height="8.68359375"></rect>
                <rect id="矩形备份-8" x="8.7578125" y="0" width="8.68359375" height="8.68359375"></rect>
                <rect id="矩形备份-13" x="34.8828125" y="0" width="8.68359375" height="8.68359375"></rect>
            </g>
        </g>
        <g id="编组" transform="translate(39.000000, 55.000000)">
            <g id="分组-copy-3">
                <g id="分组">
                    <mask id="mask-2" fill="white">
                        <use xlink:href="#path-1"></use>
                    </mask>
                    <g id="Clip-2"></g>
                    <path d="M101,12.7272727 L-8.88704563e-05,12.7272727 L-8.88704563e-05,3.5893279 C-8.88704563e-05,1.60709679 1.59158101,-4.48671597e-05 3.55472939,-4.48671597e-05 L97.4451817,-4.48671597e-05 C99.4084782,-4.48671597e-05 101,1.60709679 101,3.5893279 L101,12.7272727 Z" id="Fill-1" fill="#7A83A4" mask="url(#mask-2)"></path>
                </g>
                <g id="分组" transform="translate(0.000000, 11.818182)">
                    <mask id="mask-4" fill="white">
                        <use xlink:href="#path-3"></use>
                    </mask>
                    <g id="Clip-4"></g>
                    <path d="M97.4451817,88.1818182 L3.55472939,88.1818182 C1.59158101,88.1818182 -8.88704563e-05,86.5905751 -8.88704563e-05,84.6276224 L-8.88704563e-05,0 L101,0 L101,84.6276224 C101,86.5905751 99.4084782,88.1818182 97.4451817,88.1818182" id="Fill-3" fill="#E4EBF7" mask="url(#mask-4)"></path>
                </g>
                <path d="M8.18918919,5.90909091 C8.18918919,7.16420613 7.17066037,8.18181818 5.91426339,8.18181818 C4.65801743,8.18181818 3.63963964,7.16420613 3.63963964,5.90909091 C3.63963964,4.65397569 4.65801743,3.63636364 5.91426339,3.63636364 C7.17066037,3.63636364 8.18918919,4.65397569 8.18918919,5.90909091" id="Fill-5" fill="#A3B5D6"></path>
                <path d="M16.3783784,5.90909091 C16.3783784,7.16420613 15.3599668,8.18181818 14.1035281,8.18181818 C12.8472404,8.18181818 11.8288288,7.16420613 11.8288288,5.90909091 C11.8288288,4.65397569 12.8472404,3.63636364 14.1035281,3.63636364 C15.3599668,3.63636364 16.3783784,4.65397569 16.3783784,5.90909091" id="Fill-7" fill="#E4EBF7"></path>
                <path d="M24.5675676,5.90909091 C24.5675676,7.16420613 23.549156,8.18181818 22.2927173,8.18181818 C21.0364296,8.18181818 20.018018,7.16420613 20.018018,5.90909091 C20.018018,4.65397569 21.0364296,3.63636364 22.2927173,3.63636364 C23.549156,3.63636364 24.5675676,4.65397569 24.5675676,5.90909091" id="Fill-9" fill="#E4EBF7"></path>
                <path d="M11.1224603,87.2727273 C10.5074176,87.2727273 10.009009,86.7772533 10.009009,86.166141 L10.009009,22.0156771 C10.009009,21.4045649 10.5074176,20.9090909 11.1224603,20.9090909 L91.6973596,20.9090909 C92.312263,20.9090909 92.8108108,21.4045649 92.8108108,22.0156771 L92.8108108,86.166141 C92.8108108,86.7772533 92.312263,87.2727273 91.6973596,87.2727273 L11.1224603,87.2727273 Z" id="Fill-11" fill="#FFFFFF"></path>
                <path d="M38.5033392,29.0909091 L17.9110752,29.0909091 C17.0679493,29.0909091 16.3783784,28.477266 16.3783784,27.7272727 C16.3783784,26.9771459 17.0679493,26.3636364 17.9110752,26.3636364 L38.5033392,26.3636364 C39.346315,26.3636364 40.036036,26.9771459 40.036036,27.7272727 C40.036036,28.477266 39.346315,29.0909091 38.5033392,29.0909091" id="Fill-1" fill="#E4EBF7"></path>
                <path d="M26.6474271,36.3636364 L18.8482211,36.3636364 C17.9868364,36.3636364 17.2882883,35.7530649 17.2882883,35 C17.2882883,34.2468016 17.9868364,33.6363636 18.8482211,33.6363636 L26.6474271,33.6363636 C27.5089646,33.6363636 28.2072072,34.2468016 28.2072072,35 C28.2072072,35.7530649 27.5089646,36.3636364 26.6474271,36.3636364" id="Fill-3" fill="#E4EBF7"></path>
            </g>
            <g id="分组" transform="translate(28.207207, 31.818182)">
                <path d="M23.6584017,30 C21.1478501,30 19.1081081,28.1693792 19.1081081,25.905307 C19.0993765,23.6558485 21.1328124,21.8260106 23.649788,21.8183123 C23.6527079,21.8183123 23.6554818,21.8181818 23.6584017,21.8181818 C26.1674935,21.8181818 28.2072072,23.6488026 28.2072072,25.9117005 C28.2029733,28.1693792 26.1674935,29.9986952 23.6584017,30 M34.4920713,24.8780598 C34.4074264,24.4133245 33.9502598,23.937851 33.4725606,23.8356337 L33.1163814,23.7558444 C32.2516341,23.5007089 31.519581,22.9340281 31.0693984,22.1716121 C30.6146064,21.4013124 30.479817,20.4908716 30.6926864,19.6270538 L30.8045686,19.3002847 C30.9478784,18.847511 30.7623858,18.2218378 30.3897246,17.9124674 C30.3897246,17.9124674 30.0554748,17.6362632 29.1165584,17.1050594 C28.1734517,16.5765743 27.7695025,16.4290932 27.7695025,16.4290932 C27.3109392,16.2643493 26.6695372,16.4224327 26.3338907,16.7704065 L26.0869397,17.029348 C25.4342238,17.6369428 24.5650068,17.9744502 23.661848,17.971052 C22.7536608,17.9733628 21.8799741,17.6330009 21.2244646,17.0213283 L20.9870118,16.7690473 C20.6568127,16.4210735 20.0112203,16.2670679 19.5513999,16.4290932 C19.5513999,16.4290932 19.1420033,16.5765743 18.2002934,17.1050594 C17.2573263,17.6402051 16.9257304,17.9164093 16.9257304,17.9164093 C16.5544659,18.2231971 16.3688337,18.8422098 16.5121435,19.3002847 L16.6145275,19.6311317 C16.8250225,20.4935901 16.6903728,21.401992 16.2378156,22.1716121 C15.7884711,22.9402808 15.0502721,23.5096801 14.1785409,23.7599222 L13.8360501,23.8356337 C13.3665919,23.9417929 12.903978,24.4107419 12.8165395,24.8780598 C12.8165395,24.8780598 12.7387387,25.2978032 12.7387387,26.3629292 C12.7387387,27.4280552 12.8165395,27.8463034 12.8165395,27.8463034 C12.9011844,28.3164758 13.3583509,28.7865123 13.8360501,28.8888655 L14.1704396,28.964577 C15.0438469,29.2154987 15.7834427,29.7865291 16.2323682,30.5581882 C16.7018264,31.3590716 16.8151053,32.2700561 16.6090801,33.1027465 L16.5121435,33.4254378 C16.3688337,33.8783474 16.5544659,34.5038847 16.9269875,34.8132551 C16.9269875,34.8132551 17.261377,35.0894593 18.2002934,35.620663 C19.1432604,36.1520027 19.5486064,36.2966293 19.5486064,36.2966293 C20.0057729,36.4613732 20.6485717,36.3032897 20.9843579,35.955316 L21.2190172,35.7083361 C22.5836725,34.4374162 24.7344364,34.4387755 26.0978346,35.7109187 L26.3324939,35.9593938 C26.6628327,36.3058724 27.3082853,36.4613732 27.7682454,36.2993479 C27.7682454,36.2993479 28.177642,36.1520027 29.1206091,35.6233816 C30.0621794,35.0921779 30.3925181,34.8158377 30.3925181,34.8158377 C30.7650397,34.5104092 30.950672,33.8863671 30.8073622,33.4280204 L30.7049781,33.0935034 C30.4936451,32.2337635 30.6284345,31.3280802 31.08169,30.5621301 C31.5332694,29.7930536 32.271608,29.222431 33.1437583,28.9685189 L33.4794049,28.8928074 C33.9488631,28.7865123 34.411477,28.3178351 34.4989155,27.8502453 C34.4989155,27.8502453 34.5765766,27.4306378 34.5765766,26.3668711 C34.5684752,25.3005217 34.4920713,24.8780598 34.4920713,24.8780598" id="Fill-1" fill="#4E5C93"></path>
                <path d="M26.6556416,0.25146561 C27.343003,-0.210177486 28.2685552,-0.0182711384 28.7229202,0.680100435 C29.1700732,1.36738675 28.9942386,2.28905741 28.3333972,2.75815082 L28.3010431,2.7804928 L27.5494141,3.28516506 L27.6973114,3.31353702 C38.2395037,5.41504899 46.2222325,14.7673522 46.4022969,26.0461967 L46.4054054,26.4358778 C46.4054054,39.4501644 36.0170698,50 23.2027027,50 C10.3884272,50 0,39.4501176 0,26.4358778 C0,17.0434798 5.46135855,8.66367573 13.761943,4.90455463 C14.5145282,4.56372816 15.3965576,4.90729701 15.7320108,5.67193713 C16.067464,6.43657726 15.7293116,7.332735 14.9767264,7.67356147 C7.74249637,10.9497581 2.98383022,18.2513644 2.98383022,26.4358778 C2.98383022,37.775479 12.0360381,46.9683747 23.2027027,46.9683747 C34.369456,46.9683747 43.4215752,37.7755287 43.4215752,26.4358778 C43.4215752,15.0962269 34.369456,5.90338093 23.2027027,5.90338093 C21.738361,5.90338093 21.1577268,3.99060907 22.343527,3.14825002 L22.380002,3.12305471 L26.6556416,0.25146561 Z" id="Stroke-7" fill="#A3B5D6" fill-rule="nonzero"></path>
                <path d="M22.2547306,3.14379025 C22.8013233,2.5976895 23.6818651,2.58858782 24.2395895,3.11648522 L24.267667,3.14379025 L27.7903144,6.66326704 C28.3461715,7.21862374 28.3461715,8.11903486 27.7903144,8.67439156 C27.2437217,9.22049232 26.3631799,9.229594 25.8054555,8.7016966 L25.7773781,8.67439156 L22.2547306,5.15491478 C21.6988736,4.59955808 21.6988736,3.69914696 22.2547306,3.14379025 Z" id="Stroke-9" fill="#A3B5D6" fill-rule="nonzero"></path>
                <path d="M54.594663,44.5454545 C52.0819893,44.5454545 50.045045,46.5805008 50.045045,49.0909091 C50.045045,51.6013174 52.0819893,53.6363636 54.594663,53.6363636 C57.1072252,53.6363636 59.1441441,51.6012921 59.1441441,49.0909091 C59.1441441,46.5805261 57.1072252,44.5454545 54.594663,44.5454545 Z" id="Stroke-11" fill="#E4EBF7" fill-rule="nonzero"></path>
            </g>
        </g>
        <g id="分组" transform="translate(114.000000, 36.000000)">
            <g>
                <mask id="mask-6" fill="white">
                    <use xlink:href="#path-5"></use>
                </mask>
                <g id="Clip-2"></g>
                <path d="M42,21 C42,32.5979891 32.597985,42 21,42 C9.402015,42 0,32.5979891 0,21 C0,9.40201618 9.402015,0 21,0 C32.597985,0 42,9.40201618 42,21" id="Fill-1" fill="#E4EBF7" mask="url(#mask-6)"></path>
            </g>
            <path d="M35,20.5 C35,28.5081429 28.5081429,35 20.5,35 C12.4918571,35 6,28.5081429 6,20.5 C6,12.4918571 12.4918571,6 20.5,6 C28.5081429,6 35,12.4918571 35,20.5" id="Fill-3" fill="#A3B5D6"></path>
            <path d="M29,21 C29,25.4182933 25.4182933,29 21,29 C16.5817067,29 13,25.4182933 13,21 C13,16.5817067 16.5817067,13 21,13 C25.4182933,13 29,16.5817067 29,21" id="Fill-5" fill="#253368"></path>
            <line x1="21" y1="21" x2="37" y2="8" id="Stroke-7" stroke="#FFFFFF" stroke-width="0.636428571" stroke-linecap="round" stroke-linejoin="round"></line>
            <path d="M23,21 C23,22.1045333 22.1045333,23 21,23 C19.8954667,23 19,22.1045333 19,21 C19,19.8954 19.8954667,19 21,19 C22.1045333,19 23,19.8954 23,21" id="Fill-9" fill="#FFFFFF"></path>
            <path d="M34,11.5 C34,12.32845 33.3284,13 32.5,13 C31.6716,13 31,12.32845 31,11.5 C31,10.67155 31.6716,10 32.5,10 C33.3284,10 34,10.67155 34,11.5" id="Fill-11" fill="#FFFFFF"></path>
            <path d="M29,16 C29,17.1046 28.1045333,18 27,18 C25.8954667,18 25,17.1046 25,16 C25,14.8954667 25.8954667,14 27,14 C28.1045333,14 29,14.8954667 29,16" id="Fill-13" fill="#FFFFFF"></path>
        </g>
    </g>
</svg>