<?xml version="1.0" encoding="UTF-8"?>
<svg width="180px" height="180px" viewBox="0 0 180 180" version="1.1" xmlns="http://www.w3.org/2000/svg" xmlns:xlink="http://www.w3.org/1999/xlink">
    <title>1.通用/空状态/该模块功能正在开发中 敬请期待</title>
    <defs>
        <polygon id="path-1" points="0 0 8 0 8 16 0 16"></polygon>
        <polygon id="path-3" points="0 0 8 0 8 16 0 16"></polygon>
    </defs>
    <g id="1.通用/空状态/该模块功能正在开发中-敬请期待" stroke="none" stroke-width="1" fill="none" fill-rule="evenodd">
        <g id="3.通用组件/灰色版/代码详情页01" transform="translate(34.000000, 70.000000)" fill-rule="nonzero">
            <g id="资源-29-copy-3">
                <rect id="矩形" fill="#E4EBF7" x="0" y="3.73626374" width="110" height="81.2637363" rx="3.23598218"></rect>
                <rect id="矩形" fill="#7A83A4" x="10.2542373" y="17.7472527" width="90.4237288" height="59.7802198" rx="1.23015829"></rect>
                <g id="分组" transform="translate(22.372881, 26.153846)">
                    <rect id="矩形-copy-20" fill="#A3B5D6" x="0" y="10.2747253" width="60.5932203" height="2.8021978"></rect>
                    <rect id="矩形-copy-20" fill="#E4EBF7" x="0" y="19.6153846" width="29.8305085" height="2.8021978"></rect>
                    <rect id="矩形-copy-20" fill="#A3B5D6" x="0" y="40.1648352" width="29.8305085" height="2.8021978"></rect>
                    <rect id="矩形-copy-20" fill="#A3B5D6" x="0" y="0" width="17.7118644" height="2.8021978"></rect>
                    <rect id="矩形-copy-21" fill="#E4EBF7" x="36.3559322" y="19.6153846" width="9.3220339" height="2.8021978"></rect>
                    <rect id="矩形-copy-20" fill="#A3B5D6" x="0" y="29.8901099" width="45.6779661" height="2.8021978"></rect>
                </g>
                <path d="M2.94790911,0 L107.052091,0 C108.680176,0 110,1.26089115 110,2.8162792 L110,11.2087912 L0,11.2087912 L0,2.8162792 C0,1.26089115 1.31982386,0 2.94790911,0 Z" id="路径" fill="#7A83A4"></path>
                <ellipse id="椭圆形" fill="#A3B5D6" cx="6.99152542" cy="5.6043956" rx="2.33050847" ry="1.86813187"></ellipse>
                <ellipse id="椭圆形" fill="#E4EBF7" cx="14.4491525" cy="5.6043956" rx="2.33050847" ry="1.86813187"></ellipse>
                <ellipse id="椭圆形" fill="#E4EBF7" cx="21.9067797" cy="5.6043956" rx="2.33050847" ry="1.86813187"></ellipse>
            </g>
        </g>
        <g id="编组-3" transform="translate(104.000000, 37.000000)">
            <g id="资源-19" transform="translate(11.654297, 11.287483)">
                <path d="M30.7376016,15.2719805 C30.7376016,6.87686769 23.8570313,0 15.3691172,0 C6.88120313,0 0,6.87686769 0,15.2719805 C0,18.5945894 1.78326563,22.8863709 4.64674219,26.0505815 C7.48617188,29.1859924 8.29490625,34.4644767 8.29490625,38.6736156 L8.29490625,40.3239637 L22.4433281,40.3239637 L22.4433281,38.6873894 C22.4433281,34.4782505 23.2520625,29.2097835 26.0769375,26.0643553 C28.9499063,22.8675885 30.7376016,18.194524 30.7376016,15.2719805 Z" id="路径" fill="#E4EBF7" fill-rule="nonzero"></path>
                <path d="M28.20825,15.2306592 C28.20825,8.2185581 22.4616797,2.47301779 15.3691172,2.47301779 C8.27655469,2.47301779 2.53125,8.21793201 2.53125,15.2306592 C2.53125,18.0085781 4.02025781,21.5922626 6.41292188,24.2355743 C8.78470313,26.8550949 10.5458203,31.2645795 10.5458203,34.7806474 L10.5458203,36.1580244 L20.1930469,36.1580244 L20.1930469,34.7925429 C20.1930469,31.275849 21.9541641,26.8745034 24.3145547,24.2468437 C26.7148125,21.5766106 28.20825,17.672999 28.20825,15.2312852 L28.20825,15.2306592 Z" id="路径" fill="#A3B5D6" fill-rule="nonzero"></path>
                <path d="M19.2697734,48.0247532 L11.4684609,48.0247532 C11.1957188,48.0247532 10.9470234,47.8494507 10.7989453,47.5614537 L9.73771875,44.8448906 L21.0017813,44.8448906 L19.9405547,47.5614537 C19.7918438,47.8494507 19.5437813,48.0247532 19.2710391,48.0247532 L19.2697734,48.0247532 Z" id="路径" fill="#253368" fill-rule="nonzero"></path>
                <rect id="矩形" fill="#4E5C93" fill-rule="nonzero" x="8.01457031" y="34.0456289" width="14.7090937" height="11.96878" rx="1.55772878"></rect>
                <line x1="8.03355469" y1="37.528428" x2="16.3202344" y2="37.528428" id="路径" stroke="#FFFFFF" stroke-width="0.519032195" stroke-linecap="round" stroke-linejoin="round"></line>
                <line x1="8.03355469" y1="42.8494858" x2="16.3202344" y2="42.8494858" id="路径" stroke="#FFFFFF" stroke-width="0.519032195" stroke-linecap="round" stroke-linejoin="round"></line>
                <line x1="14.3895234" y1="40.1886439" x2="22.6762031" y2="40.1886439" id="路径" stroke="#FFFFFF" stroke-width="0.519032195" stroke-linecap="round" stroke-linejoin="round"></line>
                <path d="M16.4173719,9.13405278 L10.6240184,17.8647868 C10.3123225,18.3381241 10.6475921,18.9201731 11.2091686,18.9201731 L13.8043646,18.9201731 L10.6135413,24.8831837 C10.3757094,25.3653637 10.989148,25.8126935 11.3652785,25.4314229 L20.042998,16.8062795 C20.4856586,16.3573893 20.1713433,15.5906867 19.5448083,15.5906867 L15.6205828,15.5906867 L17.2623559,9.51480329 C17.3907013,8.99621278 16.7091612,8.69192446 16.4173719,9.13405278 Z" id="路径" fill="#E4EBF7" fill-rule="nonzero"></path>
            </g>
            <path d="M29.2576643,6.59574468 L24.7422799,6.59574468 C24.1730364,6.59574468 23.7073171,6.13305464 23.7073171,5.56763698 L23.7073171,1.02816314 C23.7073171,0.462690042 24.1730364,0 24.7422799,0 L29.2576643,0 C29.8269078,0 30.2926829,0.462690042 30.2926829,1.02816314 L30.2926829,5.56763698 C30.2926829,6.13305464 29.8269078,6.59574468 29.2576643,6.59574468" id="Fill-3" fill="#E4EBF7"></path>
            <path d="M51.6479082,27.7021277 L47.1325238,27.7021277 C46.5632803,27.7021277 46.097561,27.2394376 46.097561,26.67402 L46.097561,22.1345461 C46.097561,21.569073 46.5632803,21.106383 47.1325238,21.106383 L51.6479082,21.106383 C52.2171517,21.106383 52.6829268,21.569073 52.6829268,22.1345461 L52.6829268,26.67402 C52.6829268,27.2394376 52.2171517,27.7021277 51.6479082,27.7021277" id="Fill-3备份-3" fill="#E4EBF7"></path>
            <path d="M13.440844,12.0739752 L9.10123294,12.0575617 C8.55414877,12.0554933 8.10474039,11.572824 8.10251822,10.9850591 L8.08466915,6.26616997 C8.08245503,5.67834748 8.52822654,5.19906258 9.07531071,5.20112428 L13.4149218,5.2175378 C13.962006,5.21960617 14.411468,5.70227569 14.4136904,6.29009819 L14.4315394,11.0089873 C14.4337534,11.5967522 13.9879282,12.0760369 13.440844,12.0739752" id="Fill-3备份" fill="#E4EBF7" transform="translate(11.258104, 8.637550) rotate(-45.000000) translate(-11.258104, -8.637550) "></path>
            <path d="M45.0506001,12.0739752 L40.710989,12.0575617 C40.1639049,12.0554933 39.7144965,11.572824 39.7122743,10.9850591 L39.6944253,6.26616997 C39.6922111,5.67834748 40.1379826,5.19906258 40.6850668,5.20112428 L45.0246779,5.2175378 C45.5717621,5.21960617 46.0212241,5.70227569 46.0234465,6.29009819 L46.0412955,11.0089873 C46.0435094,11.5967522 45.5976843,12.0760369 45.0506001,12.0739752" id="Fill-3备份-2" fill="#E4EBF7" transform="translate(42.867860, 8.637550) scale(-1, 1) rotate(-45.000000) translate(-42.867860, -8.637550) "></path>
            <path d="M46.3676733,43.7335496 L42.0280622,43.7171361 C41.480978,43.7150677 41.0315697,43.2323984 41.0293475,42.6446335 L41.0114984,37.9257444 C41.0092843,37.3379219 41.4550558,36.858637 42.00214,36.8606987 L46.3417511,36.8771122 C46.8888352,36.8791806 47.3382973,37.3618501 47.3405197,37.9496726 L47.3583687,42.6685617 C47.3605826,43.2563266 46.9147575,43.7356113 46.3676733,43.7335496" id="Fill-3备份-4" fill="#E4EBF7" transform="translate(44.184934, 40.297124) scale(-1, -1) rotate(-45.000000) translate(-44.184934, -40.297124) "></path>
        </g>
        <g id="编组" transform="translate(25.000000, 39.000000)">
            <polygon id="Fill-1" fill="#CED0DB" points="16.2317724 -4.56523708e-13 10 20 13.7676349 20 20 -4.56523708e-13"></polygon>
            <g transform="translate(0.000000, 2.000000)">
                <g transform="translate(-0.000000, 0.000000)">
                    <mask id="mask-2" fill="white">
                        <use xlink:href="#path-1"></use>
                    </mask>
                    <g id="Clip-3"></g>
                    <path d="M7.60599207,0 L3.18208936,0 L0.393876815,0 C0.176221851,0 -0.000131117448,0.168671866 -0.000131117448,0.376846808 L-0.000131117448,3.04361798 L-0.000131117448,12.956382 L-0.000131117448,15.6231532 C-0.000131117448,15.8313281 0.176221851,16 0.393876815,16 L3.18208936,16 L7.60599207,16 C7.82364703,16 8,15.8313281 8,15.6231532 L8,13.3332288 C8,13.1250539 7.82364703,12.956382 7.60599207,12.956382 L3.18208936,12.956382 L3.18208936,3.04361798 L7.60599207,3.04361798 C7.82364703,3.04361798 8,2.87494611 8,2.66739821 L8,0.376846808 C8,0.168671866 7.82364703,0 7.60599207,0" id="Fill-2" fill="#E4E6EF" mask="url(#mask-2)"></path>
                </g>
                <g transform="translate(23.000000, 0.000000)">
                    <mask id="mask-4" fill="white">
                        <use xlink:href="#path-3"></use>
                    </mask>
                    <g id="Clip-5"></g>
                    <path d="M7.60631018,0 L4.81802909,0 L0.394017619,0 C0.176357304,0 0,0.168671866 0,0.376846808 L0,2.66739821 C0,2.87494611 0.176357304,3.04361798 0.394017619,3.04361798 L4.81802909,3.04361798 L4.81802909,12.956382 L0.394017619,12.956382 C0.176357304,12.956382 0,13.1250539 0,13.3332288 L0,15.6231532 C0,15.8313281 0.176357304,16 0.394017619,16 L4.81802909,16 L7.60631018,16 C7.8239705,16 8.0003278,15.8313281 8.0003278,15.6231532 L8.0003278,13.3332288 L8.0003278,2.66739821 L8.0003278,0.376846808 C8.0003278,0.168671866 7.8239705,0 7.60631018,0" id="Fill-4" fill="#E4E6EF" mask="url(#mask-4)"></path>
                </g>
            </g>
        </g>
    </g>
</svg>