<?xml version="1.0" encoding="UTF-8"?>
<svg width="180px" height="180px" viewBox="0 0 180 180" version="1.1" xmlns="http://www.w3.org/2000/svg" xmlns:xlink="http://www.w3.org/1999/xlink">
    <title>1.通用/空状态/暂无相关数据</title>
    <defs>
        <linearGradient x1="0%" y1="89.6062836%" x2="0%" y2="0%" id="linearGradient-1">
            <stop stop-color="#92B5FC" stop-opacity="0" offset="0%"></stop>
            <stop stop-color="#4E5C93" offset="100%"></stop>
        </linearGradient>
        <linearGradient x1="0%" y1="89.6062836%" x2="0%" y2="0%" id="linearGradient-2">
            <stop stop-color="#92B5FC" stop-opacity="0" offset="0%"></stop>
            <stop stop-color="#4E5C93" offset="100%"></stop>
        </linearGradient>
        <linearGradient x1="0%" y1="89.6062836%" x2="0%" y2="0%" id="linearGradient-3">
            <stop stop-color="#92B5FC" stop-opacity="0" offset="0%"></stop>
            <stop stop-color="#4E5C93" offset="100%"></stop>
        </linearGradient>
        <linearGradient x1="0%" y1="89.6062836%" x2="0%" y2="0%" id="linearGradient-4">
            <stop stop-color="#92B5FC" stop-opacity="0" offset="0%"></stop>
            <stop stop-color="#4E5C93" offset="100%"></stop>
        </linearGradient>
        <polygon id="path-5" points="0 0 40 0 40 40 0 40"></polygon>
    </defs>
    <g id="1.通用/空状态/暂无相关数据" stroke="none" stroke-width="1" fill="none" fill-rule="evenodd">
        <g id="4.背景组件/灰色版/粒子" opacity="0.100000001" transform="translate(45.240234, 29.757813)">
            <g id="编组-2">
                <circle id="椭圆形备份-4" fill="#4E5C93" cx="4.47309844" cy="14.5908211" r="4.47309844"></circle>
                <line x1="4.44782223" y1="14.5908211" x2="4.44782223" y2="81.9814292" id="直线-2" stroke="url(#linearGradient-1)" stroke-width="0.64152" stroke-linecap="square"></line>
                <circle id="椭圆形备份-4" fill="#4E5C93" cx="25.3475578" cy="28.2231211" r="4.47309844"></circle>
                <line x1="25.3222816" y1="28.2231211" x2="25.3222816" y2="87.7477725" id="直线-2" stroke="url(#linearGradient-2)" stroke-width="0.64152" stroke-linecap="square"></line>
                <circle id="椭圆形备份-4" fill="#4E5C93" cx="46.2220172" cy="4.47309844" r="4.47309844"></circle>
                <line x1="46.196741" y1="4.47309844" x2="46.196741" y2="78.2456821" id="直线-2" stroke="url(#linearGradient-3)" stroke-width="0.64152" stroke-linecap="square"></line>
                <circle id="椭圆形备份-4" fill="#4E5C93" cx="67.0964766" cy="14.5908211" r="4.47309844"></circle>
                <line x1="67.0712004" y1="14.5908211" x2="67.0712004" y2="90.3352931" id="直线-2" stroke="url(#linearGradient-4)" stroke-width="0.64152" stroke-linecap="square"></line>
            </g>
        </g>
        <g id="3.通用组件/灰色版/箱子" transform="translate(34.000000, 77.000000)" fill-rule="nonzero">
            <g id="资源-20">
                <path d="M9,30 L101,30 L101,74.5196375 C101,76.4417886 99.4543439,78 97.5476805,78 L12.4523195,78 C10.5456561,78 9,76.4417886 9,74.5196375 L9,30 Z" id="路径" fill="#A3B5D6"></path>
                <path d="M9.15787986,14 L0.224598456,33.7110043 C-0.114964507,34.4222458 -0.0670178231,35.2584682 0.351599073,35.9259804 C0.770215969,36.5934927 1.50097535,36.9989685 2.287226,37 L107.710253,37 C108.513787,37 109.258459,36.5773232 109.672521,35.8866513 C110.086582,35.1959794 110.109458,34.3381872 109.732801,33.626303 L100.984169,14 L9.15787986,14 Z" id="路径" fill="#E4EBF7"></path>
                <polygon id="路径" fill="#A3B5D6" points="82.4700812 0 101 14 9 14 27.430974 0"></polygon>
                <polygon id="路径" fill="#7A83A4" points="27 0 27 14 9 14"></polygon>
                <polygon id="路径" fill="#7A83A4" points="82 0 82 13.9897156 100 14"></polygon>
            </g>
        </g>
        <g id="分组" transform="translate(112.000000, 50.000000)">
            <g>
                <mask id="mask-6" fill="white">
                    <use xlink:href="#path-5"></use>
                </mask>
                <g id="Clip-2"></g>
                <path d="M19.9999955,-4.46428621e-06 C8.95428225,-4.46428621e-06 -4.46428577e-06,8.95428225 -4.46428577e-06,19.9999955 C-4.46428577e-06,31.0456686 8.95428225,39.9999955 19.9999955,39.9999955 C31.0457133,39.9999955 39.9999955,31.0456686 39.9999955,19.9999955 C39.9999955,8.95428225 31.0457133,-4.46428621e-06 19.9999955,-4.46428621e-06" id="Fill-1" fill="#4E5C93" mask="url(#mask-6)"></path>
            </g>
            <path d="M24.8062116,11.9319018 C25.8040581,12.8600942 26.3157895,14.1331002 26.3157895,15.7243247 C26.3157895,17.023794 25.9831599,18.1111176 25.3690907,18.9597443 C25.1387566,19.2514556 24.4223919,19.9410389 23.1942536,21.0283186 C22.73367,21.452654 22.3754665,21.9035404 22.1451747,22.3808902 C21.8637352,22.9112984 21.7357812,23.494721 21.7357812,24.1577532 L21.7357812,24.7870808 C21.7357812,25.0500028 21.5301317,25.2631579 21.2765101,25.2631579 L19.4572937,25.2631579 C19.2036721,25.2631579 18.9980227,25.0500028 18.9980227,24.7870808 L18.9980227,24.1577532 C18.9980227,23.1765025 19.1515929,22.3278318 19.4842225,21.6382924 C19.842426,20.8957824 20.8146986,19.808415 22.4010404,18.3498144 L22.8360502,17.8459574 C23.2965491,17.2359397 23.5268832,16.5994587 23.5268832,15.9099193 C23.5268832,14.9817269 23.2709752,14.2656803 22.7848601,13.7352282 C22.2730864,13.2048639 21.5567218,12.9396598 20.6355545,12.9396598 C19.4842225,12.9396598 18.6398615,13.3109368 18.1281302,14.0535345 C17.7278823,14.6066757 17.5015705,15.3801255 17.4491525,16.3390382 C17.4354341,16.5898476 17.233299,16.7850533 16.99094,16.7850533 L15.1965353,16.7850533 C14.9344879,16.7850533 14.7237576,16.5578985 14.737476,16.286682 C14.8234702,14.587673 15.3587007,13.2400167 16.3626867,12.2236132 C17.4372971,11.0832751 18.9212587,10.5263158 20.7891248,10.5263158 C22.4522305,10.5263158 23.7827066,10.9771583 24.8062116,11.9319018" id="Fill-3" fill="#FFFFFF"></path>
            <path d="M20.2631579,29.4736842 L19.7368421,29.4736842 C19.3008224,29.4736842 18.9473684,29.1202303 18.9473684,28.6842105 L18.9473684,28.1578947 C18.9473684,27.721875 19.3008224,27.3684211 19.7368421,27.3684211 L20.2631579,27.3684211 C20.6991776,27.3684211 21.0526316,27.721875 21.0526316,28.1578947 L21.0526316,28.6842105 C21.0526316,29.1202303 20.6991776,29.4736842 20.2631579,29.4736842" id="Fill-5" fill="#FFFFFF"></path>
        </g>
    </g>
</svg>