<?xml version="1.0" encoding="UTF-8"?>
<svg width="180px" height="180px" viewBox="0 0 180 180" version="1.1" xmlns="http://www.w3.org/2000/svg" xmlns:xlink="http://www.w3.org/1999/xlink">
    <title>1.通用/空状态/加载失败</title>
    <defs>
        <polygon id="path-1" points="0 0 101 0 101 12.7272727 0 12.7272727"></polygon>
        <polygon id="path-3" points="0 0 101 0 101 88.1818182 0 88.1818182"></polygon>
        <polygon id="path-5" points="0 0 40 0 40 40 0 40"></polygon>
    </defs>
    <g id="1.通用/空状态/加载失败" stroke="none" stroke-width="1" fill="none" fill-rule="evenodd">
        <g id="4.背景组件/灰色版/蜂窝结构" opacity="0.100000001" transform="translate(38.466309, 129.477572) scale(-1, 1) rotate(15.000000) translate(-38.466309, -129.477572) translate(18.285156, 103.389160)">
            <g id="编组">
                <polygon id="Fill-1" fill="#4E5C93" points="8.05147011 0 0.538319916 3.78750212 0.0673828125 12.1765956 7.1096627 16.7783203 14.6228797 12.9908182 15.09375 4.60172472"></polygon>
                <polygon id="Fill-2" fill="#4E5C93" points="25.8068767 19.7571771 25.3359375 28.1463706 32.3783155 32.7480469 39.8914991 28.9605297 40.3623047 20.5724032 40.3623047 20.5713362 33.3200603 15.9697266"></polygon>
                <polygon id="Fill-3" fill="#4E5C93" points="0 35.9701788 0.668016571 44.3593723 8.28224092 47.9765625 15.2285156 43.2046927 14.5604991 34.8154992 6.94627471 31.1982422"></polygon>
                <g opacity="0.78297061" transform="translate(15.834961, 6.368957)" fill="#4E5C93">
                    <polygon id="Fill-4" points="3.29842351 37.8425172 0 40.1079291 0.317279604 44.0906037 3.93278203 45.8078665 7.23120554 43.5424545 6.91405973 39.5597799"></polygon>
                    <polygon id="Fill-6" points="14.9029769 0 11.3284806 1.80089002 11.1044517 5.78990512 14.4549189 7.97796347 18.0293483 6.17700671 18.2534441 2.18805835"></polygon>
                    <polygon id="Fill-8" points="22.6011714 4.00449917 20.7841888 4.91992768 20.6703347 6.94760583 22.3733964 8.05978874 24.190379 7.14436023 24.3042331 5.11674881"></polygon>
                    <polygon id="Fill-10" opacity="0.417480469" transform="translate(4.344959, 33.235624) rotate(-11.000000) translate(-4.344959, -33.235624) " points="4.4930496 30.5781475 2.1125254 31.7769777 1.9645018 34.4344541 4.19686863 35.8931003 6.57739283 34.6942701 6.72541643 32.0367937"></polygon>
                </g>
                <line x1="7.61425781" y1="8.35546875" x2="32.8828125" y2="24.3925781" id="Stroke-12" stroke="#4E5C93" stroke-width="0.7128"></line>
                <line x1="9.63574219" y1="37.8691406" x2="35.0390625" y2="22.0341797" id="Stroke-13" stroke="#4E5C93" stroke-width="0.7128"></line>
            </g>
        </g>
        <g id="分组-copy-2" transform="translate(41.000000, 55.000000)">
            <g id="分组">
                <mask id="mask-2" fill="white">
                    <use xlink:href="#path-1"></use>
                </mask>
                <g id="Clip-2"></g>
                <path d="M101,12.7272727 L-8.88704562e-05,12.7272727 L-8.88704562e-05,3.5893279 C-8.88704562e-05,1.60709679 1.59158101,-4.48671599e-05 3.55472939,-4.48671599e-05 L97.4451817,-4.48671599e-05 C99.4084782,-4.48671599e-05 101,1.60709679 101,3.5893279 L101,12.7272727 Z" id="Fill-1" fill="#7A83A4" mask="url(#mask-2)"></path>
            </g>
            <g id="分组" transform="translate(0.000000, 11.818182)">
                <mask id="mask-4" fill="white">
                    <use xlink:href="#path-3"></use>
                </mask>
                <g id="Clip-4"></g>
                <path d="M97.4451817,88.1818182 L3.55472939,88.1818182 C1.59158101,88.1818182 -8.88704563e-05,86.5905751 -8.88704563e-05,84.6276224 L-8.88704563e-05,0 L101,0 L101,84.6276224 C101,86.5905751 99.4084782,88.1818182 97.4451817,88.1818182" id="Fill-3" fill="#E4EBF7" mask="url(#mask-4)"></path>
            </g>
            <path d="M8.18918919,5.90909091 C8.18918919,7.16420613 7.17066037,8.18181818 5.91426339,8.18181818 C4.65801743,8.18181818 3.63963964,7.16420613 3.63963964,5.90909091 C3.63963964,4.65397569 4.65801743,3.63636364 5.91426339,3.63636364 C7.17066037,3.63636364 8.18918919,4.65397569 8.18918919,5.90909091" id="Fill-5" fill="#A3B5D6"></path>
            <path d="M16.3783784,5.90909091 C16.3783784,7.16420613 15.3599668,8.18181818 14.1035281,8.18181818 C12.8472404,8.18181818 11.8288288,7.16420613 11.8288288,5.90909091 C11.8288288,4.65397569 12.8472404,3.63636364 14.1035281,3.63636364 C15.3599668,3.63636364 16.3783784,4.65397569 16.3783784,5.90909091" id="Fill-7" fill="#E4EBF7"></path>
            <path d="M24.5675676,5.90909091 C24.5675676,7.16420613 23.549156,8.18181818 22.2927173,8.18181818 C21.0364296,8.18181818 20.018018,7.16420613 20.018018,5.90909091 C20.018018,4.65397569 21.0364296,3.63636364 22.2927173,3.63636364 C23.549156,3.63636364 24.5675676,4.65397569 24.5675676,5.90909091" id="Fill-9" fill="#E4EBF7"></path>
            <path d="M11.1224603,87.2727273 C10.5074176,87.2727273 10.009009,86.7772533 10.009009,86.166141 L10.009009,22.0156771 C10.009009,21.4045649 10.5074176,20.9090909 11.1224603,20.9090909 L91.6973596,20.9090909 C92.312263,20.9090909 92.8108108,21.4045649 92.8108108,22.0156771 L92.8108108,86.166141 C92.8108108,86.7772533 92.312263,87.2727273 91.6973596,87.2727273 L11.1224603,87.2727273 Z" id="Fill-11" fill="#FFFFFF"></path>
            <path d="M38.5033392,29.0909091 L17.9110752,29.0909091 C17.0679493,29.0909091 16.3783784,28.477266 16.3783784,27.7272727 C16.3783784,26.9771459 17.0679493,26.3636364 17.9110752,26.3636364 L38.5033392,26.3636364 C39.346315,26.3636364 40.036036,26.9771459 40.036036,27.7272727 C40.036036,28.477266 39.346315,29.0909091 38.5033392,29.0909091" id="Fill-1" fill="#E4EBF7"></path>
            <path d="M26.6474271,36.3636364 L18.8482211,36.3636364 C17.9868364,36.3636364 17.2882883,35.7530649 17.2882883,35 C17.2882883,34.2468016 17.9868364,33.6363636 18.8482211,33.6363636 L26.6474271,33.6363636 C27.5089646,33.6363636 28.2072072,34.2468016 28.2072072,35 C28.2072072,35.7530649 27.5089646,36.3636364 26.6474271,36.3636364" id="Fill-3" fill="#E4EBF7"></path>
            <g id="分组-2" transform="translate(31.846847, 35.454545)" fill-rule="nonzero">
                <path d="M19.1080782,0 C8.55498174,0 0,8.54729487 0,19.0909091 C0,29.6345233 8.55498174,38.1818182 19.1080782,38.1818182 C29.6611746,38.1818182 38.2161564,29.6345233 38.2161564,19.0909091 C38.2161564,8.54729487 29.6611746,0 19.1080782,0 Z M19.5630631,6.36363636 C26.8497351,6.36363636 32.7567568,12.2653411 32.7567568,19.5454545 C32.7567568,26.825568 26.8497351,32.7272727 19.5630631,32.7272727 C12.276391,32.7272727 6.36936937,26.825568 6.36936937,19.5454545 C6.36936937,12.2653411 12.276391,6.36363636 19.5630631,6.36363636 Z" id="Stroke-5" fill="#A3B5D6"></path>
                <path d="M32.646719,9.36216576 C34.1168531,8.67677357 35.8541546,9.33499302 36.5270904,10.8323401 C37.6349526,13.2974402 38.2162162,15.9857073 38.2162162,18.7516562 C38.2162162,21.0167287 37.8264789,23.2317629 37.0739713,25.3182946 C36.5164886,26.8640667 34.8342375,27.6568682 33.3165583,27.0890662 C31.814056,26.5269423 31.0361279,24.8420271 31.5616445,23.3085239 L31.5779689,23.2621017 C32.0938609,21.831651 32.3611594,20.3124861 32.3611594,18.7516562 C32.3611594,16.8855572 31.9789277,15.0797029 31.2493165,13.4180308 L31.2032638,13.3143648 C30.5303279,11.8170177 31.1765849,10.047558 32.646719,9.36216576 Z" id="Stroke-7" fill="#4E5C93"></path>
            </g>
            <g id="分组-3" transform="translate(74.612613, 70.000000)" fill-rule="nonzero">
                <path d="M6.36942694,0 C2.84775249,0 0,2.85284857 0,6.36369404 C0,9.87452565 2.84773904,12.7272727 6.36942694,12.7272727 C9.89102176,12.7272727 12.7387387,9.87450374 12.7387387,6.36369404 C12.7387387,2.85287048 9.89100831,0 6.36942694,0 Z M6.82438414,2.72727273 C9.08171109,2.72727273 10.9189189,4.55492504 10.9189189,6.81824132 C10.9189189,9.08152648 9.08174275,10.9090909 6.82438414,10.9090909 C4.56691997,10.9090909 2.72972973,9.08154068 2.72972973,6.81824132 C2.72972973,4.55491085 4.56695163,2.72727273 6.82438414,2.72727273 Z" id="Stroke-9" fill="#E4EBF7"></path>
                <path d="M10.7089006,2.82518983 C11.2949696,2.56267714 11.9737891,2.84617523 12.2250864,3.45840052 C12.5622668,4.27985946 12.7387387,5.17414881 12.7387387,6.09337394 C12.7387387,6.84563044 12.620486,7.58193994 12.391834,8.27662089 C12.1844925,8.90655684 11.5275624,9.24163582 10.9245394,9.02504074 C10.3319133,8.81218006 10.0118978,8.14572082 10.1978397,7.52489115 L10.2080945,7.49226073 C10.3538299,7.04949361 10.4295196,6.5782064 10.4295196,6.09337394 C10.4295196,5.5016046 10.3168589,4.93068558 10.1027428,4.40904306 C9.85144549,3.79681776 10.1228316,3.08770251 10.7089006,2.82518983 Z" id="Stroke-11" fill="#A3B5D6"></path>
            </g>
        </g>
        <g id="分组" transform="translate(116.000005, 36.000000)">
            <g>
                <mask id="mask-6" fill="white">
                    <use xlink:href="#path-5"></use>
                </mask>
                <g id="Clip-2"></g>
                <path d="M20,-4.46428609e-06 C8.95428671,-4.46428609e-06 0,8.95428225 0,19.9999955 C0,31.0456686 8.95428671,39.9999955 20,39.9999955 C31.0457178,39.9999955 40,31.0456686 40,19.9999955 C40,8.95428225 31.0457178,-4.46428609e-06 20,-4.46428609e-06" id="Fill-1" fill="#4E5C93" mask="url(#mask-6)"></path>
            </g>
            <path d="M20.7608674,25.2173941 L20.1086934,25.2173941 C19.568408,25.2173941 19.1304325,24.7396026 19.1304325,24.1502003 L19.1304325,10.6324123 C19.1304325,10.04301 19.568408,9.56521846 20.1086934,9.56521846 L20.7608674,9.56521846 C21.3011528,9.56521846 21.7391284,10.04301 21.7391284,10.6324123 L21.7391284,24.1502003 C21.7391284,24.7396026 21.3011528,25.2173941 20.7608674,25.2173941" id="Fill-3" fill="#FFFFFF"></path>
            <path d="M20.7608674,29.5652207 L20.1086934,29.5652207 C19.568408,29.5652207 19.1304325,29.1272451 19.1304325,28.5869597 L19.1304325,27.9347857 C19.1304325,27.3945003 19.568408,26.9565247 20.1086934,26.9565247 L20.7608674,26.9565247 C21.3011528,26.9565247 21.7391284,27.3945003 21.7391284,27.9347857 L21.7391284,28.5869597 C21.7391284,29.1272451 21.3011528,29.5652207 20.7608674,29.5652207" id="Fill-5" fill="#FFFFFF"></path>
        </g>
    </g>
</svg>