<?xml version="1.0" encoding="UTF-8"?>
<svg width="586px" height="414px" viewBox="0 0 586 414" version="1.1" xmlns="http://www.w3.org/2000/svg" xmlns:xlink="http://www.w3.org/1999/xlink">
    <title>1.通用/异常页/403</title>
    <defs>
        <polygon id="path-1" points="4.52255859e-05 9.03251953e-06 54.2707031 9.03251953e-06 54.2707031 36.1300781 4.52255859e-05 36.1300781"></polygon>
        <polygon id="path-3" points="0.384081 0.466918945 19.6757594 0.466918945 19.6757594 19.666626 0.384081 19.666626"></polygon>
        <polygon id="path-5" points="0.137402839 0.196986579 23.0480891 0.196986579 23.0480891 21.4232894 0.137402839 21.4232894"></polygon>
    </defs>
    <g id="1.通用/异常页/403" stroke="none" stroke-width="1" fill="none" fill-rule="evenodd">
        <g id="编组" transform="translate(142.577076, 16.000000)">
            <g id="编组-2" transform="translate(22.640625, 63.766602)">
                <g id="分组-2-copy-2" transform="translate(0.000000, 0.000000)">
                    <path d="M368.594573,33.4465249 L0.369950722,33.4465249 L0.369950722,9.46273905 C0.369950722,4.26010243 4.85429175,0.0419393814 10.3852294,0.0419393814 L358.579294,0.0419393814 C364.110649,0.0419393814 368.594573,4.26010243 368.594573,9.46273905 L368.594573,33.4465249 Z" id="Fill-1" fill="#253369"></path>
                    <path d="M26.1901177,15.7256699 C26.1901177,18.990762 23.3933111,21.6380067 19.9433358,21.6380067 C16.4937751,21.6380067 13.6973833,18.990762 13.6973833,15.7256699 C13.6973833,12.4605777 16.4937751,9.81333299 19.9433358,9.81333299 C23.3933111,9.81333299 26.1901177,12.4605777 26.1901177,15.7256699" id="Fill-5" fill="#FF7946"></path>
                    <path d="M49.5122745,15.7256699 C49.5122745,18.990762 46.7158827,21.6380067 43.2659073,21.6380067 C39.8163467,21.6380067 37.0199548,18.990762 37.0199548,15.7256699 C37.0199548,12.4605777 39.8163467,9.81333299 43.2659073,9.81333299 C46.7158827,9.81333299 49.5122745,12.4605777 49.5122745,15.7256699" id="Fill-7" fill="#FFC53D"></path>
                    <path d="M72.8348461,15.7256699 C72.8348461,18.990762 70.0384542,21.6380067 66.5884789,21.6380067 C63.1389182,21.6380067 60.3425264,18.990762 60.3425264,15.7256699 C60.3425264,12.4605777 63.1389182,9.81333299 66.5884789,9.81333299 C70.0384542,9.81333299 72.8348461,12.4605777 72.8348461,15.7256699" id="Fill-9" fill="#BAE637"></path>
                </g>
                <path d="M11.1533491,263.087328 C4.99391206,263.087328 2.29816166e-14,258.87531 2.29816166e-14,253.679377 L2.29816166e-14,29.6701934 L368.243761,29.6701934 L368.243761,253.679377 C368.243761,258.87531 363.250314,263.087328 357.090412,263.087328 L11.1533491,263.087328 Z" id="Fill-3-Copy-2" fill="#E4EBF7"></path>
                <rect id="矩形-copy-13" fill="#FFFFFF" fill-rule="nonzero" x="122.355101" y="49.970852" width="222.119729" height="196.26666" rx="10.9930762"></rect>
                <rect id="矩形-copy-14" fill="#FFFFFF" fill-rule="nonzero" x="23.1482623" y="48.4092629" width="81.4439006" height="196.26666" rx="10.9930762"></rect>
                <rect id="矩形-copy-15" fill="#597EF7" fill-rule="nonzero" x="41.3361827" y="126.488719" width="45.764597" height="10.6656005" rx="5.33280024"></rect>
                <rect id="矩形-copy-16" fill="#AAC2FE" fill-rule="nonzero" x="41.3361827" y="146.789378" width="45.764597" height="10.3427" rx="5.17135"></rect>
                <rect id="矩形-copy-17" fill="#FF7946" fill-rule="nonzero" x="41.3361827" y="167.090036" width="45.764597" height="10.3427" rx="5.17135"></rect>
                <rect id="矩形-copy-18" fill="#AAC2FE" fill-rule="nonzero" x="41.3361827" y="187.390695" width="45.764597" height="10.3427" rx="5.17135"></rect>
                <rect id="矩形-copy-19" fill="#597EF7" fill-rule="nonzero" x="143.849916" y="193.637052" width="133.271837" height="5.60761885" rx="2.80380943"></rect>
                <rect id="矩形-copy-20" fill="#597EF7" fill-rule="nonzero" x="143.849916" y="223.307245" width="133.271837" height="5.60761885" rx="2.80380943"></rect>
                <rect id="矩形-copy-21" fill="#597EF7" fill-rule="nonzero" x="143.849916" y="207.691354" width="177.695783" height="5.60761885" rx="2.80380943"></rect>
                <rect id="矩形-copy-22" fill="#597EF7" fill-rule="nonzero" x="143.849916" y="68.7099215" width="178.572309" height="112.434417" rx="14.657435"></rect>
                <g id="分组-3-copy-2" transform="translate(44.643077, 65.586743)" fill-rule="nonzero">
                    <ellipse id="椭圆形" fill="#FFC53D" cx="20.6592643" cy="19.5969381" rx="20.4428777" ry="19.5265299"></ellipse>
                    <path d="M20.6592643,39.1234731 C26.5513072,39.1265998 32.1430839,36.6403289 35.9339269,32.3318968 C32.9469781,26.9156131 27.0651255,23.525046 20.6560701,23.525046 C14.2470146,23.525046 8.36516206,26.9156131 5.37821317,32.3318968 C9.17104114,36.6412803 14.7651823,39.1275627 20.6592643,39.1234731 L20.6592643,39.1234731 Z" id="路径" fill="#253369"></path>
                    <ellipse id="椭圆形" fill="#253369" cx="20.767867" cy="16.9578055" rx="7.68843854" ry="7.34380587"></ellipse>
                </g>
                <path d="M322.989452,107.74965 C323.446039,107.74965 323.816176,108.099223 323.816176,108.530444 C323.816176,108.942064 323.478923,109.279291 323.051151,109.309097 L322.989452,109.311239 L145.503363,109.311239 C145.046776,109.311239 144.67664,108.961665 144.67664,108.530444 C144.67664,108.118824 145.013892,107.781598 145.441664,107.751791 L145.503363,107.74965 L322.989452,107.74965 Z" id="路径-3" fill="#FFFFFF" fill-rule="nonzero"></path>
                <path d="M185.186099,67.2794815 C185.621932,67.2794815 185.978995,67.597998 186.010555,68.0020044 L186.012822,68.060276 L186.012822,181.144339 C186.012822,181.575559 185.642686,181.925133 185.186099,181.925133 C184.750266,181.925133 184.393202,181.606617 184.361643,181.20261 L184.359375,181.144339 L184.359375,68.060276 C184.359375,67.6290551 184.729512,67.2794815 185.186099,67.2794815 Z" id="路径-3-copy-2" fill="#FFFFFF" fill-rule="nonzero"></path>
                <path d="M233.136071,67.2794815 C233.571904,67.2794815 233.928967,67.597998 233.960527,68.0020044 L233.962794,68.060276 L233.962794,181.144339 C233.962794,181.575559 233.592657,181.925133 233.136071,181.925133 C232.700238,181.925133 232.343174,181.606617 232.311615,181.20261 L232.309347,181.144339 L232.309347,68.060276 C232.309347,67.6290551 232.679484,67.2794815 233.136071,67.2794815 Z" id="路径-3-copy-3" fill="#FFFFFF" fill-rule="nonzero"></path>
                <path d="M279.432595,67.2794815 C279.868428,67.2794815 280.225492,67.597998 280.257051,68.0020044 L280.259319,68.060276 L280.259319,181.144339 C280.259319,181.575559 279.889182,181.925133 279.432595,181.925133 C278.996762,181.925133 278.639699,181.606617 278.608139,181.20261 L278.605872,181.144339 L278.605872,68.060276 C278.605872,67.6290551 278.976008,67.2794815 279.432595,67.2794815 Z" id="路径-3-copy-4" fill="#FFFFFF" fill-rule="nonzero"></path>
                <path d="M322.989452,145.227789 C323.446039,145.227789 323.816176,145.577362 323.816176,146.008583 C323.816176,146.420203 323.478923,146.75743 323.051151,146.787236 L322.989452,146.789378 L145.503363,146.789378 C145.046776,146.789378 144.67664,146.439804 144.67664,146.008583 C144.67664,145.596963 145.013892,145.259737 145.441664,145.22993 L145.503363,145.227789 L322.989452,145.227789 Z" id="路径-3-copy" fill="#FFFFFF" fill-rule="nonzero"></path>
            </g>
        </g>
        <rect id="矩形备份" fill="#E4EBF7" x="22.5" y="361" width="191" height="15" rx="7.5"></rect>
        <g id="编组" transform="translate(448.500000, 24.000000)">
            <g id="编组" transform="translate(10.078125, 10.078125)">
                <g id="Fill-1" transform="translate(0.000000, 0.000000)" fill="#9254DE">
                    <path d="M1.214774e-05,54.4218629 C1.214774e-05,84.4781655 24.365463,108.843738 54.4218871,108.843738 C84.4781898,108.843738 108.843762,84.4781655 108.843762,54.4218629 C108.843762,24.3654387 84.4781898,-1.214774e-05 54.4218871,-1.214774e-05 C24.365463,-1.214774e-05 1.214774e-05,24.3654387 1.214774e-05,54.4218629 Z"></path>
                </g>
                <g id="分组复制" transform="translate(27.362109, 21.164063)">
                    <g id="分组" transform="translate(9.675000, 0.000000)" fill="#FFFFFF">
                        <path d="M5.78585826,17.3937531 C5.78585826,10.9900843 10.9748486,5.79881148 17.375702,5.79881148 C23.7765554,5.79881148 28.9655458,10.9900843 28.9655458,17.3937531 L28.9655458,23.2038153 L34.7604676,23.2038153 L34.7604676,17.397286 C34.7604676,7.79667428 26.9810566,0.0139320471 17.3848471,0.0139320471 L17.3847566,0.0139320471 C7.78845649,0.0139320471 0.00913605652,7.79667428 0.00913605652,17.397286 L0.00913605652,23.2038153 L5.78585826,23.2038153 L5.78585826,17.3937531 Z" id="Fill-1"></path>
                    </g>
                    <g id="分组" transform="translate(0.000000, 22.222266)">
                        <mask id="mask-2" fill="white">
                            <use xlink:href="#path-1"></use>
                        </mask>
                        <g id="Clip-4"></g>
                        <path d="M52.0999202,36.1300872 L2.17087335,36.1300872 C0.976827431,36.1300872 4.52255859e-05,35.154575 4.52255859e-05,33.9622825 L4.52255859e-05,2.16781372 C4.52255859e-05,0.975521142 0.976827431,9.03251953e-06 2.17087335,9.03251953e-06 L52.0999202,9.03251953e-06 C53.2937852,9.03251953e-06 54.2707484,0.975521142 54.2707484,2.16781372 L54.2707484,33.9622825 C54.2707484,35.154575 53.2937852,36.1300872 52.0999202,36.1300872" id="Fill-3" fill="#FFFFFF" mask="url(#mask-2)"></path>
                    </g>
                    <path d="M27.2109375,32.1996094 C28.3684338,32.1996094 29.3069151,33.1123169 29.3069151,34.238318 L29.3072792,40.9416617 C30.4965964,41.6549522 31.2925781,42.9567678 31.2925781,44.4445312 C31.2925781,46.6988072 29.4651114,48.5261719 27.2108717,48.5261719 C24.9567636,48.5261719 23.1292969,46.6988072 23.1292969,44.4445312 C23.1292969,42.9568609 23.925179,41.6551152 25.1143347,40.9417956 L25.1149599,34.238318 C25.1149599,33.1612735 25.9736082,32.2793784 27.0612609,32.2047279 L27.2109375,32.1996094 Z" id="形状结合" fill="#9254DE"></path>
                </g>
            </g>
        </g>
        <g id="编组" transform="translate(1.000000, 224.953315)" fill="#597EF7" opacity="0.100000001">
            <g id="编组" transform="translate(7.280273, 7.488281)">
                <polygon id="Fill-1" points="5.4994473 13.8325195 5.26953125 13.1559402 28.0723185 5.37353516 28.1827744 5.40766342 51.7246094 12.6713546 51.5147519 13.3544559 28.083373 6.12480361"></polygon>
                <path d="M5.91336496,43.3418105 L28.8239397,50.3782241 L28.8239397,21.1109119 L5.91336496,14.1697007 L5.91336496,43.3418105 Z M29.5371094,51.3432617 L5.20019531,43.8688106 L5.20019531,13.2084961 L29.5371094,20.5817725 L29.5371094,51.3432617 Z" id="Fill-2"></path>
                <path d="M29.5780288,20.8633658 L29.4910479,50.4066088 L50.9839073,42.8960636 L51.0771331,13.6468693 L29.5780288,20.8633658 Z M28.7744141,51.4125977 L28.8658556,20.3499843 L51.7939453,12.6538086 L51.6959914,43.4028474 L28.7744141,51.4125977 Z" id="Fill-3"></path>
                <g transform="translate(0.000000, 0.034668)">
                    <path d="M9.53625859,12.9244529 C9.53625859,15.3366015 7.58105821,17.2920267 5.1691869,17.2920267 C2.75731559,17.2920267 0.802115209,15.3366015 0.802115209,12.9244529 C0.802115209,10.5123043 2.75731559,8.55687917 5.1691869,8.55687917 C7.58105821,8.55687917 9.53625859,10.5123043 9.53625859,12.9244529" id="Fill-4"></path>
                    <path d="M10.3383738,43.9431399 C10.3383738,46.7983744 8.02409317,49.1129211 5.1691869,49.1129211 C2.31428062,49.1129211 0,46.7983744 0,43.9431399 C0,41.0879054 2.31428062,38.7733588 5.1691869,38.7733588 C8.02409317,38.7733588 10.3383738,41.0879054 10.3383738,43.9431399" id="Fill-6"></path>
                    <path d="M34.2235822,50.8064701 C34.2235822,53.6617046 31.9093016,55.9762513 29.0543953,55.9762513 C26.1994891,55.9762513 23.8852084,53.6617046 23.8852084,50.8064701 C23.8852084,47.9512356 26.1994891,45.6366889 29.0543953,45.6366889 C31.9093016,45.6366889 34.2235822,47.9512356 34.2235822,50.8064701" id="Fill-8"></path>
                    <path d="M32.9758475,5.16978117 C32.9758475,8.02501565 30.6615668,10.3395623 27.8066606,10.3395623 C24.9517543,10.3395623 22.6374737,8.02501565 22.6374737,5.16978117 C22.6374737,2.31454668 24.9517543,0 27.8066606,0 C30.6615668,0 32.9758475,2.31454668 32.9758475,5.16978117" id="Fill-10"></path>
                    <path d="M56.4154363,42.5169934 C56.4154363,45.3722279 54.1011557,47.6867746 51.2462494,47.6867746 C48.3913432,47.6867746 46.0770625,45.3722279 46.0770625,42.5169934 C46.0770625,39.6617589 48.3913432,37.3472122 51.2462494,37.3472122 C54.1011557,37.3472122 56.4154363,39.6617589 56.4154363,42.5169934" id="Fill-12"></path>
                    <path d="M55.3459494,12.5679163 C55.3459494,14.8323696 53.5104424,16.6680876 51.2462494,16.6680876 C48.9820565,16.6680876 47.1465495,14.8323696 47.1465495,12.5679163 C47.1465495,10.303463 48.9820565,8.46774501 51.2462494,8.46774501 C53.5104424,8.46774501 55.3459494,10.303463 55.3459494,12.5679163" id="Fill-14"></path>
                    <path d="M32.7975996,20.7682588 C32.7975996,22.7866127 31.1616411,24.4227593 29.1435192,24.4227593 C27.1253974,24.4227593 25.4894389,22.7866127 25.4894389,20.7682588 C25.4894389,18.749905 27.1253974,17.1137583 29.1435192,17.1137583 C31.1616411,17.1137583 32.7975996,18.749905 32.7975996,20.7682588" id="Fill-16"></path>
                </g>
            </g>
        </g>
        <g id="编组" transform="translate(464.326686, 229.134567)">
            <g id="分组" transform="translate(37.171875, 7.386719)">
                <g transform="translate(19.909722, 0.000000)" fill="#BAE637" id="Fill-1">
                    <path d="M15.8456907,62.1841311 L0.00636241883,62.1841311 L0.00636241883,7.91665863 C0.00636241883,3.59720768 3.53354383,0.0955413248 7.88462135,0.0955413248 L7.96730804,0.0955413248 C12.3183856,0.0955413248 15.8456907,3.59720768 15.8456907,7.91665863 L15.8456907,62.1841311 Z"></path>
                </g>
                <path d="M43.6319444,75.4673754 L27.7465278,75.4673754 L27.7465278,47.13004 C27.7465278,42.9246568 31.1958971,39.5155563 35.4509549,39.5155563 L35.9276415,39.5155563 C40.1825751,39.5155563 43.6319444,42.9246568 43.6319444,47.13004 L43.6319444,75.4673754 Z" id="Fill-3" fill="#389E0D"></path>
                <path d="M22.2395833,62.1557689 L6.24826389,62.1557689 L6.24826389,31.3460747 C6.24826389,27.1168981 9.70667376,23.6883706 13.972711,23.6883706 L14.5151362,23.6883706 C18.7811735,23.6883706 22.2395833,27.1168981 22.2395833,31.3460747 L22.2395833,62.1557689 Z" id="Fill-5" fill="#7CB305"></path>
                <g transform="translate(0.000000, 60.269084)" fill="#253369" id="Fill-7">
                    <path d="M44.5768499,46.896108 L2.97722343,46.896108 C1.33292774,46.896108 0,45.5770018 0,43.9497564 L0,3.02763403 C0,1.40038862 1.33292774,0.0812824737 2.97722343,0.0812824737 L44.5768499,0.0812824737 C46.2211456,0.0812824737 47.5540733,1.40038862 47.5540733,3.02763403 L47.5540733,43.9497564 C47.5540733,45.5770018 46.2211456,46.896108 44.5768499,46.896108"></path>
                </g>
            </g>
        </g>
        <g id="编组" transform="translate(36.135135, 54.000000)">
            <g id="2.人物组件/6.产品经理/站立/摸头" transform="translate(85.304054, 187.500000) scale(-1, 1) translate(-85.304054, -187.500000) ">
                <path d="M82.8708725,109.577435 L83.3811974,95.3056458 L95.0701853,95.7033508 L96.000366,109.319806 C96.2812696,113.433087 93.378266,116.970135 89.6270536,117.085492 C85.8218597,117.203046 82.7214238,113.757184 82.8708725,109.577435" id="Fill-1" fill="#FFC999"></path>
                <path d="M80.3187985,93.88797 C80.3187985,93.88797 78.4754312,91.9197693 77.7636755,93.3122864 C77.0519198,94.7042542 78.5074202,99.5431824 80.4452551,99.6030579 C83.0333668,99.6821594 80.3187985,93.88797 80.3187985,93.88797" id="Fill-3" fill="#FFC999"></path>
                <path d="M91.9317625,106.010504 C91.9317625,106.010504 88.2345315,109.556891 83.11129,106.344489 C79.4235558,104.031866 78.7262951,95.2252258 79.2396189,88.7262634 C79.5305191,85.0491394 81.0115107,83.0254578 84.2314056,81.8301453 C87.4518002,80.6348328 96.2637756,80.2981018 96.6246518,91.077887 C97.026014,103.084296 91.9317625,106.010504 91.9317625,106.010504" id="Fill-5" fill="#FFC999"></path>
                <path d="M84.9280865,90.2378363 C85.0125363,90.2112576 85.1001999,90.2560307 85.1377466,90.3396408 L85.1493733,90.3727515 L85.738671,92.6342872 C85.7435522,92.6530195 85.7458595,92.672392 85.74556,92.6917679 L85.7431516,92.7207549 L84.8408797,98.6700439 L86.9761689,98.617798 C87.0650893,98.6156166 87.1403053,98.6851062 87.156067,98.7781826 L87.1590561,98.8100158 C87.1610409,98.9077402 87.0978117,98.9904032 87.0131205,99.0077255 L86.9841553,99.0110106 L84.6329623,99.0687393 C84.5309936,99.0711903 84.4499836,98.9804584 84.4499836,98.8725629 L84.4524647,98.8397554 L85.3833602,92.7000732 L84.8053258,90.4810327 C84.7811416,90.3882214 84.8218811,90.2918783 84.8979587,90.2506141 L84.9280865,90.2378363 Z" id="Stroke-7" fill="#DD936F" fill-rule="nonzero"></path>
                <path d="M87.6528394,89.0801303 L87.6988164,89.0816734 L89.4708762,89.2431227 L89.883629,89.276818 C91.0745438,89.368597 91.8405586,89.3759644 92.2138113,89.2813565 C92.4705588,89.216279 92.7266967,89.3922656 92.7859114,89.6744336 C92.845126,89.9566017 92.684994,90.2380998 92.4282465,90.3031772 C91.9141926,90.4334739 91.0648935,90.4233383 89.6975945,90.3136091 L88.9803381,90.2516817 L87.6909896,90.1328923 C87.6684654,90.1309261 87.64632,90.1290079 87.6244399,90.1271278 C87.3617542,90.1045558 87.165455,89.8522246 87.1859935,89.5635304 C87.2053239,89.2918181 87.4098425,89.0847344 87.6528394,89.0801303 Z" id="Stroke-9" fill="#253368" fill-rule="nonzero"></path>
                <path d="M88.6576626,100.26771 C88.7901858,100.220588 88.9288898,100.313615 88.9674668,100.47549 C89.0060437,100.637365 88.9298853,100.80679 88.7973621,100.853911 L88.6768556,100.892498 C88.6496711,100.900621 88.6189756,100.909515 88.5848274,100.919066 C88.416811,100.966059 88.2208993,101.012865 87.9986709,101.056429 C87.0227689,101.247739 85.882979,101.317094 84.616033,101.193575 C84.4784468,101.180162 84.3758133,101.033049 84.3867947,100.864989 C84.3977762,100.69693 84.5182141,100.571564 84.6558004,100.584978 C85.8812352,100.704449 86.9813821,100.637507 87.9194677,100.45361 C88.0884273,100.420489 88.2407036,100.385557 88.3754777,100.350359 L88.5557673,100.300152 C88.6038362,100.285828 88.6379593,100.274715 88.6576626,100.26771 Z" id="Stroke-11" fill="#FF7A46" fill-rule="nonzero"></path>
                <g id="分组" transform="translate(78.139846, 76.071167)">
                    <mask id="mask-4" fill="white">
                        <use xlink:href="#path-3"></use>
                    </mask>
                    <g id="Clip-14"></g>
                    <path d="M17.501293,19.666626 L19.2921783,15.446228 C19.2921783,15.446228 20.3293223,9.4152832 18.992781,6.8840332 C16.918493,2.95587158 12.4415296,3.22119141 9.75095314,2.24890137 C7.06087646,1.27606201 7.05687784,0.291687012 5.98324634,0.493286133 C4.90911502,0.694885254 0.826016483,4.04406738 0.455143779,7.40753174 C0.129255635,10.3650513 1.02994649,17.8390503 1.02994649,17.8390503 C1.02994649,17.8390503 1.58875468,11.1725464 2.11957249,9.39880371 C4.19835898,8.35675049 11.854731,8.03869629 15.0826231,9.00878906 C15.0826231,9.00878906 15.4255054,11.2587891 15.6324344,12.8452148 C17.3828336,14.1306152 17.501293,19.666626 17.501293,19.666626" id="Fill-13" fill="#253368" mask="url(#mask-4)"></path>
                </g>
                <path d="M95.052254,100.914789 C95.1012154,100.820446 95.2104967,100.787587 95.2963406,100.841396 C95.3821845,100.895205 95.4120836,101.015306 95.3631222,101.109649 C94.5316361,102.711832 93.6426126,104.00841 92.7031278,105.019101 C89.8578481,108.080033 86.8143984,108.366969 84.0200822,107.015048 C83.6845346,106.852707 83.3839134,106.678646 83.1222579,106.504274 C83.053237,106.458277 82.9905695,106.414649 82.9344701,106.373988 L82.8077151,106.278482 C82.8020758,106.273999 82.797263,106.270112 82.7932846,106.266844 C82.7141272,106.201821 82.6979203,106.078586 82.7570853,105.991592 C82.8162504,105.904597 82.9283829,105.886785 83.0075402,105.951808 L83.0550531,105.989298 C83.1119514,106.032834 83.1968057,106.093983 83.307818,106.167963 C83.5566352,106.33378 83.8435549,106.499907 84.1642747,106.655075 C86.8349882,107.947195 89.7228027,107.674932 92.4527862,104.738036 C93.367498,103.753995 94.2365877,102.486489 95.052254,100.914789 Z" id="Stroke-15" fill="#DD936F" fill-rule="nonzero"></path>
                <path d="M85.1559928,92.3252355 L86.8868987,92.3464257 C87.0845409,92.3488452 87.2433273,92.5699207 87.2415727,92.8402116 C87.2399067,93.0924831 87.0989773,93.2984652 86.9195036,93.3228411 L86.8804917,93.3252355 L85.1495858,93.3040453 C84.9519436,93.3016257 84.7931572,93.0805502 84.7949118,92.8102594 C84.7965778,92.5579879 84.9375072,92.3520057 85.1169809,92.3276299 L85.1559928,92.3252355 Z" id="Stroke-17" fill="#393C68" fill-rule="nonzero"></path>
                <path d="M85.728451,93.3553118 C86.0702449,93.3216636 86.4194888,93.4024733 86.7610825,93.5549823 C86.9315333,93.6310823 87.0639701,93.7080663 87.1451547,93.7636507 C87.3129134,93.8785096 87.3641855,94.1210812 87.2596743,94.3054496 C87.1551631,94.4898181 86.9344448,94.5461667 86.7666861,94.4313078 L86.7133121,94.3974751 C86.6596045,94.365426 86.5836548,94.3248198 86.4916939,94.2837626 C86.2465245,94.1743035 86.003299,94.1180249 85.7923104,94.1387958 C85.6302284,94.1547522 85.4936857,94.2152112 85.3775503,94.3303608 L85.3349461,94.3761255 C85.1990589,94.5338639 84.9725483,94.5406712 84.8290205,94.3913298 C84.6854926,94.2419884 84.6792987,93.993051 84.8151859,93.8353125 C85.0653536,93.5449166 85.3787882,93.3897347 85.728451,93.3553118 Z" id="Stroke-19" fill="#393C68" fill-rule="nonzero"></path>
                <path d="M81.5228605,88.7773731 C82.2933916,88.7143244 83.1005091,88.8748131 83.8959651,89.17865 C84.2999206,89.3329471 84.6125572,89.4883752 84.7974861,89.596637 C85.0300378,89.7327782 85.1181367,90.0503283 84.9942604,90.305905 C84.8703841,90.5614816 84.5814421,90.6583031 84.3488904,90.5221619 L84.2739538,90.4808023 C84.2404071,90.4629661 84.198501,90.4413314 84.1488599,90.4166522 C83.9796924,90.3325502 83.7892622,90.2480681 83.5827183,90.1691753 C82.900134,89.9084516 82.2152422,89.7722665 81.5937058,89.8231237 C81.1160116,89.862211 80.6983301,90.0113331 80.347228,90.2835113 C80.1319154,90.450424 79.8342508,90.3939064 79.6823753,90.1572758 C79.5304998,89.9206452 79.5819258,89.5935087 79.7972383,89.4265961 C80.2984976,89.0380144 80.8815597,88.8298476 81.5228605,88.7773731 Z" id="Stroke-21" fill="#253368" fill-rule="nonzero"></path>
                <path d="M87.1275138,102.463348 C87.2263381,102.462292 87.3067633,102.681902 87.3071499,102.953864 C87.3074952,103.198629 87.2428913,103.402382 87.1579242,103.441457 L87.1289088,103.448214 L85.7183929,103.463348 C85.6195686,103.464405 85.5391434,103.244795 85.5387568,102.972833 C85.5384115,102.728067 85.6030154,102.524315 85.6879825,102.485239 L85.7169979,102.478483 L87.1275138,102.463348 Z" id="Stroke-23" fill="#DD936F" fill-rule="nonzero"></path>
                <path d="M96.1316164,92.2697057 C96.3292576,92.267175 96.4910012,92.4808364 96.4928973,92.7469317 C96.4946351,92.9952873 96.3565102,93.2015414 96.1773962,93.2299956 L96.1384232,93.2333221 L93.3003973,93.2696612 C93.1027562,93.2721919 92.9410126,93.0585305 92.9391164,92.7924352 C92.9373786,92.5440796 93.0755036,92.3378256 93.2546176,92.3093713 L93.2935905,92.3060448 L96.1316164,92.2697057 Z" id="Stroke-25" fill="#393C68" fill-rule="nonzero"></path>
                <path d="M93.0822177,92.0774718 L87.6630777,92.1010986 C87.2847076,92.1027466 86.9793124,92.4400269 86.9832722,92.8558594 C86.9913083,93.6314941 87.035793,94.8751465 87.2227288,95.9391724 C87.443653,97.1943604 88.4742993,97.9584595 89.6364004,98.0128418 C91.0879022,98.0798584 92.3909549,98.0760132 93.04623,97.2454468 C94.0453871,95.9798218 93.791974,93.9045044 93.7664828,92.8047729 C93.7574859,92.4010254 93.4495916,92.0758301 93.0822177,92.0774718" id="Fill-27" fill="#FFFFFF"></path>
                <path d="M93.0817329,91.9464536 L87.6626048,91.9700877 C87.2176935,91.9720255 86.8594218,92.36915 86.8640249,92.8572304 C86.8756615,93.9760686 86.94675,95.0593819 87.1056816,95.9640097 C87.3290333,97.2329897 88.3623673,98.0843521 89.631329,98.1437352 L89.896024,98.154721 C91.7035347,98.2206218 92.5688255,98.050548 93.1362973,97.3312729 C93.5660045,96.786966 93.7999526,96.0761548 93.8893242,95.2049932 C93.941356,94.6978061 93.9438555,94.2377664 93.9148231,93.5256772 L93.8866508,92.8438444 C93.886337,92.8309461 93.8860167,92.8171197 93.8856532,92.8014366 C93.8750824,92.3270556 93.5144833,91.944527 93.0817329,91.9464536 Z M87.6635501,92.2321096 L93.0826906,92.2084726 C93.3860359,92.2071271 93.6399218,92.4764529 93.6473094,92.8079804 L93.6591408,93.1378591 L93.6699937,93.3819523 C93.7052356,94.171846 93.7063231,94.650083 93.6524071,95.175637 C93.5679892,95.9985121 93.350048,96.6606889 92.9561876,97.1595891 C92.4297979,97.8267922 91.5533393,97.9702204 89.6414041,97.8819453 C88.4767876,97.8274452 87.5407645,97.0562571 87.3397684,95.9142912 C87.1840957,95.0282129 87.1139156,93.9587429 87.1024115,92.8543677 C87.0992145,92.5121244 87.3506043,92.2334726 87.6635501,92.2321096 Z" id="Stroke-29" fill="#253368" fill-rule="nonzero"></path>
                <path d="M84.6298188,92.0482508 L78.4949245,92.0751709 C78.2710014,93.0611938 78.5039214,96.8707031 79.5595591,97.6825928 C80.9730739,98.4884399 83.8205966,98.1242432 84.2604456,97.2953247 C84.9277166,96.0373901 85.1676342,93.6423706 85.1521395,92.611853 C85.1476411,92.2981934 84.9157207,92.0471558 84.6298188,92.0482508" id="Fill-31" fill="#FFFFFF"></path>
                <path d="M84.6294034,91.9172353 L78.4944486,91.94416 C78.4399077,91.9443993 78.3924707,91.9852884 78.3792634,92.0434458 C78.0538565,93.4763419 78.5483004,97.0647412 79.4912096,97.7899315 C80.9077689,98.5987997 83.8628876,98.3046095 84.3634233,97.3613238 C84.9414305,96.2716687 85.2932991,94.0706497 85.2713323,92.6096884 C85.2658036,92.2241865 84.9803697,91.9158954 84.6294034,91.9172353 Z M78.5903584,92.2056885 L84.6302948,92.179259 C84.8505686,92.1784181 85.0294706,92.3716463 85.0329453,92.6139178 C85.0542596,94.0314922 84.7093638,96.1888953 84.157459,97.2293423 C83.7330853,98.0290967 80.917842,98.3093619 79.6144516,97.5662969 L79.5679415,97.5271556 C78.799075,96.8253098 78.3477545,93.6767927 78.579477,92.2674066 L78.5903584,92.2056885 Z" id="Stroke-33" fill="#253368" fill-rule="nonzero"></path>
                <path d="M93.6596082,91.7227441 C93.8571682,91.7161843 94.0221609,91.8868773 94.0281297,92.1039976 C94.0337006,92.3066433 93.8987752,92.4781104 93.7201368,92.5054054 L93.6812233,92.5090064 L86.9645287,92.7320289 C86.7669688,92.7385887 86.6019761,92.5678957 86.5960072,92.3507753 C86.5904363,92.1481297 86.7253618,91.9766626 86.9040002,91.9493676 L86.9429136,91.9457665 L93.6596082,91.7227441 Z" id="Stroke-35" fill="#393C68" fill-rule="nonzero"></path>
                <path d="M78.4485053,91.8305804 L85.0317457,91.9155683 C85.2293858,91.9181198 85.3879868,92.1250206 85.3860096,92.3776942 C85.3841283,92.6135229 85.2430263,92.8058748 85.0635323,92.8283992 L85.0245185,92.8305804 L78.441278,92.7455924 C78.243638,92.7430409 78.085037,92.5361401 78.0870141,92.2834665 C78.0888955,92.0476378 78.2299975,91.8552859 78.4094914,91.8327616 L78.4485053,91.8305804 Z" id="Stroke-37" fill="#393C68" fill-rule="nonzero"></path>
                <path d="M96.4028779,92.3513672 C97.0636511,91.535083 98.1287855,91.2664673 98.9240126,92.1338379 C100.205073,93.5307495 99.2863882,98.9980957 95.9955177,99.3831665 C94.7344506,99.2529785 95.371232,93.6252319 96.4028779,92.3513672" id="Fill-39" fill="#FFC999"></path>
                <path d="M97.8122481,92.7799463 C97.9031218,92.7372632 98.0082736,92.7836233 98.0471113,92.8834943 C98.085949,92.9833654 98.0437656,93.0989283 97.9528919,93.1416114 L97.9065575,93.1654601 C97.8777107,93.1812248 97.8407698,93.2027447 97.7976484,93.2299968 C97.6765444,93.3065326 97.555339,93.3988689 97.4428547,93.506467 C97.0431715,93.8887888 96.85831,94.3505307 96.9873604,94.9096461 C97.0218665,95.0588358 97.0755113,95.1287761 97.2089014,95.2124631 L97.2928016,95.2619071 C97.5708147,95.4213598 97.6953212,95.5640642 97.733656,95.8898928 C97.7915332,96.3839825 97.5872397,96.7659232 97.2256425,97.0349938 C97.0417379,97.1718402 96.8597732,97.2523035 96.7323159,97.2894228 C96.636788,97.3172433 96.5388261,97.2546882 96.5135119,97.1497021 C96.4881978,97.044716 96.5451173,96.9370549 96.6406452,96.9092344 L96.698381,96.8889233 C96.7154286,96.8822653 96.735061,96.8741511 96.7568248,96.8645274 C96.8486148,96.8239386 96.9403783,96.7722793 97.0249969,96.7093132 C97.2844223,96.5162704 97.4171348,96.2681553 97.3787208,95.9402205 C97.3603622,95.7841806 97.3197286,95.7263581 97.1706404,95.6361071 L97.0896467,95.5889998 C96.8399386,95.4444794 96.7084733,95.300371 96.6404915,95.0064463 C96.4738172,94.2843246 96.7154055,93.6808921 97.2078973,93.2097932 C97.3391855,93.0842079 97.4791647,92.9775696 97.6192454,92.8890407 C97.7040871,92.835422 97.7712725,92.7991924 97.8122481,92.7799463 Z" id="Stroke-41" fill="#DD936F" fill-rule="nonzero"></path>
                <path d="M82.9324014,93.8563293 C82.953894,94.4539856 82.6355033,94.9527649 82.2211455,94.9708923 C81.8072876,94.9884705 81.4539089,94.5188049 81.4324163,93.9211487 C81.4109236,93.3240417 81.7293144,92.8247131 82.1436721,92.807135 C82.5575301,92.7890076 82.9109088,93.2586731 82.9324014,93.8563293" id="Fill-43" fill="#253368"></path>
                <path d="M90.730025,93.982782 C90.7515176,94.5804382 90.4331269,95.0792175 90.0187691,95.097345 C89.6049112,95.1149231 89.2515325,94.6452576 89.2300399,94.0476013 C89.2090471,93.4504944 89.5269379,92.9511658 89.9412957,92.9335876 C90.3551537,92.9154602 90.7085324,93.3851257 90.730025,93.982782" id="Fill-45" fill="#253368"></path>
                <path d="M59.0040644,161.255035 L59.0040644,161.255035 C55.8941319,159.763092 54.3851498,155.862946 55.5652448,152.367096 L66.2525765,120.697906 C67.824537,116.040253 72.6353857,113.791901 76.7784637,115.779327 C80.8720586,117.743134 82.6594451,123.054474 80.7131132,127.473175 L67.3212097,157.875092 C65.8242235,161.273163 62.1524838,162.765656 59.0040644,161.255035" id="Fill-47" fill="#FFC999"></path>
                <path d="M72.2235937,147.152124 L58.4668155,140.552637 L66.1756696,120.160913 C67.8630904,115.697717 72.5529807,113.6224 76.5835972,115.555994 C80.6142138,117.489587 82.4185944,122.680078 80.5877229,127.074609 L72.2235937,147.152124 Z" id="Fill-49" fill="#597EF7"></path>
                <path d="M58.9032373,141.379904 C58.9442234,141.252918 59.0639586,141.181445 59.1807203,141.208264 L59.2124293,141.218047 L73.1271533,146.642547 C73.2532031,146.691686 73.3191403,146.843822 73.2744282,146.982352 C73.233442,147.109338 73.1137068,147.180811 72.9969451,147.153992 L72.9652361,147.144209 L59.0505122,141.719709 C58.9244623,141.67057 58.8585251,141.518434 58.9032373,141.379904 Z" id="Stroke-51" fill="#1D39C4" fill-rule="nonzero" transform="translate(66.088833, 144.181128) rotate(2.000000) translate(-66.088833, -144.181128) "></path>
                <path d="M61.8190482,312.362091 C55.3537674,315.170197 52.1553652,310.816315 52.1553652,310.816315 C52.1553652,310.816315 52.004417,309.31723 53.1590207,307.673676 C54.6045245,305.617035 57.7429473,304.950165 61.5281481,301.040131 C64.4356501,298.036469 66.4104723,293.299164 66.4104723,293.299164 C68.5337435,290.017548 74.8805651,293.058014 74.8805651,293.058014 C74.8805651,293.058014 74.9735332,301.037384 74.7601064,304.974335 C74.7601064,304.974335 74.478703,307.137543 69.5488951,307.791229 C65.8596614,308.280121 65.6912192,310.680084 61.8190482,312.362091" id="Fill-53" fill="#4E5C93"></path>
                <path d="M75.9199083,295.055438 L84.0181288,235.394183 C84.6324179,230.234454 81.2610751,225.530658 76.553191,224.978046 C71.8448071,224.425433 67.6457483,228.240985 67.2548825,233.426532 L62.7319349,293.383319 C62.7319349,293.383319 69.2312041,297.208759 75.9199083,295.055438" id="Fill-55" fill="#ADC6FF"></path>
                <path d="M74.7738017,242.537494 L74.7738017,242.537494 C70.2168658,242.003009 66.892007,237.55025 67.3043655,232.534442 L71.2170225,184.882892 C71.6743656,179.313373 76.1958136,175.235797 81.255577,175.829608 C86.3148405,176.423419 89.9505925,181.457904 89.3278063,187.008197 L83.997136,234.493304 C83.4358286,239.492084 79.3307376,243.072528 74.7738017,242.537494" id="Fill-57" fill="#ADC6FF"></path>
                <g id="分组" transform="translate(95.134013, 291.952515)">
                    <mask id="mask-6" fill="white">
                        <use xlink:href="#path-5"></use>
                    </mask>
                    <g id="Clip-60"></g>
                    <path d="M13.3838562,20.4967529 C19.8586338,23.2779419 23.042541,18.9114258 23.042541,18.9114258 C23.042541,18.9114258 23.1879911,17.4112427 22.0278893,15.7726318 C20.5753878,13.7220337 17.4344659,13.0683472 13.6362696,9.17369385 C10.7187709,6.1821167 8.72745444,1.45305176 8.72745444,1.45305176 C6.59318699,-1.81977539 0.137402839,2.33745117 0.137402839,2.33745117 C0.137402839,2.33745117 0.190884482,9.22642822 0.417806594,13.1622803 C0.417806594,13.1622803 0.706707434,15.3243896 5.63851467,15.9577515 C9.32924788,16.4318115 9.50618715,18.8312256 13.3838562,20.4967529" id="Fill-59" fill="#4E5C93" mask="url(#mask-6)"></path>
                </g>
                <path d="M92.0037378,294.364233 L89.2676769,234.277258 C89.0312581,229.080176 92.7339872,224.687292 97.4673625,224.550513 C102.200238,224.413733 106.108397,228.585242 106.120892,233.788916 L105.267685,293.958289 C105.267685,293.958289 98.5145031,297.09873 92.0037378,294.364233" id="Fill-61" fill="#ADC6FF"></path>
                <path d="M97.9033129,242.755573 L97.9033129,242.755573 C102.48474,242.623187 106.122492,238.476947 106.077007,233.440814 L105.643156,185.598102 C105.592674,180.006061 101.382619,175.543964 96.2958646,175.69118 C91.2091106,175.838397 87.2189801,180.537799 87.4364055,186.124896 L89.2947676,233.92641 C89.4907004,238.958698 93.3218854,242.887958 97.9033129,242.755573" id="Fill-63" fill="#ADC6FF"></path>
                <path d="M103.490745,157.952435 C103.490745,157.952435 105.537543,142.703961 106.632667,136.624677 C107.728291,130.544843 109.726105,115.981366 107.423395,114.999738 C105.120686,114.018109 99.0937543,112.018048 99.0937543,112.018048 C99.0937543,112.018048 94.2749083,112.221844 89.4575618,113.569318 C85.6443706,114.63609 86.0817205,111.957623 81.4498103,113.006268 C79.4884835,113.450665 70.8364532,113.89671 70.580541,115.975873 C68.0409127,136.615887 73.23463,161.305463 73.23463,161.305463 C73.23463,161.305463 71.4647375,163.468671 73.7979367,166.074078 C74.5676725,166.91618 79.7343991,166.654706 85.8767908,166.405316 C92.8693907,166.12132 101.560907,165.659894 102.60155,165.202313 C105.951401,163.727399 103.490745,157.952435 103.490745,157.952435" id="Fill-65" fill="#597EF7"></path>
                <polygon id="Fill-67" fill="#597EF7" points="83.5603359 109.748053 88.1712533 113.722906 83.3564059 119.633551 80.5938541 112.943976"></polygon>
                <polygon id="Fill-69" fill="#597EF7" points="88.0597915 113.862158 92.7136941 120.460547 98.8950725 111.808264 96.0345543 108.33219"></polygon>
                <path d="M87.6558527,114.887392 C87.6983967,114.743089 87.8393278,114.664011 87.9706312,114.710767 C88.1019346,114.757523 88.1738884,114.912408 88.1313444,115.056712 L88.1086611,115.139616 C88.0959403,115.188376 88.0797655,115.25321 88.060397,115.334884 L88.0452759,115.39931 C87.9744418,115.704105 87.8952381,116.089319 87.8097391,116.561075 L87.7531353,116.880877 C87.5267537,118.190075 87.3011335,119.860248 87.0892771,121.929937 L87.0383092,122.438312 C86.5591709,127.318122 86.2248611,133.631859 86.0959932,141.559907 L86.0831895,142.400408 C85.9609945,151.009075 86.3250319,158.372722 86.8968152,163.856309 C86.9125293,164.007013 86.8141052,164.143182 86.6769788,164.160452 C86.5398524,164.177722 86.4159508,164.069553 86.4002367,163.918849 L86.342579,163.352422 C85.8113667,158.005714 85.4769118,150.983904 85.5776099,142.829742 L85.5962514,141.549674 C85.7299165,133.327146 86.0843478,126.833617 86.5925817,121.868528 L86.6461865,121.355972 C86.8527535,119.422883 87.0714374,117.853454 87.2909095,116.613621 L87.3195398,116.45377 C87.397055,116.026066 87.4697973,115.666644 87.5363355,115.371182 L87.5920227,115.132567 C87.6207087,115.01432 87.6422708,114.933461 87.6558527,114.887392 Z" id="Stroke-71" fill="#1D39C4" fill-rule="nonzero"></path>
                <path d="M93.5364877,126.948325 L93.3079659,127.030392 C93.2040947,127.068667 93.1350155,127.176829 93.1374981,127.297197 L93.1519598,127.923715 C93.1952795,129.670725 93.2599624,131.179273 93.3405605,132.464033 L93.378853,133.040545 C93.4176821,133.592612 93.4579789,134.071729 93.498462,134.481352 L93.5119615,134.615324 C93.5284117,134.775414 93.5439497,134.914929 93.5583288,135.034535 L93.5845361,135.240298 C93.587277,135.260262 93.5895122,135.275831 93.5912109,135.287088 C93.6029278,135.364743 93.6443978,135.433141 93.7050975,135.474925 L97.5282853,138.1067 C97.6086547,138.162024 97.7105921,138.162588 97.7914649,138.108158 L102.504847,134.935855 C102.576111,134.887892 102.620847,134.803956 102.624058,134.712184 L102.90946,126.555934 C102.914231,126.419586 102.827201,126.300063 102.705109,126.275287 L102.567913,126.249988 L102.462736,126.232328 C102.269231,126.200758 102.045831,126.169252 101.79526,126.139885 C99.1775378,125.833088 96.2784432,125.989033 93.5364877,126.948325 Z M101.742258,126.686104 L101.885164,126.703458 L102.100005,126.731975 C102.168737,126.741598 102.234558,126.751316 102.297376,126.761061 L102.401186,126.777466 L102.129279,134.544067 L97.6621457,137.550659 L94.0677127,135.076172 L94.0320169,134.773097 L94.0086329,134.553682 C93.9598275,134.078716 93.9109565,133.500392 93.8643732,132.812419 L93.8252312,132.198547 L93.7982916,131.729121 C93.7414076,130.691701 93.6943032,129.521801 93.6594236,128.212877 L93.6418589,127.487915 L93.6881052,127.471759 C96.3538978,126.539113 99.187526,126.38669 101.742258,126.686104 Z" id="Stroke-73" fill="#1D39C4" fill-rule="nonzero"></path>
                <path d="M87.9814184,119.105054 C87.9919148,119.593945 88.3008088,119.982861 88.6716815,119.973523 C89.0425542,119.963635 89.3349538,119.559888 89.3244574,119.070447 C89.3144609,118.581555 89.0050671,118.192639 88.6341944,118.201978 C88.2633217,118.211865 87.970922,118.616162 87.9814184,119.105054" id="Fill-75" fill="#FFFFFF"></path>
                <path d="M87.2326754,128.132959 C87.2431718,128.6224 87.5520658,129.010767 87.9229385,129.001428 C88.2938112,128.99209 88.5862108,128.587793 88.5757144,128.098352 C88.565218,127.60946 88.2563241,127.220544 87.8854514,127.229883 C87.5145787,127.239771 87.222179,127.644067 87.2326754,128.132959" id="Fill-77" fill="#FFFFFF"></path>
                <path d="M86.9024887,137.888708 C86.9129851,138.3776 87.2218791,138.766516 87.5927518,138.757178 C87.9636245,138.74729 88.2560242,138.343542 88.2455278,137.854102 C88.2350314,137.36521 87.9261374,136.976294 87.5552647,136.985632 C87.1838922,136.99552 86.8919924,137.399817 86.9024887,137.888708" id="Fill-79" fill="#FFFFFF"></path>
                <path d="M87.1609001,147.752124 C87.1713965,148.241016 87.4802904,148.629932 87.8511631,148.620593 C88.2220358,148.610706 88.5144355,148.206958 88.5039391,147.717517 C88.4934427,147.228625 88.1845487,146.839709 87.813676,146.849048 C87.4428033,146.858936 87.1504037,147.263232 87.1609001,147.752124" id="Fill-81" fill="#FFFFFF"></path>
                <path d="M87.3539838,159.143738 C87.3644802,159.632629 87.6733742,160.021545 88.0442469,160.012207 C88.4151196,160.002869 88.7075192,159.598572 88.6970228,159.109131 C88.6865264,158.620239 88.3776324,158.231323 88.0067597,158.240662 C87.635887,158.250549 87.3434874,158.654846 87.3539838,159.143738" id="Fill-83" fill="#FFFFFF"></path>
                <path d="M98.6239268,111.89834 C98.7089832,111.778876 98.8660549,111.75781 98.9747562,111.851288 C99.0735756,111.936268 99.0984005,112.086657 99.0381934,112.203053 L99.0175692,112.236853 L93.0446193,120.626013 C92.9526983,120.755119 92.7817238,120.765728 92.6768891,120.657241 L92.6521424,120.627637 L87.9372607,114.107252 C87.851388,113.988495 87.8693726,113.815718 87.9774303,113.721343 C88.0756645,113.635548 88.2145218,113.644083 88.3034742,113.735568 L88.3285722,113.76549 L92.846132,120.013184 L98.6239268,111.89834 Z" id="Stroke-85" fill="#1D39C4" fill-rule="nonzero"></path>
                <path d="M80.5263634,113.397936 C80.6372066,113.347899 80.7625244,113.396249 80.8220213,113.50613 L80.8378154,113.540903 L83.2867465,120.093018 L87.8759723,113.775742 C87.9507352,113.672823 88.0816435,113.648172 88.182221,113.712446 L88.2113978,113.734407 C88.3050444,113.816572 88.3274743,113.960441 88.268991,114.070977 L88.2490089,114.103043 L83.406671,120.768997 C83.3006875,120.914894 83.0979869,120.893884 83.0152073,120.740004 L82.9993833,120.705008 L80.3962768,113.740225 C80.3461941,113.606226 80.4044359,113.452978 80.5263634,113.397936 Z" id="Stroke-87" fill="#1D39C4" fill-rule="nonzero"></path>
                <path d="M69.9021124,125.785947 C70.0228864,125.782304 70.1253919,125.877646 70.1446829,126.005096 L70.1496204,126.103322 L70.1721888,126.820397 C70.1826932,127.135266 70.1949955,127.484456 70.2091878,127.865773 L70.2492122,128.897652 C70.2918454,129.955055 70.3423698,131.087492 70.4013646,132.281171 L70.421344,132.681314 C70.6725964,137.662756 71.0160239,142.644054 71.4655194,147.29231 L71.5387569,148.037098 C72.0687113,153.337037 72.7081539,157.822414 73.4665167,161.24371 C73.4827406,161.316903 73.4695466,161.394229 73.4302959,161.455988 C72.4468524,163.003411 72.5578693,164.254739 73.3279388,165.259308 C73.4602149,165.431865 73.6021853,165.581364 73.7437516,165.706702 L73.8200756,165.772063 L73.8823077,165.821411 L73.9841938,165.835305 C76.7190586,166.195992 80.7255015,166.266585 85.6770099,166.099945 L86.2583039,166.079455 C89.1354188,165.973524 92.2028368,165.794524 95.3384681,165.562987 L96.1825277,165.499517 C97.5779077,165.392701 98.914606,165.281018 100.16634,165.168895 L101.700932,165.027102 L102.579345,164.940933 C102.710586,164.927455 102.826919,165.033454 102.839183,165.177689 C102.851447,165.321924 102.754997,165.449776 102.623756,165.463254 L101.742337,165.549722 C101.448273,165.577822 101.129177,165.607703 100.786812,165.639068 L99.4430133,165.759039 C98.1565165,165.870968 96.7902512,165.981566 95.3704675,166.086404 C92.2298542,166.318309 89.1572453,166.497612 86.2742863,166.603758 L85.6959314,166.624153 C80.6241264,166.794987 76.5369371,166.718011 73.7681045,166.334649 C73.7343526,166.329976 73.7018997,166.317427 73.6729213,166.297844 C73.4897773,166.174077 73.2259816,165.94052 72.9628837,165.597305 C72.0964607,164.46704 71.937733,163.030414 72.9088249,161.368917 L72.9776182,161.253662 L72.9496355,161.125678 C72.1912494,157.629664 71.5542949,153.08076 71.0274355,147.722866 L70.9908563,147.34775 C70.5669101,142.963701 70.2372435,138.285832 69.9901123,133.590801 L69.9447395,132.710348 C69.8769882,131.367079 69.8197877,130.097595 69.7723408,128.920797 L69.7063035,127.166532 L69.6703994,126.056336 C69.6667569,125.911537 69.770359,125.790633 69.9021124,125.785947 Z" id="Stroke-89" fill="#1D39C4" fill-rule="nonzero"></path>
                <path d="M105.490059,185.588983 L90.9740413,193.167352 C90.9740413,193.167352 87.8031296,194.090753 85.2699991,193.182184 C81.2018954,191.723199 74.3112605,189.461115 71.4607389,185.006158 C70.9789043,178.441827 73.4625518,169.550592 73.4625518,169.550592 L73.7519525,165.580682 C73.7519525,165.580682 86.7499911,166.719965 102.379626,164.65014 C102.54357,166.60351 103.024405,168.978754 103.024405,168.978754 C103.024405,168.978754 106.587682,178.885675 105.490059,185.588983" id="Fill-91" fill="#ADC6FF"></path>
                <path d="M101.97671,168.744641 C101.992856,168.851791 101.926907,168.953038 101.82941,168.970783 L101.427921,169.040423 L100.897822,169.127805 C100.708104,169.158375 100.505532,169.190321 100.290599,169.223448 C99.0628243,169.41268 97.6847836,169.601888 96.1881067,169.778473 C90.9264765,170.399265 85.5982256,170.709668 80.6248694,170.541169 C78.2319719,170.460096 75.9860413,170.267785 73.9128085,169.953762 C73.8149088,169.938933 73.7464833,169.839691 73.7599759,169.732099 C73.7734684,169.624506 73.8637696,169.549306 73.9616693,169.564134 C76.0215553,169.876136 78.2550212,170.06738 80.6358968,170.148045 C85.5907237,170.315916 90.9033394,170.006425 96.1499061,169.387409 L96.8303129,169.305279 C97.9499203,169.16706 98.9965462,169.02255 99.9557672,168.877481 L100.701662,168.761766 L101.533133,168.624484 L101.770941,168.582757 C101.868438,168.565013 101.960564,168.63749 101.97671,168.744641 Z" id="Stroke-93" fill="#597EF7" fill-rule="nonzero"></path>
                <path d="M102.492729,164.785611 C102.503711,164.893548 102.432996,164.990833 102.334783,165.002902 L101.628932,165.084332 C101.438826,165.105492 101.234606,165.127725 101.016804,165.150887 L100.679981,165.186309 C99.4531942,165.313923 98.0866043,165.441528 96.6073845,165.561793 L96.2640391,165.589413 C90.5565301,166.043655 84.7740203,166.268956 79.3774305,166.140706 C77.4035925,166.093798 75.5206511,165.99937 73.7414279,165.85392 C73.6428751,165.845863 73.5689251,165.751529 73.5762559,165.643219 C73.5835867,165.534908 73.6694224,165.453636 73.7679751,165.461693 C75.5406367,165.606607 77.4173549,165.700723 79.3851674,165.747488 C84.7691352,165.875437 90.5409833,165.650552 96.2381905,165.197129 C97.8469592,165.069093 99.3276408,164.931915 100.646258,164.794749 L101.447973,164.709057 L102.295014,164.612027 C102.393227,164.599958 102.481747,164.677674 102.492729,164.785611 Z" id="Stroke-95" fill="#597EF7" fill-rule="nonzero"></path>
                <path d="M87.0540801,165.975898 C87.1528391,165.980127 87.2299705,166.071332 87.2263579,166.179869 L87.1930477,167.34814 C87.1801237,167.848522 87.1673483,168.39836 87.1552448,168.99187 C87.067863,173.276743 87.0518627,177.770183 87.1523488,181.97256 L87.1687257,182.615411 C87.283777,186.865516 87.5166014,190.400479 87.8870801,192.991086 C87.9024239,193.098378 87.8357204,193.199026 87.7380938,193.215889 C87.6404672,193.232752 87.5488866,193.159444 87.5335428,193.052152 L87.4785985,192.653637 C87.1192403,189.950277 86.8982737,186.318778 86.7945951,181.982892 C86.7011246,178.073911 86.7082628,173.915085 86.7798177,169.905512 L86.8133706,168.243452 C86.824172,167.767038 86.8353036,167.324544 86.8464358,166.919611 L86.86872,166.165492 C86.8723326,166.056955 86.9553211,165.972187 87.0540801,165.975898 Z" id="Stroke-97" fill="#597EF7" fill-rule="nonzero"></path>
                <path d="M84.1612296,168.306171 C84.171726,168.795612 84.4606269,169.184528 84.807008,169.175739 C85.1528893,169.166949 85.4247959,168.763202 85.4147994,168.27431 C85.404303,167.784869 85.1154021,167.395953 84.769021,167.404742 C84.4226399,167.413531 84.1507332,167.817279 84.1612296,168.306171" id="Fill-99" fill="#FFFFFF"></path>
                <path d="M83.4126842,170.390597 C83.5113758,170.396239 83.58722,170.488739 83.5820868,170.597202 L83.5595586,171.130528 C83.5426343,171.559836 83.5257074,172.046579 83.5099077,172.581234 C83.4348302,175.121811 83.411368,177.75064 83.470545,180.205284 C83.4956524,181.246732 83.5353666,182.22631 83.5909195,183.133322 C83.7596439,185.882249 84.5363431,187.00472 87.2457151,187.274373 C87.3441373,187.284169 87.4166989,187.379796 87.4077858,187.487964 C87.3988727,187.596131 87.3118602,187.675876 87.2134379,187.666081 L86.9692538,187.63882 C84.2569866,187.301694 83.4082505,186.001135 83.2338521,183.159765 C83.1779507,182.247063 83.1380231,181.262221 83.1127934,180.215701 C83.0588035,177.976216 83.0733393,175.594012 83.1329929,173.265285 L83.1522191,172.568467 C83.1612722,172.262114 83.1706954,171.971421 83.1802776,171.698163 L83.2146191,170.804967 L83.2246927,170.576773 C83.2298259,170.46831 83.3139925,170.384956 83.4126842,170.390597 Z" id="Stroke-101" fill="#597EF7" fill-rule="nonzero"></path>
                <path d="M111.43117,163.960144 L111.43117,163.960144 C108.086818,164.490234 104.947395,162.05896 104.277125,158.419739 L98.1112415,124.94165 C97.2430395,120.228516 100.103558,115.663696 104.419576,114.874329 C108.789576,114.075073 112.875674,117.466553 113.371504,122.304382 L116.851809,156.246643 C117.237177,160.004517 114.837001,163.420166 111.43117,163.960144" id="Fill-103" fill="#FFC999"></path>
                <path d="M115.875894,143.963104 L101.019493,146.319122 L97.7965995,124.523346 C97.0908418,119.752533 100.082815,115.273407 104.435321,114.582916 C108.788327,113.892975 112.809946,117.259735 113.360757,122.054718 L115.875894,143.963104 Z" id="Fill-105" fill="#597EF7"></path>
                <path d="M115.840151,143.691152 C115.97676,143.669488 116.103484,143.773633 116.123196,143.923768 C116.141266,144.061391 116.063145,144.189886 115.944775,144.227033 L115.911537,144.234837 L101.055136,146.590855 C100.918527,146.612519 100.791804,146.508374 100.772091,146.358239 C100.754021,146.220616 100.832143,146.092121 100.950512,146.054974 L100.983751,146.04717 L115.840151,143.691152 Z" id="Stroke-107" fill="#1D39C4" fill-rule="nonzero"></path>
                <path d="M88.000212,114.389832 L88.000212,114.389832 C86.2708056,115.482422 85.6130313,117.864807 86.4987273,119.829163 L104.723472,160.25061 C106.376904,163.917297 110.490992,165.307617 113.733379,163.296021 C117.029748,161.250366 118.041401,156.551514 115.928126,153.099609 L93.0139911,115.670837 C91.9073709,113.863586 89.7186222,113.304382 88.000212,114.389832" id="Fill-109" fill="#FFC999"></path>
                <path d="M105.435428,158.46297 L105.435428,158.46297 C105.376448,160.776691 103.695025,162.643817 101.590747,162.732257 L61.5279981,164.41701 C57.7687884,164.575214 54.6693523,161.210651 54.7658192,157.077594 C54.8627859,152.951678 58.1046731,149.769489 61.845889,150.128741 L101.78518,153.960773 C103.894457,154.16347 105.494907,156.137164 105.435428,158.46297" id="Fill-111" fill="#FFC999"></path>
                <path d="M83.2535412,115.687372 C83.2535412,115.687372 87.4346061,122.587335 90.9593963,122.054498 C94.1523004,121.571649 94.1283086,117.045831 94.1283086,117.045831 C94.1283086,117.045831 94.4671923,113.070428 92.3729111,109.822321 C90.936904,107.594843 90.4005881,102.538934 89.1440194,102.703729 C87.5060816,102.917963 89.3509484,107.70141 88.5037391,108.627008 C86.7883279,110.502924 83.1600733,103.308527 81.9979721,102.484552 C79.7267517,100.874506 78.1807823,107.45257 83.2535412,115.687372" id="Fill-113" fill="#FFC999"></path>
                <path d="M80.9366441,103.172939 C81.0297633,103.136568 81.1320792,103.190046 81.1651731,103.292385 C81.5559964,104.500959 82.1523897,105.693123 82.8992134,106.843968 C83.3910289,107.60185 83.9182266,108.296365 84.4452821,108.912122 C84.5927216,109.084375 84.7316493,109.240409 84.8597904,109.37925 L85.0837017,109.615854 C85.1092386,109.642012 85.1294232,109.662277 85.1439059,109.676498 C85.2176002,109.748862 85.2239634,109.873181 85.1581186,109.954171 C85.0922738,110.035162 84.979155,110.042155 84.9054607,109.969791 L84.8121247,109.875184 C84.7815979,109.843614 84.7458314,109.806171 84.7051739,109.763 C84.5479214,109.596028 84.3729251,109.401614 84.1846133,109.18161 C83.6470653,108.553595 83.1096596,107.845632 82.6078452,107.072342 C81.8429905,105.893711 81.230925,104.670219 80.8279586,103.424094 C80.7948647,103.321755 80.8435249,103.209309 80.9366441,103.172939 Z" id="Stroke-115" fill="#DD936F" fill-rule="nonzero"></path>
                <path d="M80.0614121,104.979145 C80.1559122,104.947366 80.2559606,105.005796 80.2848764,105.109653 L80.3134032,105.20401 L80.3722823,105.383005 C80.3980949,105.458586 80.4272753,105.540822 80.4599569,105.629442 C80.6162801,106.053334 80.8189322,106.533142 81.0728565,107.058843 C81.7998366,108.563915 82.7912829,110.132548 84.0868188,111.684838 C84.1536196,111.764878 84.1487329,111.889277 84.075904,111.962692 C84.0030751,112.036107 83.8898829,112.030736 83.8230821,111.950696 C82.5063271,110.372982 81.4975537,108.776934 80.7567564,107.243257 C80.4969585,106.705395 80.2891383,106.213351 80.1282852,105.777176 L80.0651298,105.601785 C80.0456298,105.546214 80.0276683,105.493561 80.0112051,105.443907 L79.9551361,105.267546 C79.9497729,105.249687 79.945628,105.235389 79.9426613,105.224734 C79.9137455,105.120878 79.966912,105.010924 80.0614121,104.979145 Z" id="Stroke-117" fill="#DD936F" fill-rule="nonzero"></path>
                <path d="M80.4017295,108.920265 C80.4889999,108.869303 80.5973376,108.905741 80.6437084,109.001652 C81.3599878,110.48317 82.0755216,111.702683 82.7560745,112.676759 C82.9638115,112.974093 83.1550184,113.229189 83.3268289,113.44343 L83.399266,113.53275 C83.512103,113.670289 83.5905088,113.758848 83.6302037,113.800488 C83.7016911,113.875478 83.7043282,113.99996 83.6360937,114.078525 C83.5678593,114.15709 83.4545923,114.159988 83.3831049,114.084998 L83.3161911,114.011339 L83.2310479,113.913069 C83.2005726,113.877211 83.1680252,113.83824 83.1334732,113.796124 C82.9372516,113.556946 82.715401,113.264355 82.4722218,112.916292 C81.7796522,111.925017 81.0533372,110.687129 80.327674,109.186202 C80.2813032,109.090291 80.314459,108.971226 80.4017295,108.920265 Z" id="Stroke-119" fill="#DD936F" fill-rule="nonzero"></path>
                <path d="M80.7416554,101.990139 C81.2148344,101.702242 81.7024898,101.900958 82.1565687,102.378424 C82.2593931,102.486544 82.3529426,102.601787 82.4358345,102.717088 L82.5110458,102.826382 C82.5244979,102.846992 82.5358231,102.865097 82.545116,102.880588 L82.6599057,103.080702 L82.8357722,103.37949 C82.91324,103.509506 82.9963045,103.646936 83.0844658,103.790538 C83.5042214,104.474263 83.9529802,105.157917 84.4120265,105.795355 C84.8684496,106.42915 85.3104341,106.982309 85.7280222,107.43143 C86.4444489,108.201956 87.0585445,108.631101 87.5159812,108.65346 C88.1229136,108.683125 88.4179124,108.46472 88.5355076,107.992376 C88.6254611,107.63106 88.6188525,107.24691 88.5303173,106.389082 L88.4682204,105.804002 C88.43477,105.474472 88.4190408,105.261087 88.4127995,105.033076 L88.3929788,104.383458 C88.3537971,102.937951 88.4378187,102.736867 89.1161895,102.509348 L89.1432858,102.505933 C89.3528293,102.48657 89.6058625,102.557194 89.8443001,102.789311 C90.023673,102.963929 90.1712231,103.213995 90.2794815,103.54681 L90.3420269,103.758893 C90.3877152,103.919243 90.4715774,104.213263 90.5110262,104.3497 C90.6103591,104.69325 90.7070699,105.018228 90.8099435,105.351061 C91.0829964,106.234485 91.3676753,107.069259 91.6723309,107.854133 C92.1568685,109.102431 92.6586761,110.1363 93.1744979,110.894897 C93.5906813,111.507267 93.8751241,112.567056 94.0592179,113.957443 C94.1592245,114.712752 94.2231982,115.52044 94.2584153,116.330024 L94.271987,116.68234 C94.2830607,117.014208 94.2869727,117.282345 94.2867657,117.465244 C94.2864093,117.576257 94.2060513,117.664033 94.1072267,117.663706 C94.0182846,117.663403 93.944697,117.591838 93.9310891,117.498352 L93.9288358,117.466446 L93.926483,117.178331 C93.9229454,116.956378 93.9151271,116.674797 93.9009464,116.348805 C93.86624,115.550962 93.8032293,114.755433 93.7050706,114.014079 C93.5290315,112.684527 93.2581358,111.675212 92.8877982,111.130299 C92.352114,110.342491 91.8379089,109.28308 91.3431542,108.00846 C91.034588,107.213511 90.7468398,106.369738 90.4710829,105.477564 C90.4019518,105.2539 90.3356068,105.03384 90.2694274,104.809505 L89.9694821,103.767494 C89.8778347,103.448282 89.7534034,103.226246 89.6070035,103.083727 C89.4654833,102.945958 89.3241359,102.89668 89.2101978,102.896249 L89.1787241,102.897217 L89.1039221,102.924565 C88.7534395,103.05845 88.7163883,103.216472 88.7505054,104.376416 L88.7747124,105.138831 C88.7807987,105.276527 88.7912537,105.419384 88.8081685,105.599773 L88.8987611,106.471129 C88.9808527,107.297731 88.982011,107.689227 88.880697,108.096175 C88.7174632,108.751836 88.2688656,109.083958 87.5000806,109.046382 C86.9286705,109.018453 86.252777,108.546121 85.477714,107.712532 C85.0481035,107.25048 84.5965189,106.685307 84.1314039,106.039441 C83.6661747,105.393418 83.2122763,104.701934 82.7877999,104.01052 L82.616532,103.728804 C82.5618204,103.6379 82.5095354,103.550118 82.4598232,103.465825 L82.2436185,103.092389 L82.200753,103.026279 C82.1877335,103.007095 82.1724491,102.985152 82.1550282,102.96092 C82.081807,102.859071 81.9990833,102.757164 81.9091617,102.662611 C81.5553194,102.290544 81.2148389,102.1518 80.9149921,102.334237 C80.7996059,102.404441 80.6855477,102.522529 80.5744608,102.69482 C80.517324,102.783437 80.405639,102.804371 80.3250055,102.741577 C80.2443719,102.678783 80.225324,102.55604 80.2824609,102.467423 C80.4230437,102.249385 80.5762253,102.090791 80.7416554,101.990139 Z" id="Stroke-121" fill="#DD936F" fill-rule="nonzero"></path>
                <path d="M63.1253476,150.227419 L98.8565834,153.632632 C98.9476135,153.641307 99.015009,153.729441 99.0071153,153.829484 C99.0000987,153.918411 98.9359562,153.986815 98.8578555,153.994825 L98.8279978,153.99492 L63.096762,150.589707 C63.0057318,150.581032 62.9383364,150.492898 62.9462301,150.392855 C62.9532467,150.303928 63.0173892,150.235524 63.0954898,150.227514 L63.1253476,150.227419 Z" id="Stroke-123" fill="#DD936F" fill-rule="nonzero"></path>
                <path d="M104.837983,165.018951 C104.837983,165.018951 98.9540023,162.96286 97.1641166,159.667511 C94.6039953,154.953827 101.067277,153.582733 101.067277,153.582733 C101.067277,153.582733 102.941634,153.004303 107.14819,153.336639 C109.484388,153.52121 115.512319,154.2117 114.799564,155.493256 C113.954853,157.011017 109.862258,155.78714 109.690817,157.067596 C109.514877,158.382111 110.321601,159.431305 112.501352,160.815582 C113.863385,161.680206 115.904684,161.858185 116.931832,162.833221 C118.940642,164.739899 113.330568,167.994598 104.837983,165.018951" id="Fill-125" fill="#FFC999"></path>
                <path d="M109.717199,161.229836 C109.781345,161.158324 109.886095,161.157501 109.951165,161.227999 L110.002375,161.280434 C110.018344,161.296262 110.037366,161.314788 110.059433,161.335845 C110.152891,161.425026 110.265117,161.524795 110.395971,161.632532 C110.771593,161.941797 111.220135,162.251604 111.740501,162.541069 C113.011359,163.248011 114.493596,163.717293 116.182532,163.837477 C116.273713,163.843966 116.342844,163.930461 116.33694,164.030669 C116.331036,164.130878 116.252333,164.206853 116.161153,164.200365 C114.425952,164.076888 112.90052,163.593931 111.591072,162.865522 C111.052976,162.566194 110.588166,162.245151 110.19758,161.923567 C110.060261,161.810506 109.941862,161.705249 109.842497,161.610432 L109.754397,161.524022 C109.739457,161.508846 109.727612,161.496438 109.71887,161.486967 C109.653801,161.41647 109.653052,161.301348 109.717199,161.229836 Z" id="Stroke-127" fill="#DD936F" fill-rule="nonzero"></path>
                <path d="M108.360066,163.112301 C108.409824,163.028078 108.512286,163.004133 108.588921,163.058817 C108.847533,163.243355 109.115987,163.414713 109.393355,163.573333 C110.401863,164.150073 111.483979,164.537659 112.566318,164.771129 C112.891022,164.84117 113.195699,164.892738 113.474563,164.928654 L113.611817,164.94532 C113.694258,164.954714 113.769647,164.962151 113.8375,164.967869 L113.987014,164.978418 C113.993267,164.978735 113.998468,164.978967 114.0026,164.979123 C114.093918,164.982558 114.165412,165.066701 114.162285,165.167061 C114.159159,165.267421 114.082597,165.345993 113.991278,165.342557 L113.880822,165.335865 L113.739135,165.323911 C113.688566,165.319128 113.634705,165.313525 113.577694,165.307029 C113.252971,165.270028 112.891573,165.211874 112.502589,165.127968 C111.3912,164.888232 110.279588,164.490081 109.240618,163.89592 C108.954003,163.732012 108.67639,163.554808 108.408732,163.363815 C108.332096,163.30913 108.310308,163.196524 108.360066,163.112301 Z" id="Stroke-129" fill="#DD936F" fill-rule="nonzero"></path>
                <path d="M106.357158,164.008818 C106.414601,163.930726 106.518771,163.918597 106.589828,163.981728 L106.621874,164.008669 C106.643212,164.025998 106.672557,164.049002 106.710072,164.077172 C106.816616,164.157175 106.947364,164.246812 107.103075,164.343727 C107.551186,164.622632 108.108224,164.902327 108.780299,165.163941 C109.497108,165.442969 110.303409,165.684474 111.202862,165.877156 C111.292546,165.896369 111.351077,165.991845 111.333596,166.090408 C111.316114,166.188972 111.22924,166.253299 111.139556,166.234086 C110.224126,166.037981 109.402058,165.791754 108.669825,165.506722 C107.979482,165.237997 107.404856,164.94947 106.940017,164.660154 C106.80896,164.578584 106.69403,164.501447 106.594847,164.429963 L106.523406,164.377428 C106.453504,164.32494 106.406555,164.286512 106.381806,164.264524 C106.31075,164.201393 106.299714,164.086909 106.357158,164.008818 Z" id="Stroke-131" fill="#DD936F" fill-rule="nonzero"></path>
                <path d="M101.30665,153.491792 C103.111063,153.142168 105.096502,152.992235 107.1596,153.155229 C108.802542,153.285001 110.694118,153.522285 112.148005,153.824875 L112.470232,153.894612 C113.254035,154.071155 113.873409,154.264271 114.301162,154.475705 C114.912779,154.778021 115.181601,155.155015 114.940749,155.588074 C114.584707,156.227805 113.841772,156.479197 112.430626,156.625226 L111.581246,156.70326 C110.300686,156.825808 109.839925,156.975273 109.79257,157.32911 C109.647553,158.412591 110.501773,159.324144 112.944091,160.874552 C113.295715,161.097988 113.679579,161.269198 114.179935,161.439232 L114.613581,161.578531 L114.941888,161.678339 C116.049656,162.014457 116.556828,162.237105 117.040019,162.695559 C118.194132,163.790993 117.170657,165.224258 114.867532,165.93201 C112.327587,166.712537 108.791623,166.554427 105.002638,165.266294 L104.725362,165.169743 L104.43144,165.058964 C104.149746,164.949761 103.836049,164.820771 103.498314,164.672626 C102.533222,164.249299 101.568019,163.757046 100.666185,163.200579 C100.567559,163.139723 100.470124,163.07834 100.373933,163.016435 C100.295086,162.965691 100.268598,162.854307 100.314771,162.767653 C100.360943,162.680999 100.462292,162.651889 100.541139,162.702633 C100.635583,162.763415 100.73128,162.823702 100.828176,162.883491 C101.71609,163.431368 102.668474,163.917084 103.620969,164.334886 C103.898819,164.456762 104.160071,164.565458 104.400087,164.660583 L104.798587,164.813271 L104.888286,164.845664 C108.69949,166.18104 112.25598,166.356946 114.778429,165.581796 C116.874252,164.937748 117.691019,163.793955 116.823767,162.970796 C116.40703,162.575394 115.951206,162.367117 114.97367,162.065529 L114.225251,161.834248 C113.632731,161.641092 113.188477,161.449902 112.778528,161.189404 L112.519033,161.023226 C110.151344,159.492933 109.297136,158.531908 109.465206,157.27619 C109.55057,156.638353 110.075527,156.474529 111.663552,156.330571 L112.271591,156.275961 L112.515878,156.25064 C113.74052,156.114026 114.388083,155.884169 114.658451,155.398375 C114.756043,155.222902 114.619914,155.031995 114.165438,154.807352 C113.709755,154.582113 113.000401,154.37239 112.086438,154.182172 C110.647145,153.882619 108.767207,153.646795 107.135877,153.51794 C105.102048,153.357259 103.14331,153.505176 101.3641,153.849916 L101.038206,153.915833 C100.774107,153.971559 100.528893,154.029067 100.303974,154.086843 L100.171469,154.121528 C100.050416,154.153822 99.9446894,154.183762 99.8550097,154.210573 L99.7482033,154.243572 C99.6606632,154.272346 99.5684728,154.217681 99.5422904,154.121474 C99.516108,154.025266 99.5658484,153.923948 99.6533885,153.895173 L99.7681562,153.859677 L99.9189878,153.81594 C99.9732277,153.800652 100.031401,153.784687 100.093417,153.768143 L100.368329,153.69754 C100.652974,153.627149 100.966553,153.557689 101.30665,153.491792 Z" id="Stroke-133" fill="#DD936F" fill-rule="nonzero"></path>
                <path d="M81.1380019,188.566934 C81.1962404,188.479187 81.3081764,188.459941 81.3880179,188.523945 L81.6814055,188.754714 L82.0596758,189.046176 C82.1933001,189.148168 82.3342416,189.254779 82.4818486,189.365346 C83.3253411,189.997178 84.2130804,190.629 85.103225,191.218451 C85.6817248,191.601532 86.2427276,191.954145 86.7798078,192.269839 C87.1521725,192.488713 87.5106538,192.688418 87.8535642,192.867286 C87.9115493,192.897532 87.9503525,192.959593 87.9552546,193.029927 L87.9937216,193.60811 C88.0061433,193.803773 88.0181662,194.002328 88.0297966,194.203649 C88.1157412,195.691335 88.1775573,197.273012 88.219175,198.865075 L88.2338425,199.462421 C88.2420833,199.820889 88.2489701,200.164731 88.2546326,200.491168 L88.2667241,201.302451 L88.272195,201.853124 C88.2727732,201.961731 88.1931541,202.050317 88.0943309,202.051018 C87.9955077,202.051653 87.9149028,201.964151 87.9142949,201.855543 L87.9075219,201.200744 L87.892352,200.251174 C87.8876514,200.000565 87.8822455,199.740567 87.8760795,199.472355 C87.8349777,197.684459 87.7690044,195.896646 87.6726385,194.22857 L87.6367169,193.635557 L87.6059306,193.172607 L87.4893077,193.111105 C87.2766991,192.99713 87.0587183,192.87577 86.835704,192.74738 L86.6110245,192.61666 C86.0682387,192.297612 85.5020021,191.94171 84.9185266,191.555334 C84.0221496,190.961755 83.1289472,190.326046 82.2802907,189.690346 L81.8554375,189.369148 L81.3037479,188.942024 L81.1771175,188.841704 C81.097276,188.777699 81.0797634,188.65468 81.1380019,188.566934 Z" id="Stroke-135" fill="#597EF7" fill-rule="nonzero"></path>
            </g>
        </g>
        <g id="2.通用组件/灰色版/对话弹窗" transform="translate(84.353862, 117.410105) scale(-1, 1) rotate(-360.000000) translate(-84.353862, -117.410105) translate(58.500000, 100.000000)">
            <g id="编组-4" transform="translate(-0.000000, 0.000000)">
                <g id="编组" transform="translate(-0.292277, 0.000000)" fill="#597EF7">
                    <rect id="矩形" x="0" y="-1.0125234e-13" width="52" height="30" rx="15"></rect>
                    <path d="M7.18487222,26 L7.18487222,30.4182115 C7.18487222,31.5379799 8.09262385,32.4457315 9.21239222,32.4457315 C9.71659809,32.4457315 10.2027145,32.2578644 10.5758802,31.9187907 L14.1848722,28.6395121 L14.1848722,28.6395121 L7.18487222,26 Z" id="路径-2"></path>
                </g>
                <g id="编组-3" transform="translate(13.838158, 12.000000)" fill="#FFFFFF">
                    <circle id="椭圆形" cx="2.51063105" cy="2.5" r="2.5"></circle>
                    <circle id="椭圆形备份" cx="12.510631" cy="2.5" r="2.5"></circle>
                    <circle id="椭圆形备份-2" cx="22.510631" cy="2.5" r="2.5"></circle>
                </g>
            </g>
        </g>
    </g>
</svg>