<?xml version="1.0" encoding="UTF-8"?>
<svg width="594px" height="414px" viewBox="0 0 594 414" version="1.1" xmlns="http://www.w3.org/2000/svg" xmlns:xlink="http://www.w3.org/1999/xlink">
    <title>1.通用/异常页/404</title>
    <defs>
        <polygon id="path-1" points="7.10542736e-15 1.27897692e-13 35 1.27897692e-13 35 59 7.10542736e-15 59"></polygon>
        <polygon id="path-3" points="-2.48689958e-14 1.56319402e-13 32 1.56319402e-13 32 50 -2.48689958e-14 50"></polygon>
        <polygon id="path-5" points="-1.0658141e-14 1.08357767e-13 35 1.08357767e-13 35 27 -1.0658141e-14 27"></polygon>
        <polygon id="path-7" points="-3.90798505e-14 1.20792265e-13 21 1.20792265e-13 21 12 -3.90798505e-14 12"></polygon>
        <polygon id="path-9" points="2.13162821e-14 -7.10542736e-14 49 -7.10542736e-14 49 30 2.13162821e-14 30"></polygon>
        <polygon id="path-11" points="0 0 108.843738 0 108.843738 108.843738 0 108.843738"></polygon>
    </defs>
    <g id="1.通用/异常页/404" stroke="none" stroke-width="1" fill="none" fill-rule="evenodd">
        <rect id="矩形备份" fill="#E4EBF7" x="20" y="361" width="191" height="15" rx="7.5"></rect>
        <g id="2.通用组件/彩色版/文本详情页" transform="translate(171.000000, 65.000000)">
            <g id="分组-8" transform="translate(-0.000000, 1.000000)">
                <g id="分组-2-copy-2" transform="translate(0.000000, -0.000000)">
                    <path d="M365,35 L0,35 L0,9.87074031 C0,4.41962397 4.44507069,5.68434189e-14 9.92757272,5.68434189e-14 L355.072427,5.68434189e-14 C360.555343,5.68434189e-14 365,4.41962397 365,9.87074031 L365,35 Z" id="Fill-1" fill="#253369"></path>
                    <path d="M26,16.5 C26,20.0896295 23.3135042,23 19.9996016,23 C16.6860975,23 14,20.0896295 14,16.5 C14,12.9103705 16.6860975,10 19.9996016,10 C23.3135042,10 26,12.9103705 26,16.5" id="Fill-5" fill="#FF7946"></path>
                    <path d="M49,16.5 C49,20.0896295 46.3138134,23 42.9998008,23 C39.6861866,23 37,20.0896295 37,16.5 C37,12.9103705 39.6861866,10 42.9998008,10 C46.3138134,10 49,12.9103705 49,16.5" id="Fill-7" fill="#FFC53D"></path>
                    <path d="M72,16.5 C72,20.0896295 69.3138134,23 65.9998008,23 C62.6861866,23 60,20.0896295 60,16.5 C60,12.9103705 62.6861866,10 65.9998008,10 C69.3138134,10 72,12.9103705 72,16.5" id="Fill-9" fill="#BAE637"></path>
                </g>
                <path d="M11.0551022,278 C4.94992201,278 8.52651283e-14,273.578969 8.52651283e-14,268.125198 L8.52651283e-14,33 L365,33 L365,268.125198 C365,273.578969 360.050539,278 353.944898,278 L11.0551022,278 Z" id="Fill-3-Copy-2" fill="#E4EBF7"></path>
                <rect id="矩形-copy-13" fill="#FFFFFF" fill-rule="nonzero" x="23" y="51" width="318" height="207" rx="6.92563803"></rect>
                <rect id="矩形-copy-19" fill="#FF7946" fill-rule="nonzero" x="52" y="80" width="131" height="16" rx="8"></rect>
                <rect id="矩形-copy-26" fill="#AAC2FE" fill-rule="nonzero" x="52" y="179" width="230" height="16" rx="8"></rect>
                <rect id="矩形-copy-27" fill="#7CB305" fill-rule="nonzero" x="52" y="211" width="197" height="16" rx="8"></rect>
                <rect id="矩形-copy-25" fill="#FFC53D" fill-rule="nonzero" x="52" y="146" width="164" height="16" rx="8"></rect>
                <rect id="矩形-copy-24" fill="#597EF7" fill-rule="nonzero" x="52" y="113" width="262" height="16" rx="8"></rect>
            </g>
        </g>
        <g id="2.通用组件/彩色版/盆栽02" transform="translate(498.000000, 242.000000)">
            <g id="分组" transform="translate(-0.000000, 0.000000)">
                <g transform="translate(27.000000, 0.000000)">
                    <mask id="mask-2" fill="white">
                        <use xlink:href="#path-1"></use>
                    </mask>
                    <g id="Clip-2"></g>
                    <path d="M17.8023066,1.43576682 C31.2897618,-5.03940018 39.3282707,11.9425957 32.5451768,21.3979402 C24.2675982,32.9363363 20.0274017,46.2128758 17.6661398,50.2129616 C15.6742513,53.5873547 10.2178865,61.8140242 3.64753826,58.0222193 C-2.39920187,54.5325734 0.896442013,40.8365574 0.896442013,40.8365574 C0.896442013,40.8365574 1.16351086,9.42379379 17.8023066,1.43576682 Z" id="Fill-1" fill="#389E0D" mask="url(#mask-2)"></path>
                </g>
                <path d="M53.2767186,55.8067389 C48.0889138,61.9989297 40.6026659,74.4553602 35.9126595,70.0926776 C33.0702169,67.4488085 36.8701945,54.9277655 47.2717774,48.1151732 C56.1195203,42.3202881 58.4646432,49.6145481 53.2767186,55.8067389 Z" id="Fill-3" fill="#BAE637"></path>
                <path d="M4.2673498,54.6105639 C-0.299411429,48.497466 -1.96685547,39.7248082 3.13045614,37.4751844 C8.01754967,35.3184968 16.1129714,40.6288671 19.8626946,50.8491305 C23.6122986,61.0692756 25.7756142,68.4173846 22.1077617,69.6949618 C16.0899714,71.7911108 10.2992023,62.684663 4.2673498,54.6105639" id="Fill-5" fill="#389E0D"></path>
                <g transform="translate(-0.000000, 12.000000)">
                    <mask id="mask-4" fill="white">
                        <use xlink:href="#path-3"></use>
                    </mask>
                    <g id="Clip-8"></g>
                    <path d="M2.94213133,1.28760349 C4.96866278,-0.0382767388 7.51824149,-0.341140352 9.84441238,0.38343663 C13.0908956,1.39461609 18.0175483,4.40543672 22.8935438,13.0473923 C29.2594985,24.3303472 32.5734836,36.6995698 31.9183835,44.5346861 C31.490134,49.6586172 24.9987659,51.8676204 21.367313,48.131625 C19.699562,46.4157167 17.934923,43.7708911 16.2083999,39.7584564 C9.26013393,23.6117486 2.76397066,13.4933778 1.98923612,12.4774156 C-0.0777472729,9.76634985 -1.555657,4.23050997 2.94213133,1.28760349" id="Fill-7" fill="#BAE637" mask="url(#mask-4)"></path>
                </g>
                <path d="M16,57 C16,57 25,66.5784574 25,85" id="Stroke-9" stroke="#253369" stroke-width="0.56623104" stroke-linecap="round" stroke-linejoin="round"></path>
                <path d="M32,83 C32,83 34.1932727,69.6858863 42,59" id="Stroke-11" stroke="#253369" stroke-width="0.56623104" stroke-linecap="round" stroke-linejoin="round"></path>
                <path d="M47,17 C47,17 26.6045414,38.5982439 31.8679275,83" id="Stroke-13" stroke="#253369" stroke-width="0.56623104" stroke-linecap="round" stroke-linejoin="round"></path>
                <path d="M18,37 C18,37 28.8233292,54.9318969 29,84" id="Stroke-15" stroke="#253369" stroke-width="0.56623104" stroke-linecap="round" stroke-linejoin="round"></path>
                <path d="M7.99467219,19.3746361 C8.063878,20.2001827 7.45080613,20.9254456 6.62541231,20.9946538 C5.79989469,21.0639859 5.07465741,20.4508924 5.0053278,19.6253457 C4.93612198,18.7999229 5.54919386,18.0746601 6.37471147,18.005328 C7.20010529,17.9361198 7.92534257,18.5492132 7.99467219,19.3746361" id="Fill-17" fill="#FFFFFF"></path>
                <path d="M19.994654,25.3746361 C20.0639832,26.2000589 19.4509151,26.9254456 18.6254024,26.9946538 C17.7998898,27.0639859 17.074657,26.4508924 17.0053278,25.6253457 C16.9361224,24.7999229 17.5491905,24.0746601 18.3747031,24.005328 C19.2000919,23.9361198 19.9254486,24.5492132 19.994654,25.3746361" id="Fill-19" fill="#FFFFFF"></path>
                <path d="M16.9946588,42.3746478 C17.0639565,43.2001669 16.4508713,43.9254691 15.6253522,43.9946588 C14.7998331,44.0639565 14.0745309,43.4508713 14.0053412,42.6253522 C13.9360435,41.7999412 14.5491287,41.074639 15.3746478,41.0053412 C16.2000588,40.9360435 16.925361,41.5491287 16.9946588,42.3746478" id="Fill-21" fill="#FFFFFF"></path>
                <path d="M56,17.4999363 C56,18.8806921 54.880791,20 53.5,20 C52.119209,20 51,18.8806921 51,17.4999363 C51,16.1193079 52.119209,15 53.5,15 C54.880791,15 56,16.1193079 56,17.4999363" id="Fill-23" fill="#FFFFFF"></path>
                <path d="M37,24.5 C37,25.8806636 35.8806636,27 34.5,27 C33.119209,27 32,25.8806636 32,24.5 C32,23.1193364 33.119209,22 34.5,22 C35.8806636,22 37,23.1193364 37,24.5" id="Fill-25" fill="#FFFFFF"></path>
                <path d="M43,41.000061 C43,41.552277 42.5522497,42 42,42 C41.4477503,42 41,41.552277 41,41.000061 C41,40.447723 41.4477503,40 42,40 C42.5522497,40 43,40.447723 43,41.000061" id="Fill-27" fill="#FFFFFF"></path>
                <line x1="20" y1="96.05" x2="42" y2="96.05" id="Fill-29" fill="#A3B5D6"></line>
                <path d="M50,53.5 C50,54.3284358 49.328312,55 48.5,55 C47.6714404,55 47,54.3284358 47,53.5 C47,52.6715642 47.6714404,52 48.5,52 C49.328312,52 50,52.6715642 50,53.5" id="Fill-31" fill="#FFFFFF"></path>
                <g transform="translate(12.000000, 74.000000)">
                    <mask id="mask-6" fill="white">
                        <use xlink:href="#path-5"></use>
                    </mask>
                    <g id="Clip-34"></g>
                    <path d="M32.1251583,27 L2.87484171,27 C1.29367877,27 -1.0658141e-14,25.7105675 -1.0658141e-14,24.1345945 L-1.0658141e-14,2.86540553 C-1.0658141e-14,1.2893131 1.29367877,-1.24344979e-14 2.87484171,-1.24344979e-14 L32.1251583,-1.24344979e-14 C33.7062014,-1.24344979e-14 35,1.2893131 35,2.86540553 L35,24.1345945 C35,25.7105675 33.7062014,27 32.1251583,27" id="Fill-33" fill="#253369" mask="url(#mask-6)"></path>
                </g>
            </g>
        </g>
        <g id="1.人物组件/5.用研/走路/看电脑" transform="translate(96.000000, 153.000000)">
            <g id="分组" transform="translate(0.000000, 0.000000)">
                <path d="M55.3763383,79.9960295 L55.3763383,79.9960295 C51.1714048,79.8603633 47.8705348,76.2824454 48.0039032,72.0050682 L48.7674925,47.5039758 C48.900861,43.2260426 52.4181816,39.8683043 56.6231151,40.0039705 C60.8285952,40.1396367 64.1294652,43.7175546 63.9960968,47.9949318 L63.2319609,72.4960242 C63.0985924,76.7739574 59.5812719,80.1316957 55.3763383,79.9960295" id="Fill-1" fill="#CCD7EE"></path>
                <path d="M41.3015978,178.021496 C38.5119717,178.285053 36.5562314,180.880762 37.0871387,183.620431 C37.9955184,188.304667 39.2997158,195.52426 40.1347135,202.292593 C40.8829871,208.358845 40.1853026,212.582963 41.4689309,214.105063 C42.8526255,215.746207 45.5255076,214.173721 47.8570524,216.25505 C50.1885972,218.336932 51.8741584,219.939871 57.8492285,218.365724 C64.8366359,216.524698 58.5085542,214.911239 55.0962933,212.074674 C49.0717461,207.066528 48.2606531,204.606473 47.7753316,200.736718 C46.7802278,192.811722 46.5367331,186.67792 46.4967066,182.670295 C46.4689104,179.90571 44.0650955,177.760707 41.3015978,178.021496" id="Fill-3" fill="#FFC6A0"></path>
                <g transform="translate(40.000000, 208.000000)">
                    <mask id="mask-8" fill="white">
                        <use xlink:href="#path-7"></use>
                    </mask>
                    <g id="Clip-6"></g>
                    <path d="M0.126966707,1.28785871e-13 C0.126966707,1.28785871e-13 1.16573109,1.26166577 4.68294123,3.85957038 C7.45755002,5.90839628 9.25646616,7.14409958 10.6868239,6.43979841 C13.2979946,5.15382734 15.3228721,4.47106951 15.3228721,4.47106951 C15.3228721,4.47106951 17.860002,5.62943778 19.7894493,6.97727687 C21.7177997,8.32456357 21.6031736,10.6937774 17.5254475,11.5417008 C13.447173,12.3890718 11.0734812,12.258707 7.03524348,9.44481671 C2.99645734,6.62982163 1.36207621,7.95335542 0.676513652,6.26413741 C-0.394609287,3.62314615 0.126966707,1.28785871e-13 0.126966707,1.28785871e-13" id="Fill-5" fill="#253368" mask="url(#mask-8)"></path>
                </g>
                <path d="M27.9126312,149.427509 L19.3848874,120.187938 C17.6985206,114.117966 21.7349495,107.950012 27.950447,107.096792 C33.330708,106.358069 38.3635018,109.921776 39.4787948,115.25963 L45.7463576,145.253887 C45.7463576,145.253887 47.9983177,153.700214 39.0820026,155.701703 C30.4112163,157.648696 27.9126312,149.427509 27.9126312,149.427509" id="Fill-7" fill="#253368"></path>
                <path d="M27.0288678,145.998779 L36.5863244,199.811173 C36.814343,201.097391 37.9400811,202.025554 39.2391797,202 L48.4112683,201.814608 C49.9555007,201.783521 51.1447307,200.4318 50.985725,198.885785 L45.464142,145.210506 C45.464142,145.210506 44.8667665,136.050997 35.143679,137.080747 C26.0742816,138.041108 27.0288678,145.998779 27.0288678,145.998779" id="Fill-9" fill="#253368"></path>
                <path d="M37.0787243,201.999873 L52.4467674,201.693057 C52.7723663,201.686301 53.0246067,201.407633 52.9980848,201.083927 L52.4591819,194.516927 C52.4349172,194.220244 52.1838053,193.993931 51.8852926,194.000124 L35.5534316,194.326644 C35.1956678,194.3334 34.9343986,194.666676 35.0145287,195.014589 L36.5172495,201.563011 C36.5765006,201.823102 36.8106835,202.005503 37.0787243,201.999873" id="Fill-11" fill="#4E5C93"></path>
                <path d="M35.5905117,170.581717 C33.1989179,169.240833 30.2040197,170.305097 29.1352627,172.880218 C27.3080504,177.282807 24.4147841,184.014447 21.389072,190.108418 C18.6779863,195.570273 15.807425,198.691967 16.0101483,200.674966 C16.2290894,202.812938 19.2423679,203.000128 19.9840647,206.034616 C20.7257615,209.069103 21.2079725,211.344274 26.8831425,213.376153 C33.5205721,215.752418 29.3023066,210.872687 28.102185,206.607297 C25.9835918,199.074125 26.6733915,196.575103 28.3962688,193.086803 C31.9252753,185.9419 35.0801897,180.706118 37.2377057,177.351684 C38.7259647,175.037631 37.9604817,171.909826 35.5905117,170.581717" id="Fill-13" fill="#FFC6A0"></path>
                <path d="M18.1215745,195 C18.1215745,195 18.2839679,196.634201 19.7817815,200.77698 C20.9631792,204.045382 21.7818426,206.086887 23.3862443,206.309909 C26.3149052,206.716107 28.4081611,207.292754 28.4081611,207.292754 C28.4081611,207.292754 29.8925814,209.687331 30.7575632,211.895412 C31.6219869,214.103492 30.1861172,216.00554 26.2680287,214.406757 C22.3499403,212.807421 20.421868,211.359717 18.6076385,206.742117 C16.7934089,202.125071 14.6666699,202.301054 15.0439135,200.510793 C15.6337753,197.713338 18.1215745,195 18.1215745,195" id="Fill-15" fill="#253368"></path>
                <path d="M55.9583756,143.349248 L51.797754,112.924911 C50.8574191,106.643975 44.5984886,102.64051 38.5156631,104.427534 C33.2502312,105.974327 30.0748014,111.335397 31.2405286,116.706454 L37.7957366,146.889452 C37.7957366,146.889452 39.1923941,155.590442 48.2379941,153.74239 C57.0349426,151.944825 55.9583756,143.349248 55.9583756,143.349248" id="Fill-17" fill="#253368"></path>
                <path d="M56.467973,147.20652 L32.8484393,191.70996 C32.2836001,192.773981 30.9481709,193.261841 29.6997258,192.860074 L20.8886807,190.026181 C19.4043747,189.548806 18.6176145,188.014586 19.1846841,186.702772 L38.8693016,141.144141 C38.8693016,141.144141 41.8947876,133.269394 51.0125075,137.00616 C59.517993,140.491821 56.467973,147.20652 56.467973,147.20652" id="Fill-19" fill="#253368"></path>
                <path d="M31.488267,194.957477 L17.3487693,189.094195 C17.0493368,188.970147 16.915321,188.615072 17.0560656,188.319746 L19.9085253,182.321604 C20.0369336,182.050746 20.3509453,181.928973 20.6251448,182.04221 L35.6511647,188.273654 C35.980877,188.410221 36.1025565,188.818785 35.9040563,189.118094 L32.165635,194.748643 C32.0170402,194.972272 31.733869,195.059902 31.488267,194.957477" id="Fill-21" fill="#4E5C93"></path>
                <path d="M43.1109259,131.465927 L56.342696,119.042621 C57.4692159,118.207078 58.0609569,116.842011 57.8972603,115.459458 L59,100 L21.1927305,100.59182 L21,116.956222 C20.9881098,117.974284 21.3779952,118.952454 22.0842131,119.692913 C24.2515335,121.962923 29.6844897,126.47562 39.1346479,131.334229 C40.417122,131.993264 41.9899363,132.367045 43.1109259,131.465927" id="Fill-23" fill="#253368"></path>
                <line x1="58" y1="104" x2="24" y2="105" id="Stroke-25" stroke="#253368" stroke-width="0.663031769" stroke-linecap="round" stroke-linejoin="round"></line>
                <line x1="38.4135" y1="100" x2="38.5865" y2="105" id="Stroke-27" stroke="#253368" stroke-width="0.663031769" stroke-linecap="round" stroke-linejoin="round"></line>
                <path d="M27.1431656,15.1908117 C27.1431656,15.1908117 25.1091188,4.09637916 39.3666465,4 C47.3415585,4.47431542 47.7562671,17.5028286 47.7562671,17.5028286 C47.7562671,17.5028286 48.4359284,20.2111913 47.5253249,23.0711617 C46.5050101,26.2744151 43.524155,27.4650768 39.5509614,27.9989524 C32.1262514,28.0731318 28.9539501,24.1833122 28.9539501,24.1833122 C28.9539501,24.1833122 23.8666387,24.7897429 24.0026806,18.4308842 C24.1694418,12.5311801 27.1431656,15.1908117 27.1431656,15.1908117" id="Fill-29" fill="#FFC6A0"></path>
                <path d="M28.9879327,8.13973326 C29.1873484,11.1704306 26.8914961,13.7891497 23.8602625,13.9879964 C20.8296004,14.186843 18.2114831,11.8915355 18.0120673,8.8608381 C17.8126516,5.83014073 20.1085039,3.21142164 23.1397375,3.01200358 C26.1698282,2.81315692 28.7885169,5.10846449 28.9879327,8.13973326" id="Fill-31" fill="#253368"></path>
                <path d="M48.5560366,18.1107029 C48.5560366,18.1107029 50.1183939,14.98657 50.937011,11.3290889 C51.7556281,7.67160777 44.342254,0.942282838 43.3632662,0.424346083 C42.3842783,-0.0935906716 41.8757858,-0.642350442 35.5654493,2.09154101 C16.4248964,4.09008337 22.1328647,21.1148461 22.1328647,21.1148461 C22.1328647,21.1148461 20.0039015,22.8524937 21.5830223,27.0521296 C23.3968319,31.2369045 29.4138073,30.9974757 29.4138073,30.9974757 L29.1763245,24.2830119 C29.1763245,24.2830119 27.1557652,24.5648223 25.4732695,22.3483172 C23.7913327,20.1318121 24.9239858,17.2322469 25.8487717,16.9399787 C26.6444787,16.2673764 28.7583548,16.4413063 28.9237546,18.9154038 C29.0070132,20.1609839 31.2276169,17.2135329 31.8528951,12.4100961 C38.4677683,10.7032716 39.8395805,6.00111037 39.8395805,6.00111037 C39.8395805,6.00111037 40.3681893,10.385134 39.4339041,12.3060684 C42.8905357,11.0357198 44.6479083,9.06194597 43.9287546,7.13165458 C48.0408387,8.60950812 48.5560366,18.1107029 48.5560366,18.1107029" id="Fill-33" fill="#253368"></path>
                <path d="M28.9873962,31.8254227 L28.4880368,21.5688977 L41.8027916,21 C41.8027916,21 42.209469,27.9983442 42.6582747,30.8185641 C51.6254003,35.0294227 32.2913697,39.9152829 27.4146105,34.8228587 C25.9092298,33.2499243 28.9873962,31.8254227 28.9873962,31.8254227" id="Fill-35" fill="#FFC6A0"></path>
                <path d="M39.9974813,16.6186033 C39.9192933,19.1031037 38.0670087,21.0638735 35.8590239,20.9984072 C33.6521403,20.9329409 31.925397,18.8653858 32.0024838,16.3814221 C32.0806718,13.8969217 33.9329563,11.9356153 36.1409412,12.0016182 C38.3483754,12.0670845 40.0751186,14.134103 39.9974813,16.6186033" id="Fill-37" fill="#FFFFFF"></path>
                <path d="M39.9974813,16.6186033 C39.9192933,19.1031037 38.0670087,21.0638735 35.8590239,20.9984072 C33.6521403,20.9329409 31.925397,18.8653858 32.0024838,16.3814221 C32.0806718,13.8969217 33.9329563,11.9356153 36.1409412,12.0016182 C38.3483754,12.0670845 40.0751186,14.134103 39.9974813,16.6186033 Z" id="Stroke-39" stroke="#4E5C93" stroke-width="0.8644482" stroke-linecap="round" stroke-linejoin="round"></path>
                <path d="M48.9974516,15.6110828 C48.9248982,18.0956884 47.3004221,20.0602977 45.3687519,19.998585 C43.4370816,19.937409 41.9304405,17.8735228 42.0024794,15.3889172 C42.0755473,12.9043116 43.7000234,10.9397023 45.6316937,11.001415 C47.5633639,11.062591 49.0705196,13.1264772 48.9974516,15.6110828" id="Fill-41" fill="#FFFFFF"></path>
                <path d="M48.9974516,15.6110828 C48.9248982,18.0956884 47.3004221,20.0602977 45.3687519,19.998585 C43.4370816,19.937409 41.9304405,17.8735228 42.0024794,15.3889172 C42.0755473,12.9043116 43.7000234,10.9397023 45.6316937,11.001415 C47.5633639,11.062591 49.0705196,13.1264772 48.9974516,15.6110828 Z" id="Stroke-43" stroke="#4E5C93" stroke-width="0.8644482" stroke-linecap="round" stroke-linejoin="round"></path>
                <polyline id="Stroke-45" stroke="#DD9987" stroke-width="0.64833615" stroke-linecap="round" stroke-linejoin="round" points="41 17 43 18.4856338 41.084788 20"></polyline>
                <path d="M38,21.2650016 C38,21.2650016 40.0218152,22.1080016 41,21.5360016" id="Stroke-47" stroke="#F5222D" stroke-width="0.8644482" stroke-linecap="round" stroke-linejoin="round"></path>
                <g transform="translate(40.000000, 14.000000)">
                    <path d="M4.86277685e-14,0.0731168638 C4.86277685e-14,0.0731168638 0.506069485,-0.0194831362 1,0.0574168638" id="Fill-49" fill="#FFFFFF"></path>
                    <path d="M4.86277685e-14,0.0731168638 C4.86277685e-14,0.0731168638 0.506069485,-0.0194831362 1,0.0574168638" id="Stroke-51" stroke="#4E5C93" stroke-width="0.8644482" stroke-linecap="round" stroke-linejoin="round"></path>
                </g>
                <path d="M41,28.4769629 C41,28.4769629 37.4847219,29.1069629 35,28.2909629" id="Stroke-52" stroke="#DD9987" stroke-width="0.64833615" stroke-linecap="round" stroke-linejoin="round"></path>
                <path d="M37.9963427,15.9641014 C38.0294762,16.5161633 37.8337678,16.9799341 37.5598645,16.9993388 C37.2855194,17.0192285 37.0363557,16.5879605 37.0036641,16.0358986 C36.9705306,15.4838367 37.1657972,15.020551 37.4401423,15.0006612 C37.7140456,14.9807715 37.963651,15.4120395 37.9963427,15.9641014" id="Fill-54" fill="#253368"></path>
                <path d="M45.9964276,14.9641014 C46.0291106,15.5161633 45.8338961,15.9799341 45.5600659,15.9993388 C45.285794,16.0192285 45.0366968,15.5879605 45.0035722,15.0358986 C44.9708893,14.4838367 45.1661037,14.020551 45.4403756,14.0006612 C45.7142058,13.9807715 45.963303,14.4120395 45.9964276,14.9641014" id="Fill-56" fill="#253368"></path>
                <g transform="translate(29.000000, 16.000000)">
                    <line x1="4" y1="0.215" x2="1.28785871e-14" y2="0.785" id="Fill-58" fill="#FFFFFF"></line>
                    <line x1="4" y1="0.215" x2="1.28785871e-14" y2="0.785" id="Stroke-60" stroke="#4E5C93" stroke-width="0.8644482" stroke-linecap="round" stroke-linejoin="round"></line>
                </g>
                <path d="M45.0914923,33.7177651 L44.4682523,33.6935088 C44.8681187,37.4422052 30.7415295,37.7602931 28.6307866,33.3831388 C28.5772872,33.2717805 28.5348187,33.1670375 28.5000717,33.067256 L26.7809221,33 L25,98.1716377 C25,98.1716377 37.218813,103.621581 49.0923621,99.3910665 C55.0693991,47.432481 45.0914923,33.7177651 45.0914923,33.7177651" id="Fill-61" fill="#597EF7"></path>
                <path d="M30,38 C30,38 36.6179088,40.1551555 43,38.137737" id="Stroke-63" stroke="#3C65D6" stroke-width="0.663031769" stroke-linecap="round" stroke-linejoin="round"></path>
                <path d="M42.0017463,32.1935526 C42.0017463,32.1935526 45.5504177,40.5335228 45.8473635,73.003033 C46.0833395,98.8635728 44.8052306,144 44.8052306,144 C44.8052306,144 56.3014358,143.156607 58.6335328,138.865032 C61.0384549,134.440813 61.103941,101.645221 60.9509519,85.1073198 C60.6737648,54.9883658 61.6888,48.1754557 59.2020202,41.4354997 C56.3358724,39.8139309 51.7992635,37.4291084 47.3676582,35.0625244 C46.2910886,34.4877353 44.4202173,32.9418839 43.7365645,32.571587 C41.8769839,31.5657059 42.0017463,32.1935526 42.0017463,32.1935526" id="Fill-65" fill="#CCD7EE"></path>
                <path d="M59,48 C59,48 61.2406627,63.4312564 60.9786976,80" id="Stroke-67" stroke="#96A7CA" stroke-width="0.8644482" stroke-linecap="round" stroke-linejoin="round"></path>
                <path d="M12.3864421,38.0118066 C16.7206252,35.9990865 21.4406806,35.2483364 24.1898188,33.7329744 C25.9502603,32.7621004 27.3766388,31.4341487 28.754446,31 C36.9473526,71.8110876 33.6223742,122.539396 31.5132984,145.890276 C21.1292843,147.033589 11,138.865162 11,138.865162 C11,138.865162 11.7469194,101.457401 13.2072978,80.2284715 C14.4215815,62.5703183 11.277936,38.5263532 12.3864421,38.0118066" id="Fill-69" fill="#CCD7EE"></path>
                <path d="M32,80 C31.007175,69.2412662 29.3818244,64.5375778 26.4177614,52.8746473 C23.4536984,41.2117168 24.0488596,33.8843217 24.0488596,33.8843217 L28.3196084,31" id="Stroke-71" stroke="#96A7CA" stroke-width="0.8644482" stroke-linecap="round" stroke-linejoin="round"></path>
                <path d="M47.3306018,81 C50.4887542,47.5312695 48.1960826,34.4211465 48.1960826,34.4211465 L43,31" id="Stroke-73" stroke="#96A7CA" stroke-width="0.8644482" stroke-linecap="round" stroke-linejoin="round"></path>
                <path d="M12.2475984,94 L22,95.6744786 L21.201787,115.310948 C21.1330441,117.001876 19.5366181,118.247591 17.8089557,117.958094 L11,116.818198" id="Stroke-75" stroke="#96A7CA" stroke-width="0.8644482" stroke-linecap="round" stroke-linejoin="round"></path>
                <path d="M59.4069025,95 L54.487519,96.4926534 L54.0002922,117.956987 C53.983109,118.697137 54.7269752,119.207604 55.3993371,118.917272 L60,116.928752" id="Stroke-77" stroke="#96A7CA" stroke-width="0.8644482" stroke-linecap="round" stroke-linejoin="round"></path>
                <path d="M88.1247141,76.6590607 L51.1110588,77 C49.7036131,77.0124353 48.6856737,75.6865999 49.089071,74.3651204 L56.8925324,48.8018162 C57.1553519,47.9415206 57.9593685,47.3491145 58.8750694,47.3409471 L95.889836,47 C97.2967261,46.987028 98.3146655,48.3134079 97.9107125,49.6348873 L90.1072511,75.1981915 C89.8449872,76.0584872 89.0409707,76.6503488 88.1247141,76.6590607" id="Fill-79" fill="#96A7CA"></path>
                <g transform="translate(51.000000, 47.000000)">
                    <mask id="mask-10" fill="white">
                        <use xlink:href="#path-9"></use>
                    </mask>
                    <g id="Clip-82"></g>
                    <path d="M39.1244418,29.6590607 L2.1110441,30 C0.703608178,30.0124353 -0.314324157,28.6865999 0.0890704257,27.3651204 L7.89303311,1.80181623 C8.15585079,0.941520575 8.95930612,0.349114454 9.87500071,0.34094709 L46.8895097,-7.10542736e-14 C48.2963899,-0.0129720075 49.3143223,1.31340787 48.9109277,2.63488733 L41.106965,28.1981915 C40.844703,29.0584872 40.040692,29.6503488 39.1244418,29.6590607" id="Fill-81" fill="#253368" mask="url(#mask-10)"></path>
                </g>
                <path d="M93.2101564,66.5903472 C93.2101564,66.5903472 98.2040595,64.5195564 99.3741328,65.1039165 C101.187135,66.0093911 98.4845047,69.0968552 98.4845047,69.0968552 C98.4845047,69.0968552 99.6859972,70.7449778 97.8991772,72.1582216 C97.8759037,74.1762499 96.5405888,74.6443053 96.5405888,74.6443053 C96.5405888,74.6443053 97.0607507,76.380933 95.1313807,76.9011837 C93.2014289,77.4214345 89.9245254,75.8186991 91.3482795,73.7070597 C90.4929798,71.9119961 92.1238676,71.0683616 92.1238676,71.0683616 C92.1238676,71.0683616 91.6182516,69.476973 93.2235387,68.6929091 C92.4485324,67.7675777 92.6911582,66.8116098 93.2101564,66.5903472" id="Fill-83" fill="#FFC999"></path>
                <line x1="93" y1="69" x2="97" y2="68" id="Stroke-85" stroke="#DD936F" stroke-width="0.641420564" stroke-linecap="round" stroke-linejoin="round"></line>
                <line x1="96" y1="70.8195" x2="92" y2="70.1805" id="Stroke-87" stroke="#DD936F" stroke-width="0.641420564" stroke-linecap="round" stroke-linejoin="round"></line>
                <line x1="94" y1="74" x2="91" y2="73" id="Stroke-89" stroke="#DD936F" stroke-width="0.641420564" stroke-linecap="round" stroke-linejoin="round"></line>
                <path d="M5.79216021,78.7389566 L5.79216021,78.7389566 C1.62449151,77.65121 -0.849203437,73.480332 0.268527751,69.4224312 L7.63916336,42.6397404 C8.75577345,38.5818396 13.040036,36.1738425 17.2071441,37.2610434 C21.3753734,38.34879 23.8485078,42.519668 22.7318977,46.5775688 L15.3607015,73.3602596 C14.2435309,77.4181604 9.96038946,79.8261575 5.79216021,78.7389566" id="Fill-91" fill="#CCD7EE"></path>
                <path d="M47.6518265,80.5444987 C47.6518265,80.5444987 41.1741548,79.8913086 40.1632919,76.2518716 C39.2473196,72.9557571 42.4836436,71.661991 42.4836436,71.661991 C42.4836436,71.661991 45.4933469,69.8751788 49.3581809,69.3004154 C51.9045953,68.9214445 56.8210393,68.6839707 57.2039503,69.9711555 C57.704079,71.6493769 52.1239598,71.6005659 52.0938181,72.8723945 C52.0636764,74.1782262 53.2163168,74.2720092 55.7644057,75.3332374 C57.3574497,75.9962994 59.1927435,76.0341416 60.4335762,76.849121 C62.859982,78.4423345 57.2848863,82.3197937 47.6518265,80.5444987" id="Fill-93" fill="#FFC6A0"></path>
                <path d="M53,76 C53,76 55.5836609,78.2687973 60,77.9734837" id="Stroke-95" stroke="#DD9987" stroke-width="0.64833615" stroke-linecap="round" stroke-linejoin="round"></path>
                <path d="M58,78.9817943 C58,78.9817943 54.9232421,79.2165613 52,78" id="Stroke-97" stroke="#DD9987" stroke-width="0.64833615" stroke-linecap="round" stroke-linejoin="round"></path>
                <path d="M49,80 C49,80 50.5451226,80.8002605 54,81" id="Stroke-99" stroke="#DD9987" stroke-width="0.64833615" stroke-linecap="round" stroke-linejoin="round"></path>
                <path d="M45,67.1013686 L44.6131884,79.946175 L8.50873646,80 C4.23882464,79.8794319 0.878502821,76.4238647 1.00337027,72.2825665 C1.12768275,68.1412683 4.69056732,64.8821624 8.96103411,65.0032688 L45,67.1013686 Z" id="Fill-101" fill="#CCD7EE"></path>
                <polyline id="Stroke-103" stroke="#96A7CA" stroke-width="0.8644482" stroke-linecap="round" stroke-linejoin="round" points="10.7740901 65 44 67.6885246 43.6198832 80.9505418 8 81"></polyline>
                <line x1="39.204" y1="79" x2="39.796" y2="68" id="Stroke-105" stroke="#96A7CA" stroke-width="0.8644482" stroke-linecap="round" stroke-linejoin="round"></line>
            </g>
        </g>
        <g id="编组" transform="translate(446.000000, 24.000000)">
            <g id="分组" transform="translate(10.078125, 10.078125)">
                <g>
                    <mask id="mask-12" fill="white">
                        <use xlink:href="#path-11"></use>
                    </mask>
                    <g id="Clip-2"></g>
                    <path d="M54.4218629,-1.214774e-05 C24.3654387,-1.214774e-05 -1.214774e-05,24.3654387 -1.214774e-05,54.4218629 C-1.214774e-05,84.4781655 24.3654387,108.843738 54.4218629,108.843738 C84.478287,108.843738 108.843738,84.4781655 108.843738,54.4218629 C108.843738,24.3654387 84.478287,-1.214774e-05 54.4218629,-1.214774e-05" id="Fill-1" fill="#597EF7" mask="url(#mask-12)"></path>
                </g>
                <path d="M67.2720823,33.0689421 C70.1349402,35.6381891 71.603116,39.1618841 71.603116,43.5664116 C71.603116,47.1633574 70.6487896,50.1730815 68.8870029,52.5220899 C68.2261658,53.3295502 66.1708897,55.2383246 62.6473162,58.2479272 C61.3258851,59.4224922 60.2981863,60.670551 59.6374707,61.9918606 C58.8300104,63.4600365 58.4629057,65.074957 58.4629057,66.9102376 L58.4629057,68.6522235 C58.4629057,69.3799946 57.87289,69.9700103 57.1452404,69.9700103 L51.9258424,69.9700103 C51.1981928,69.9700103 50.6081771,69.3799946 50.6081771,68.6522235 L50.6081771,66.9102376 C50.6081771,64.1941244 51.0487756,61.8449945 52.0031021,59.9363416 C53.0308009,57.8810654 55.8202864,54.8712199 60.3715586,50.833797 L61.6196174,49.439115 C62.9408056,47.7505792 63.6016427,45.9887924 63.6016427,44.0801395 C63.6016427,41.5108925 62.8674333,39.5288673 61.4727513,38.06057 C60.0044539,36.5925156 57.9491778,35.8584277 55.3063155,35.8584277 C52.0031021,35.8584277 49.5805998,36.8861265 48.1124239,38.9416455 C46.964098,40.4727467 46.3148013,42.6136644 46.1644123,45.2679456 C46.1250536,45.9621889 45.5451205,46.5025204 44.8497839,46.5025204 L39.7015717,46.5025204 C38.9497481,46.5025204 38.3451551,45.8737533 38.3845137,45.123023 C38.6312343,40.420147 40.1668302,36.689819 43.0473022,33.8764024 C46.1303987,30.7199337 50.3879385,29.178264 55.746914,29.178264 C60.5184248,29.178264 64.3356091,30.4262013 67.2720823,33.0689421" id="Fill-3" fill="#FFFFFF"></path>
                <path d="M55.1773915,81.9222567 L53.2337531,81.9222567 C51.6235702,81.9222567 50.3182956,80.616982 50.3182956,79.0067991 L50.3182956,77.0631607 C50.3182956,75.4529778 51.6235702,74.1477031 53.2337531,74.1477031 L55.1773915,74.1477031 C56.7875745,74.1477031 58.0928491,75.4529778 58.0928491,77.0631607 L58.0928491,79.0067991 C58.0928491,80.616982 56.7875745,81.9222567 55.1773915,81.9222567" id="Fill-5" fill="#FFFFFF"></path>
            </g>
        </g>
        <g id="2.通用组件/灰色版/对话弹窗" transform="translate(95.853862, 126.410105) scale(-1, 1) rotate(-360.000000) translate(-95.853862, -126.410105) translate(70.000000, 109.000000)">
            <g id="编组-4" transform="translate(-0.000000, 0.000000)">
                <g id="编组" transform="translate(-0.292277, 0.000000)" fill="#597EF7">
                    <rect id="矩形" x="0" y="-1.0125234e-13" width="52" height="30" rx="15"></rect>
                    <path d="M7.18487222,26 L7.18487222,30.4182115 C7.18487222,31.5379799 8.09262385,32.4457315 9.21239222,32.4457315 C9.71659809,32.4457315 10.2027145,32.2578644 10.5758802,31.9187907 L14.1848722,28.6395121 L14.1848722,28.6395121 L7.18487222,26 Z" id="路径-2"></path>
                </g>
                <g id="编组-3" transform="translate(13.838158, 12.000000)" fill="#FFFFFF">
                    <circle id="椭圆形" cx="2.51063105" cy="2.5" r="2.5"></circle>
                    <circle id="椭圆形备份" cx="12.510631" cy="2.5" r="2.5"></circle>
                    <circle id="椭圆形备份-2" cx="22.510631" cy="2.5" r="2.5"></circle>
                </g>
            </g>
        </g>
        <g id="2.通用组件/彩色版/点线三角体备份-2" opacity="0.1039109" transform="translate(8.000000, 225.000000)">
            <g id="编组" transform="translate(44.092767, 43.905352) rotate(28.000000) translate(-44.092767, -43.905352) translate(11.332537, 11.598389)">
                <polygon id="路径-2" opacity="0.682407924" points="4.08715632 54.5066587 36.4960759 3.48967069 60.0871563 59.4896707"></polygon>
                <polygon id="路径-3" stroke="#597EF7" stroke-width="2.1384" stroke-linejoin="round" points="36.3212339 4.47162842 44.9334765 41.5761422 60.3212339 60.4716284"></polygon>
                <polygon id="路径-4" stroke="#597EF7" stroke-width="2.9403" stroke-linejoin="round" points="3.80084198 54.6419067 44.800842 40.7340652 36.3093295 3.64190672"></polygon>
                <polygon id="路径-5" stroke="#597EF7" stroke-width="2.1384" stroke-linejoin="round" points="4.17185911 54.8088713 60.1718591 59.8194451 45.0462831 40.8194451"></polygon>
                <circle id="椭圆形备份-12" fill="#597EF7" cx="36.1431291" cy="3.89774584" r="4"></circle>
                <circle id="椭圆形备份-13" fill="#597EF7" cx="4.31400117" cy="54.7986949" r="4"></circle>
                <circle id="椭圆形备份-14" fill="#597EF7" cx="61.7185756" cy="60.5183829" r="4"></circle>
                <circle id="椭圆形备份-15" fill="#597EF7" cx="44.684101" cy="41.2615224" r="4"></circle>
            </g>
        </g>
    </g>
</svg>