<?xml version="1.0" standalone="no"?><!DOCTYPE svg PUBLIC "-//W3C//DTD SVG 1.1//EN" "http://www.w3.org/Graphics/SVG/1.1/DTD/svg11.dtd"><svg t="1624585757524" class="icon" viewBox="0 0 1024 1024" version="1.1" xmlns="http://www.w3.org/2000/svg" p-id="3741" xmlns:xlink="http://www.w3.org/1999/xlink" width="200" height="200"><defs><style type="text/css"></style></defs><path d="M0 880.323491c0 51.851636 228.947782 93.910109 511.366982 93.910109 282.437818 0 511.3856-42.058473 511.3856-93.910109 0-51.870255-228.947782-93.928727-511.3856-93.928727C228.947782 786.394764 0 828.453236 0 880.323491z" fill="#F5F5F7" fill-opacity=".8" p-id="3742"></path><path d="M959.506618 578.187636L738.843927 364.879127a45.000145 45.000145 0 0 0-34.462254-16.812218H318.370909c-13.423709 0.186182-26.065455 6.330182-34.480873 16.774982L61.998545 578.187636l0.6144 124.704582H960.139636v-115.991273l-0.6144-8.713309z" fill="#AEB8C2" p-id="3743"></path><path d="M689.207855 56.003491c45.968291 47.588073 166.930618 166.781673 166.930618 166.818909l-0.372364 554.5984c0 16.477091-13.777455 29.863564-30.775854 29.863564H218.633309c-16.9984-0.018618-30.775855-13.386473-30.775854-29.9008l0.521309-691.590982c-0.055855-16.495709 13.702982-29.9008 30.701381-29.938037l470.109091 0.148946z" fill="#FAFAFA" p-id="3744"></path><path d="M114.818327 890.749673c-24.296727 0-44.720873-17.6128-50.511127-41.202037-1.117091-4.5056-1.675636-9.122909-1.675636-13.777454V577.684945h239.225018c21.820509 0 39.414691 18.804364 39.414691 41.667491v0.297891c-0.223418 22.621091 17.519709 41.108945 39.582254 41.332364h261.026909c21.820509 0 39.600873-18.580945 39.600873-41.481309 0-22.918982 17.594182-41.835055 39.414691-41.835055h239.243636V835.770182c0 4.654545-0.558545 9.271855-1.675636 13.777454-5.771636 23.607855-26.2144 41.202036-50.511127 41.202037h-793.134546z m574.854982-698.926546c0 17.054255 13.833309 30.906182 30.887564 30.906182l135.298327 0.279273L688.798255 55.854545l0.875054 135.9872z m-376.589964 156.243782h417.456873a20.870982 20.870982 0 0 1 0 41.741964H313.083345a20.870982 20.870982 0 1 1 0-41.741964z m0 104.354909h146.115491a20.870982 20.870982 0 0 1 0 41.760582h-146.115491a20.870982 20.870982 0 0 1 0-41.760582z" fill="#EBEBEB" p-id="3745"></path></svg>