<?xml version="1.0" encoding="UTF-8"?>
<svg width="180px" height="180px" viewBox="0 0 180 180" version="1.1" xmlns="http://www.w3.org/2000/svg" xmlns:xlink="http://www.w3.org/1999/xlink">
    <title>1.通用/空状态/请设置好相关条件 再来查看数据吧</title>
    <defs>
        <polygon id="path-1" points="0 4.54747351e-13 5 4.54747351e-13 5 5 0 5"></polygon>
        <polygon id="path-3" points="0 0 7 0 7 7 0 7"></polygon>
    </defs>
    <g id="1.通用/空状态/请设置好相关条件-再来查看数据吧" stroke="none" stroke-width="1" fill="none" fill-rule="evenodd">
        <g id="编组" transform="translate(50.592519, 49.330439) scale(-1, 1) rotate(33.000000) translate(-50.592519, -49.330439) translate(19.212960, 40.747593)">
            <g transform="translate(19.824125, 12.165692)">
                <mask id="mask-2" fill="white">
                    <use xlink:href="#path-1"></use>
                </mask>
                <g id="Clip-2"></g>
                <path d="M4.98675094,2.75506972 C4.84583064,4.12837792 3.61831731,5.12767124 2.24500907,4.98675094 C0.871257691,4.84583064 -0.128035652,3.61831734 0.0133277962,2.24456599 C0.154248099,0.871257784 1.38176143,-0.128035537 2.75506967,0.0133279083 C4.1283779,0.154248208 5.12767124,1.38176151 4.98675094,2.75506972" id="Fill-1" fill="#E4E6EF" mask="url(#mask-2)"></path>
            </g>
            <path d="M43.8062689,3.77737309 C43.6653588,5.15068129 42.4379349,6.14997462 41.0647267,6.00905432 C39.6910754,5.86813402 38.6918549,4.64017757 38.8327649,3.26686936 C38.9741181,1.89356116 40.201542,0.894267837 41.5747502,1.03563128 C42.9479583,1.17610844 43.9471789,2.40406489 43.8062689,3.77737309" id="Fill-3" fill="#E4E6EF"></path>
            <path d="M4.98670385,2.75522621 C4.84592394,4.12867376 3.61807823,5.12754469 2.24455591,4.98677244 C0.871441655,4.84559215 -0.127891724,3.61822133 0.0132962502,2.24477379 C0.154076167,0.871326245 1.38192187,-0.127544694 2.75503613,0.0132275582 C4.12855845,0.153999811 5.12789183,1.38177867 4.98670385,2.75522621" id="Fill-5" fill="#E4E6EF"></path>
            <g transform="translate(55.759118, 7.450003)">
                <mask id="mask-4" fill="white">
                    <use xlink:href="#path-3"></use>
                </mask>
                <g id="Clip-8"></g>
                <path d="M6.9812441,3.85747496 C6.78359151,5.78030151 5.06527079,7.17872083 3.14244247,6.98163968 C1.21961416,6.78398727 -0.178806429,5.06566811 0.0182749042,3.14284156 C0.215927488,1.220015 1.93424821,-0.178404315 3.85707653,0.0186768384 C5.77933359,0.216329242 7.17832543,1.9346484 6.9812441,3.85747496" id="Fill-7" fill="#E4E6EF" mask="url(#mask-4)"></path>
            </g>
            <polygon id="Fill-9" fill="#E4E6EF" points="22.3852181 14.3359916 22.3102759 14.2883124 2.50486263 1.5939891 2.66249966 1.33599162 22.3934876 13.9831655 42.3782452 2.52055497 42.4438843 2.54704342 59.5048626 9.40914049 59.3963257 9.69150733 42.4004695 2.85589871"></polygon>
        </g>
        <g id="资源-22" transform="translate(40.000000, 53.000000)">
            <polygon id="矩形" stroke="#707070" stroke-width="0.704013986" transform="translate(36.335349, 98.462075) rotate(-57.590000) translate(-36.335349, -98.462075) " points="34.8683521 96.9933058 37.7985751 96.9970761 37.8023455 99.9308444 34.8721224 99.927074"></polygon>
            <polyline id="路径" fill="#C1C1C1" fill-rule="nonzero" points="66.7636364 7.41818182 66.7636364 25.9636364 85.3090909 25.9636364"></polyline>
            <path d="M84.9662742,0 L28.2487589,0 C26.474602,0 25.0363636,1.43148455 25.0363636,3.19731023 L25.0363636,90.4572352 C25.0363636,92.2230609 26.474602,93.6545455 28.2487589,93.6545455 L98.7876047,93.6545455 C100.561762,93.6545455 102,92.2230609 102,90.4572352 L102,17.0842943 L84.9662742,0 Z" id="路径" fill="#7A83A4" fill-rule="nonzero"></path>
            <path d="M85.3090909,0 L85.3353221,14.3477327 C85.3353221,16.1539519 86.7446148,17.6181818 88.4830654,17.6181818 L102,17.6181818" id="路径" fill="#E4EBF7" fill-rule="nonzero"></path>
            <path d="M59.6962566,8.34545455 L3.20681818,8.34545455 C1.4357414,8.34545455 0,9.77693909 0,11.5427648 L0,98.8026898 C0,100.568515 1.4357414,102 3.20681818,102 L73.7568182,102 C75.527895,102 76.9636364,100.568515 76.9636364,98.8026898 L76.9636364,27.0270718 L64.6401013,27.0270718 C62.8696705,27.0270718 59.6962566,25.5962754 59.6962566,23.8297615 L59.6962566,8.34545455 Z" id="路径" fill="#E4EBF7" fill-rule="nonzero"></path>
            <rect id="矩形" fill="#A3B5D6" fill-rule="nonzero" x="8.34545455" y="16.6909091" width="16.6909091" height="16.6909091" rx="2.11755643"></rect>
            <rect id="矩形" fill="#A3B5D6" fill-rule="nonzero" x="8.34545455" y="42.6545455" width="59.3454545" height="4.63636364" rx="0.768937678"></rect>
            <rect id="矩形" fill="#A3B5D6" fill-rule="nonzero" x="8.34545455" y="55.6363636" width="59.3454545" height="4.63636364" rx="0.768937678"></rect>
            <rect id="矩形-copy" fill="#A3B5D6" fill-rule="nonzero" x="8.34545455" y="67.6909091" width="59.3454545" height="4.63636364" rx="0.768937678"></rect>
            <path d="M59.3454545,8.34545455 L59.3454545,23.7169028 C59.3454545,25.469858 60.8103643,26.8909091 62.6174221,26.8909091 L76.9636364,26.8909091" id="路径" fill="#FFFFFF" fill-rule="nonzero"></path>
        </g>
        <path d="M134.235976,142.091078 C130.370001,142.091078 127.235976,138.957053 127.235976,135.091078 C127.235976,131.225103 130.370001,128.091078 134.235976,128.091078 C138.101952,128.091078 141.235976,131.225103 141.235976,135.091078 C141.235976,138.957053 138.101952,142.091078 134.235976,142.091078 L134.235976,142.091078 Z M154.868864,137.931673 L154.868864,131.902619 L150.117103,130.69526 C149.768653,129.43367 149.267924,128.235427 148.63575,127.121444 L151.142538,122.906644 L146.879404,118.643433 L142.664605,121.150299 C141.550544,120.518048 140.352302,120.017395 139.090788,119.668868 L137.883353,114.917184 L131.854299,114.917184 L130.646941,119.668868 C129.38535,120.017395 128.187108,120.518048 127.073124,121.150299 L122.858324,118.643433 L118.595114,122.906644 L121.101902,127.121444 C120.469805,128.235427 119.969075,129.433747 119.620549,130.69526 L114.868864,131.902619 L114.868864,137.931673 L119.620549,139.139107 C119.969075,140.400621 120.469805,141.598864 121.101902,142.712924 L118.595114,146.927724 L122.858324,151.190935 L127.073124,148.684069 C128.187108,149.316243 129.38535,149.816973 130.646941,150.1655 L131.854299,154.917184 L137.883353,154.917184 L139.090788,150.1655 C140.352302,149.816973 141.550544,149.316243 142.664605,148.684069 L146.879404,151.190935 L151.142538,146.927724 L148.63575,142.712924 C149.267924,141.598864 149.768653,140.400621 150.117103,139.139107 L154.868864,137.931673 Z" id="Fill-1备份-2" fill="#253368" transform="translate(134.865629, 134.880324) rotate(-297.000000) translate(-134.865629, -134.880324) "></path>
    </g>
</svg>