<?xml version="1.0" encoding="UTF-8"?>
<svg width="180px" height="180px" viewBox="0 0 180 180" version="1.1" xmlns="http://www.w3.org/2000/svg" xmlns:xlink="http://www.w3.org/1999/xlink">
    <title>1.通用/空状态/审核中</title>
    <defs>
        <polygon id="path-1" points="0 0 104.897888 0 104.897888 104.602287 0 104.602287"></polygon>
        <path d="M52.4172312,0 C23.4671145,0 0,23.4010221 0,52.267921 L0,52.267921 C0,81.136503 23.4671145,104.537525 52.4172312,104.537525 L52.4172312,104.537525 C81.3656601,104.537525 104.833619,81.136503 104.833619,52.267921 L104.833619,52.267921 C104.833619,23.4010221 81.3656601,0 52.4172312,0 Z" id="path-3"></path>
        <path d="M52.4172312,0 C23.4671145,0 0,23.4010221 0,52.267921 L0,52.267921 C0,81.136503 23.4671145,104.537525 52.4172312,104.537525 L52.4172312,104.537525 C81.3656601,104.537525 104.833619,81.136503 104.833619,52.267921 L104.833619,52.267921 C104.833619,23.4010221 81.3656601,0 52.4172312,0 Z" id="path-5"></path>
        <path d="M52.4172312,0 C23.4671145,0 0,23.4010221 0,52.267921 L0,52.267921 C0,81.136503 23.4671145,104.537525 52.4172312,104.537525 L52.4172312,104.537525 C81.3656601,104.537525 104.833619,81.136503 104.833619,52.267921 L104.833619,52.267921" id="path-7"></path>
        <path d="M52.4172312,0 C23.4671145,0 0,23.4010221 0,52.267921 C0,81.136503 23.4671145,104.537525 52.4172312,104.537525 C81.3656601,104.537525 104.833619,81.136503 104.833619,52.267921" id="path-9"></path>
        <polygon id="path-11" points="0 0 7.81900452 0 7.81900452 8.37445592 0 8.37445592"></polygon>
        <polygon id="path-13" points="0 0 39.1374851 0 39.1374851 39.0272589 0 39.0272589"></polygon>
    </defs>
    <g id="1.通用/空状态/审核中" stroke="none" stroke-width="1" fill="none" fill-rule="evenodd">
        <g id="编组-2" transform="translate(18.000000, 32.000000)">
            <g id="编组-8">
                <g id="分组" transform="translate(15.638009, 11.105289)">
                    <g transform="translate(0.000000, 0.292424)">
                        <mask id="mask-2" fill="white">
                            <use xlink:href="#path-1"></use>
                        </mask>
                        <g id="Clip-2"></g>
                        <path d="M104.898564,52.3010592 C104.898564,81.18673 81.4151844,104.602287 52.4496196,104.602287 C23.4823659,104.602287 -0.000168890497,81.18673 -0.000168890497,52.3010592 C-0.000168890497,23.4153884 23.4823659,-0.000168414836 52.4496196,-0.000168414836 C81.4151844,-0.000168414836 104.898564,23.4153884 104.898564,52.3010592" id="Fill-1" fill="#A3B5D6" mask="url(#mask-2)"></path>
                    </g>
                    <g id="文件">
                        <mask id="mask-4" fill="white">
                            <use xlink:href="#path-3"></use>
                        </mask>
                        <g id="Clip-4"></g>
                        <path d="M80.2201962,48.420011 L80.2201962,111.315044 C80.2201962,112.237385 79.0192862,112.704446 78.3584904,112.058976 L74.5101773,107.605485 L70.4567896,111.646615 C69.6491502,112.45198 68.3419053,112.460396 67.5241387,111.66513 L63.34163,107.605485 L59.3717913,111.61632 C58.5616201,112.434308 57.2391844,112.442723 56.4188861,111.633992 L52.3292095,107.605485 L48.2024001,111.659239 C47.3888532,112.457029 46.0832961,112.457029 45.2714371,111.657556 L41.1513791,107.605485 L37.043136,111.646615 C36.2262134,112.450297 34.9122171,112.445248 34.101202,111.636517 L30.0570975,107.605485 L26.3066801,112.111152 C25.648416,112.764196 24.612916,112.299659 24.612916,111.373111 L24.612916,48.420011 L80.2201962,48.420011 Z" id="Fill-3" fill="#F1F2F6" mask="url(#mask-4)"></path>
                        <mask id="mask-6" fill="white">
                            <use xlink:href="#path-5"></use>
                        </mask>
                        <g id="Clip-6"></g>
                        <path d="M24.525907,48.2235929 L80.3070364,48.2235929 L80.3070364,44.9558485 C80.3070364,43.8062891 79.3719639,42.8746917 78.2191578,42.8746917 L26.6137856,42.8746917 C25.4601356,42.8746917 24.525907,43.8062891 24.525907,44.9558485 L24.525907,48.2235929 Z" id="Fill-5" fill="#4E5C93" mask="url(#mask-6)"></path>
                        <g id="分组" mask="url(#mask-6)">
                            <mask id="mask-8" fill="white">
                                <use xlink:href="#path-7"></use>
                            </mask>
                            <g id="Clip-8"></g>
                            <path d="M64.802048,65.1565344 L73.1535625,65.1565344 C73.9223812,65.1565344 74.5452003,64.5354694 74.5452003,63.768816 L74.5452003,55.4408225 C74.5452003,54.6750107 73.9223812,54.0539457 73.1535625,54.0539457 L64.802048,54.0539457 C64.0332293,54.0539457 63.4104102,54.6750107 63.4104102,55.4408225 L63.4104102,63.768816 C63.4104102,64.5354694 64.0332293,65.1565344 64.802048,65.1565344" id="Fill-7" fill="#4E5C93" mask="url(#mask-8)"></path>
                        </g>
                        <mask id="mask-10" fill="white">
                            <use xlink:href="#path-9"></use>
                        </mask>
                        <g id="Clip-10"></g>
                        <path d="M68.2813956,65.1565344 C68.665383,65.1565344 68.9767925,64.8460019 68.9767925,64.463096 L68.9767925,60.2990992 C68.9767925,59.9153518 68.665383,59.6048193 68.2813956,59.6048193 L64.1064823,59.6048193 C63.7216509,59.6048193 63.4102414,59.9153518 63.4102414,60.2990992 L63.4102414,64.463096 C63.4102414,64.8460019 63.7216509,65.1565344 64.1064823,65.1565344 L68.2813956,65.1565344 Z" id="Fill-9" fill="#A3B5D6" mask="url(#mask-10)"></path>
                        <path d="M30.5117217,73.4150157 L73.9529314,73.4150157 C74.2322717,73.4150157 74.4576005,73.1894799 74.4576005,72.9109264 L74.4576005,71.1436683 C74.4576005,70.8651147 74.2322717,70.6395789 73.9529314,70.6395789 L30.5117217,70.6395789 C30.2332253,70.6395789 30.0062086,70.8651147 30.0062086,71.1436683 L30.0062086,72.9109264 C30.0062086,73.1894799 30.2332253,73.4150157 30.5117217,73.4150157" id="Fill-11" fill="#A3B5D6"></path>
                        <path d="M30.5117217,81.6735812 L73.9529314,81.6735812 C74.2322717,81.6735812 74.4576005,81.4480454 74.4576005,81.1694918 L74.4576005,79.4022337 C74.4576005,79.1236802 74.2322717,78.8981444 73.9529314,78.8981444 L30.5117217,78.8981444 C30.2332253,78.8981444 30.0062086,79.1236802 30.0062086,79.4022337 L30.0062086,81.1694918 C30.0062086,81.4480454 30.2332253,81.6735812 30.5117217,81.6735812" id="Fill-13" fill="#CCD7EE"></path>
                        <path d="M30.5117217,89.9321466 L73.9529314,89.9321466 C74.2322717,89.9321466 74.4576005,89.7066108 74.4576005,89.4280573 L74.4576005,87.6607992 C74.4576005,87.3822457 74.2322717,87.1567099 73.9529314,87.1567099 L30.5117217,87.1567099 C30.2332253,87.1567099 30.0062086,87.3822457 30.0062086,87.6607992 L30.0062086,89.4280573 C30.0062086,89.7066108 30.2332253,89.9321466 30.5117217,89.9321466" id="Fill-15" fill="#E4EBF7"></path>
                    </g>
                </g>
                <path d="M137.336848,61.7261169 L125.251387,61.7261169 C123.73688,61.7261169 122.497738,60.4904646 122.497738,58.9802229 L122.497738,46.9287988 C122.497738,45.4185571 123.73688,44.1829048 125.251387,44.1829048 L137.336848,44.1829048 C138.851355,44.1829048 140.090498,45.4185571 140.090498,46.9287988 L140.090498,58.9802229 C140.090498,60.4904646 138.851355,61.7261169 137.336848,61.7261169" id="Fill-1备份" fill="#929CBE" opacity="0.100000001"></path>
                <g id="分组备份" transform="translate(11.728527, 42.915224)">
                    <mask id="mask-12" fill="white">
                        <use xlink:href="#path-11"></use>
                    </mask>
                    <g id="Clip-4"></g>
                    <path d="M6.59009556,8.37445592 L1.2288427,8.37445592 C0.552962651,8.37445592 0,7.78698573 0,7.06908391 L0,1.30538609 C0,0.587413884 0.552962651,-5.63115459e-05 1.2288427,-5.63115459e-05 L6.59009556,-5.63115459e-05 C7.26597561,-5.63115459e-05 7.81900452,0.587413884 7.81900452,1.30538609 L7.81900452,7.06908391 C7.81900452,7.78698573 7.26597561,8.37445592 6.59009556,8.37445592" id="Fill-3" fill="#FFC540" mask="url(#mask-12)"></path>
                </g>
                <path d="M137.409838,84.4673179 C136.733958,84.4673179 136.180995,83.9203612 136.180995,83.2519679 L136.180995,77.8857503 C136.180995,77.2172914 136.733958,76.6703347 137.409838,76.6703347 L142.771091,76.6703347 C143.446971,76.6703347 144,77.2172914 144,77.8857503 L144,83.2519679 C144,83.9203612 143.446971,84.4673179 142.771091,84.4673179 L137.409838,84.4673179 Z" id="Fill-5备份" fill="#FF7A46"></path>
                <path d="M4.89537675,31.1879328 C2.20291954,31.1879328 0,28.9912175 0,26.3063433 L0,4.88158948 C0,2.19671526 2.20291954,0 4.89537675,0 L26.3806414,0 C29.0730986,0 31.2760181,2.19671526 31.2760181,4.88158948 L31.2760181,26.3063433 C31.2760181,28.9912175 29.0730986,31.1879328 26.3806414,31.1879328 L4.89537675,31.1879328 Z" id="Fill-7备份" fill="#929CBE" opacity="0.100000001"></path>
                <g id="分组" transform="translate(93.043163, 10.487962)">
                    <g>
                        <mask id="mask-14" fill="white">
                            <use xlink:href="#path-13"></use>
                        </mask>
                        <g id="Clip-2"></g>
                        <path d="M19.5687404,-4.35572135e-06 C8.76120221,-4.35572135e-06 -4.36802316e-06,8.73652729 -4.36802316e-06,19.5136273 C-4.36802316e-06,30.2906837 8.76120221,39.0272589 19.5687404,39.0272589 C30.3762786,39.0272589 39.1374851,30.2906837 39.1374851,19.5136273 C39.1374851,8.73652729 30.3762786,-4.35572135e-06 19.5687404,-4.35572135e-06" id="Fill-1" fill="#597EF7" mask="url(#mask-14)"></path>
                    </g>
                    <g id="编组" transform="translate(8.632156, 17.210075)" fill="#FFFFFF">
                        <path d="M2.69754886,4.30251885 L1.61852932,4.30251885 C0.724629063,4.30251885 0,3.58016627 0,2.68907428 L0,1.61344457 C0,0.722352579 0.724629063,0 1.61852932,0 L2.69754886,0 C3.59144912,0 4.31607818,0.722352579 4.31607818,1.61344457 L4.31607818,2.68907428 C4.31607818,3.58016627 3.59144912,4.30251885 2.69754886,4.30251885" id="Fill-5"></path>
                        <path d="M11.3297052,4.30251885 L10.2506857,4.30251885 C9.35678543,4.30251885 8.63215636,3.58016627 8.63215636,2.68907428 L8.63215636,1.61344457 C8.63215636,0.722352579 9.35678543,0 10.2506857,0 L11.3297052,0 C12.2236055,0 12.9482345,0.722352579 12.9482345,1.61344457 L12.9482345,2.68907428 C12.9482345,3.58016627 12.2236055,4.30251885 11.3297052,4.30251885" id="Fill-5"></path>
                        <path d="M19.9618616,4.30251885 L18.882842,4.30251885 C17.9889418,4.30251885 17.2643127,3.58016627 17.2643127,2.68907428 L17.2643127,1.61344457 C17.2643127,0.722352579 17.9889418,0 18.882842,0 L19.9618616,0 C20.8557618,0 21.5803909,0.722352579 21.5803909,1.61344457 L21.5803909,2.68907428 C21.5803909,3.58016627 20.8557618,4.30251885 19.9618616,4.30251885" id="Fill-5"></path>
                    </g>
                </g>
            </g>
            <g id="编组备份" transform="translate(32.000000, 35.000000)" fill="#393D65" fill-rule="nonzero">
                <path d="M7.531753e-13,33 L36,33 L36,37 L7.531753e-13,37 L7.531753e-13,33 Z M33,24 L25,24 C23.81754,22.6952345 23.2580152,21.7150762 23,21 C22.7913107,16.1219437 27.9996626,13.9697485 28,8 C27.9996626,3.77568629 24.1662671,9.41469125e-14 18,9.41469125e-14 C11.8328655,9.41469125e-14 7.99946987,3.77568629 8,8 C7.99946987,13.9701639 13.2078218,16.122359 13,21 C12.7411174,21.7154915 12.1815925,22.6952345 11,24 L3,24 C1.19105049,23.5599335 7.46069873e-13,24.6675956 7.46069873e-13,26 L7.46069873e-13,31 L36,31 L36,26 C36,24.6675956 34.8089495,23.5599335 33,24 Z" id="形状"></path>
            </g>
        </g>
    </g>
</svg>