<?xml version="1.0" encoding="UTF-8"?>
<svg width="180px" height="180px" viewBox="0 0 180 180" version="1.1" xmlns="http://www.w3.org/2000/svg" xmlns:xlink="http://www.w3.org/1999/xlink">
    <title>1.通用/空状态/没有找到相关数据</title>
    <defs>
        <polygon id="path-1" points="5.67312033e-14 0 84.4329897 0 84.4329897 98.5526316 5.67312033e-14 98.5526316"></polygon>
        <polygon id="path-3" points="0 107 91 107 91 0 0 0"></polygon>
        <polygon id="path-5" points="0.00355742188 0.010171875 44.6285 0.010171875 44.6285 44.6351555 0.00355742188 44.6351555"></polygon>
    </defs>
    <g id="1.通用/空状态/没有找到相关数据" stroke="none" stroke-width="1" fill="none" fill-rule="evenodd">
        <g id="编组-3备份" transform="translate(25.000000, 27.000000)">
            <path d="M36.2417119,43 L6.75792373,43 C3.04097458,43 0,39.9835594 0,36.2974011 L0,6.70296031 C0,3.01644057 3.04097458,0 6.75792373,0 L36.2417119,0 C39.958661,0 43,3.01644057 43,6.70296031 L43,36.2974011 C43,39.9835594 39.958661,43 36.2417119,43" id="Fill-3" fill="#929CBE" opacity="0.100000001" transform="translate(21.500000, 21.500000) rotate(-360.000000) translate(-21.500000, -21.500000) "></path>
            <g id="编组" transform="translate(17.000000, 21.000000)">
                <path d="M86.7786514,99.4912281 L11.7265032,99.4912281 C9.39513156,99.4912281 7.50515464,97.6077467 7.50515464,95.2840939 L7.50515464,4.20713412 C7.50515464,1.88348136 9.39513156,0 11.7265032,0 L86.7786514,0 C89.1100231,0 91,1.88348136 91,4.20713412 L91,95.2840939 C91,97.6077467 89.1100231,99.4912281 86.7786514,99.4912281" id="Fill-1" fill="#7A83A4"></path>
                <g transform="translate(0.000000, 8.447368)">
                    <mask id="mask-2" fill="white">
                        <use xlink:href="#path-1"></use>
                    </mask>
                    <g id="Clip-4"></g>
                    <path d="M80.2174856,98.5526316 L4.21550407,98.5526316 C1.88749195,98.5526316 1.7019361e-13,96.6630148 1.7019361e-13,94.3317927 L1.7019361e-13,4.22083891 C1.7019361e-13,1.88974872 1.88749195,0 4.21550407,0 L80.2174856,0 C82.5457612,0 84.4329897,1.88974872 84.4329897,4.22083891 L84.4329897,94.3317927 C84.4329897,96.6630148 82.5457612,98.5526316 80.2174856,98.5526316" id="Fill-3" fill="#E4EBF7" mask="url(#mask-2)"></path>
                </g>
                <path d="M21.4226616,72.2719298 C20.9900911,72.2719298 20.6391753,71.9537384 20.6391753,71.5612381 L20.6391753,70.1668321 C20.6391753,69.7744522 20.9900911,69.4561404 21.4226616,69.4561404 L61.1341722,69.4561404 C61.5668755,69.4561404 61.9175258,69.7744522 61.9175258,70.1668321 L61.9175258,71.5612381 C61.9175258,71.9537384 61.5668755,72.2719298 61.1341722,72.2719298 L21.4226616,72.2719298 Z" id="Fill-5" fill="#A3B5D6"></path>
                <path d="M14.0720938,74.1491228 C12.5176795,74.1491228 11.257732,72.8884256 11.257732,71.3334045 C11.257732,69.778241 12.5176795,68.5175439 14.0720938,68.5175439 C15.6265081,68.5175439 16.8865979,69.778241 16.8865979,71.3334045 C16.8865979,72.8884256 15.6265081,74.1491228 14.0720938,74.1491228 Z" id="Fill-7" fill="#A3B5D6"></path>
                <path d="M21.327397,82.5964912 C20.9473538,82.5964912 20.6391753,82.3134549 20.6391753,81.964417 L20.6391753,80.5700719 C20.6391753,80.1340756 21.0240706,79.7807018 21.4986656,79.7807018 L73.4251803,79.7807018 C73.8052235,79.7807018 74.1134021,80.063738 74.1134021,80.4126555 L74.1134021,81.964417 C74.1134021,82.3134549 73.8052235,82.5964912 73.4251803,82.5964912 L21.327397,82.5964912 Z" id="Fill-9" fill="#A3B5D6"></path>
                <path d="M14.0720938,84.4736842 C12.5176795,84.4736842 11.257732,83.2130975 11.257732,81.6578947 C11.257732,80.102692 12.5176795,78.8421053 14.0720938,78.8421053 C15.6265081,78.8421053 16.8865979,80.102692 16.8865979,81.6578947 C16.8865979,83.2130975 15.6265081,84.4736842 14.0720938,84.4736842 Z" id="Fill-11" fill="#A3B5D6"></path>
                <path d="M21.2872029,92.9210526 C20.9293938,92.9210526 20.6391753,92.6552394 20.6391753,92.3273991 L20.6391753,90.9329335 C20.6391753,90.47586 21.043798,90.1052632 21.5429686,90.1052632 L49.0734904,90.1052632 C49.431431,90.1052632 49.7216495,90.3709559 49.7216495,90.6989167 L49.7216495,92.3273991 C49.7216495,92.6552394 49.431431,92.9210526 49.0734904,92.9210526 L21.2872029,92.9210526 Z" id="Fill-13" fill="#A3B5D6"></path>
                <path d="M14.0720938,94.7982456 C12.5176795,94.7982456 11.257732,93.5376589 11.257732,91.9824561 C11.257732,90.4272534 12.5176795,89.1666667 14.0720938,89.1666667 C15.6265081,89.1666667 16.8865979,90.4272534 16.8865979,91.9824561 C16.8865979,93.5376589 15.6265081,94.7982456 14.0720938,94.7982456 Z" id="Fill-15" fill="#A3B5D6"></path>
                <path d="M75.8722252,59.1315789 L9.49890882,59.1315789 C8.91594828,59.1315789 8.44329897,58.6648887 8.44329897,58.088987 L8.44329897,20.7531182 C8.44329897,20.1773469 8.91594828,19.7105263 9.49890882,19.7105263 L75.8722252,19.7105263 C76.4551857,19.7105263 76.9278351,20.1773469 76.9278351,20.7531182 L76.9278351,58.088987 C76.9278351,58.6648887 76.4551857,59.1315789 75.8722252,59.1315789" id="Fill-17" fill="#FFFFFF"></path>
                <path d="M18.7628866,42.2368421 C20.1425047,37.1441167 24.0055432,28.2801596 28.1443974,28.1588526 C31.7318904,28.0537453 35.5943889,36.6226624 37.5257732,42.2368421" id="Fill-19" fill="#A3B5D6" opacity="0.3"></path>
                <mask id="mask-4" fill="white">
                    <use xlink:href="#path-3"></use>
                </mask>
                <g id="Clip-22"></g>
                <polygon id="Fill-21" fill="#4E5C93" mask="url(#mask-4)" points="17.8247423 57.254386 18.7628866 57.254386 18.7628866 24.4035088 17.8247423 24.4035088"></polygon>
                <polygon id="Fill-23" fill="#4E5C93" mask="url(#mask-4)" points="18.7628866 22.5263158 16.8865979 25.3421053 20.6391753 25.3421053"></polygon>
                <path d="M49.7216495,43.1754386 C48.8900477,46.5183952 46.9915492,54.4385965 43.6237791,54.4385965 C40.2560091,54.4385965 38.3735133,46.3287974 37.5257732,43.1754386" id="Fill-24" fill="#A3B5D6" mask="url(#mask-4)"></path>
                <path d="M49.7216495,43.1754386 C51.0897543,38.3361598 53.2786685,33.6636455 56.2886598,33.792061 C59.2983833,33.9204765 60.9402698,37.7842838 62.8556701,43.1754386" id="Fill-25" fill="#A3B5D6" mask="url(#mask-4)"></path>
                <polygon id="Fill-26" fill="#4E5C93" mask="url(#mask-4)" points="14.0721649 43.1754386 71.2989691 43.1754386 71.2989691 42.2368421 14.0721649 42.2368421"></polygon>
                <polygon id="Fill-27" fill="#4E5C93" mask="url(#mask-4)" points="72.2371134 43.1754386 69.4226804 45.0526316 69.4226804 41.2982456"></polygon>
                <path d="M37.4205524,43.1754386 C35.0796897,36.2098401 31.478765,29.2190674 28.6851871,29.2190674 C28.6682807,29.2190674 28.651911,29.2195865 28.635273,29.2201055 C25.1113663,29.3253441 21.2949524,37.5903987 19.8255733,43.1427381 L18.7628866,42.8797066 C19.8333556,38.8352241 23.6873393,28.3068269 28.6013261,28.1591556 C33.1302231,28.0204379 37.2941571,39.3671265 38.4639175,42.8470061 L37.4205524,43.1754386 Z" id="Fill-28" fill="#4E5C93" mask="url(#mask-4)"></path>
                <path d="M43.1534312,55.377193 C39.6245138,55.377193 37.7712718,48.0970284 36.7757984,44.1863713 L36.5876289,43.4517817 L37.6494045,43.1754386 L37.8390504,43.9159307 C38.628772,47.0175465 40.4775849,54.2804061 43.1534312,54.2804061 C45.9875172,54.2804061 47.888674,46.3722988 48.6041746,43.3950374 L48.6549079,43.184963 L49.7216495,43.4419889 L49.6713188,43.6515268 C48.7563745,47.4571466 46.8523992,55.377193 43.1534312,55.377193" id="Fill-29" fill="#4E5C93" mask="url(#mask-4)"></path>
                <path d="M61.8328585,43.1754386 C60.0556968,38.0366551 58.4832038,34.0961177 55.8024433,33.9785103 C53.5835163,33.8746742 51.4807454,37.1355949 49.8287771,43.1403216 L48.7835052,42.83143 C50.0597603,38.1937863 52.3214816,32.7058988 55.8484273,32.8538032 C59.2056575,33.0004682 60.9386958,37.2526515 62.8556701,42.7961753 L61.8328585,43.1754386 Z" id="Fill-30" fill="#4E5C93" mask="url(#mask-4)"></path>
                <polygon id="Fill-31" fill="#436DAA" mask="url(#mask-4)" points="62.8556701 24.4035088 62.8556701 24.9293145 60.7173143 24.9293145 60.7173143 25.9708585 62.7344802 25.9708585 62.7344802 26.496179 60.7173143 26.496179 60.7173143 28.1578947 60.0412371 28.1578947 60.0412371 24.4035088"></polygon>
                <path d="M68.4845361,23.4649123 C68.1706716,23.881206 67.9313069,24.2970824 67.7667867,24.7130979 C67.5427702,25.2314831 67.4380913,25.7562663 67.4380913,26.2809104 C67.4380913,26.7995737 67.5427702,27.3236614 67.7667867,27.8484447 C67.9313069,28.2586184 68.1706716,28.6744949 68.4845361,29.0964912 L67.7743746,29.0964912 C67.4154999,28.6984182 67.1464732,28.2886617 66.9521187,27.8665262 C66.7205143,27.3596855 66.6082474,26.8294778 66.6082474,26.286474 C66.6082474,25.7317866 66.7205143,25.2076988 66.9521187,24.7008581 C67.1464732,24.2671783 67.4154999,23.8567263 67.7743746,23.4649123 L68.4845361,23.4649123 Z" id="Fill-32" fill="#436DAA" mask="url(#mask-4)"></path>
                <polygon id="Fill-33" fill="#436DAA" mask="url(#mask-4)" points="68.3796088 25.3421053 68.9561955 26.2022969 69.5276077 25.3421053 70.2381153 25.3421053 69.2874864 26.6601611 70.3608247 28.1578947 69.6451427 28.1578947 68.9561955 27.1176484 68.2620738 28.1578947 67.5463918 28.1578947 68.6198533 26.6601611 67.6691012 25.3421053"></polygon>
                <path d="M71.0712005,23.4649123 C71.4225951,23.8567263 71.6989865,24.2671783 71.8934777,24.7008581 C72.1172806,25.2076988 72.2371134,25.7317866 72.2371134,26.286474 C72.2371134,26.8294778 72.1172806,27.3596855 71.8934777,27.8665262 C71.6989865,28.2886617 71.4225951,28.6984182 71.0712005,29.0964912 L70.3608247,29.0964912 C70.6673898,28.6744949 70.9067106,28.2586184 71.0787871,27.8484447 C71.2951758,27.3236614 71.4074221,26.7995737 71.4074221,26.2809104 C71.4074221,25.7562663 71.2951758,25.2314831 71.0787871,24.7130979 C70.9067106,24.2970824 70.6673898,23.881206 70.3608247,23.4649123 L71.0712005,23.4649123 Z" id="Fill-34" fill="#436DAA" mask="url(#mask-4)"></path>
            </g>
            <circle id="椭圆形" fill="#E4EBF7" cx="89" cy="91" r="20"></circle>
            <g id="分组" transform="translate(96.965820, 99.000000) scale(-1, 1) translate(-96.965820, -99.000000) translate(66.648438, 68.648438)">
                <polygon id="Fill-1" fill="#A3B5D6" points="9.97766602 52.5030816 8.12154492 50.6469605 22.9729746 35.7954488 24.8290957 37.651652"></polygon>
                <g transform="translate(0.000000, 0.003500)">
                    <g transform="translate(15.982422, 0.000000)">
                        <mask id="mask-6" fill="white">
                            <use xlink:href="#path-5"></use>
                        </mask>
                        <g id="Clip-3"></g>
                        <path d="M22.3160574,39.0570305 C13.0738426,39.0570305 5.58168242,31.5647883 5.58168242,22.3226555 C5.58168242,13.0805227 13.0738426,5.58828047 22.3160574,5.58828047 C31.5581082,5.58828047 39.0504324,13.0805227 39.0504324,22.3226555 C39.0504324,31.5647883 31.5581082,39.0570305 22.3160574,39.0570305 M22.3160574,0.0101554687 C9.99315898,0.0101554687 0.00355742188,9.99975703 0.00355742188,22.3226555 C0.00355742188,34.6454719 9.99315898,44.6351555 22.3160574,44.6351555 C34.6388738,44.6351555 44.6285574,34.6454719 44.6285574,22.3226555 C44.6285574,9.99975703 34.6388738,0.0101554687 22.3160574,0.0101554687" id="Fill-2" fill="#4E5C93" mask="url(#mask-6)"></path>
                    </g>
                    <path d="M26.4685887,22.3226227 C26.4685887,15.7892437 31.7650184,10.4928141 38.2984793,10.4928141 C44.8318582,10.4928141 50.1282879,15.7892437 50.1282879,22.3226227 C50.1282879,28.8560836 44.8318582,34.1525133 38.2984793,34.1525133 C31.7650184,34.1525133 26.4685887,28.8560836 26.4685887,22.3226227 Z" id="Fill-4" fill="#A3B5D6"></path>
                    <path d="M38.2984793,28.8851555 C34.6740105,28.8851555 31.7359793,25.9470422 31.7359793,22.3226555 C31.7359793,18.6982688 34.6740105,15.7601555 38.2984793,15.7601555 C41.922866,15.7601555 44.8609793,18.6982688 44.8609793,22.3226555 C44.8609793,25.9470422 41.922866,28.8851555 38.2984793,28.8851555" id="Fill-6" fill="#FFFFFF"></path>
                    <path d="M1.85617031,58.7649316 C0.831058795,57.7397975 0.831065688,56.0777485 1.85618571,55.0526228 L13.0403571,43.8683899 C14.0654814,42.8432599 15.727541,42.8432553 16.7526711,43.8683797 C16.7526728,43.8683814 16.7526745,43.8683831 16.7526762,43.8683848 C17.7778062,44.8935148 17.7778062,46.555579 16.7526762,47.580709 L5.56843301,58.7649521 C4.54332563,59.7900595 2.88129819,59.7900595 1.85619082,58.7649521 C1.85618398,58.7649453 1.85617715,58.7649385 1.85617031,58.7649316 Z" id="Fill-8" fill="#4E5C93"></path>
                </g>
            </g>
        </g>
    </g>
</svg>